<?xml version="1.0" encoding="UTF-8"?>
<?xml-stylesheet type="text/css" href="https://lumbrikus.no/css/interactive-svg.css" ?>   
<svg
    id="SVG_let_og_finn"
    width="100%"
    height="100%"
    viewBox="-900 -600 1800 1200"
    preserveAspectRatio="xMidYMid meet"
    xmlns="http://www.w3.org/2000/svg"
    xmlns:xlink="http://www.w3.org/1999/xlink"
     version="2.0"
    
    >
    <title>Let og finn ord i bildet</title>
    <defs>
        <style type="text/css">
            <![CDATA[*/
            /*]]>*/
        </style>
    </defs>

    

    <image id="let_og_finn_bg" xlink:href="img/01-let-og-finn-bg.jpg" x="-900" y="-600" width="1800" height="1200"></image>
    
    <g class="active_zones" id="g_active_zones">
        <path id="z_bjoerk" d="m -355,65 c -47,54 15,130 38,189 29,75 61,149 96,223 33,71 -69,134 -85,42 -12,-71 -21,-149 -64,-207 -44,-59 -120,-141 -198,-115 -64,21 -185,33 -135,-62 32,-62 36,-184 113,-183 94,1 81,140 125,203 17,25 60,63 42,4 -22,-75 -29,-149 -109,-194 -47,-27 -84,-3 -134,0 -70,5 4,-147 -43,-212 -51,-69 -74,-112 -47,-166 25,-49 34,-67 31,-133 -4,-82 148,-89 196,-42 48,47 3,127 13,188 32,186 144,-25 170,-51 54,-55 75,-1 49,52 -36,78 -216,141 -154,202 55,55 110,-123 190,-142 61,-14 181,26 132,96 -45,64 -146,-30 -206,10 -54,36 91,-43 120,30 92,236 -126,248 -143,268 z"></path>
        <path id="z_romskip" d="m -455,-501 c -202,-26 -243,259 -53,300 169,37 262,-182 119,-277 -18,-12 -43,-20 -66,-22 z"></path>
        <path id="z_selje" d="m -772,608 c -11,-18 -25,-44 -11,-61 15,-18 -1,-28 -11,-40 -14,-18 7,-29 -6,-47 -10,-13 -15,-38 -0,-51 19,-16 24,22 39,31 19,10 24,22 25,38 0,9 -4,40 3,32 14,-13 8,-38 11,-57 4,-23 35,-24 35,-48 -0,-21 6,-44 24,-58 16,-13 41,-5 46,16 4,21 -5,41 -14,61 -5,12 19,25 18,44 -0,19 -8,37 -23,47 -18,12 -31,28 -28,52 2,19 3,42 -12,57 -9,9 -26,14 -46,11 -25,-3 -40,-14 -50,-29 z M 703,329 c -15,-14 -15,-40 -27,-58 -8,-13 -13,-38 3,-46 18,-8 41,-0 56,13 19,19 37,41 44,69 8,33 21,70 8,104 -5,15 -10,29 -0,44 9,13 10,30 8,46 -2,16 -8,31 -5,48 4,21 13,42 8,64 -3,15 -27,22 -38,13 -11,-9 -19,-22 -28,-33 -9,-11 -19,-24 -23,-39 -4,-12 3,-28 19,-26 20,2 14,-28 15,-42 0,-23 -7,-48 -20,-67 -9,-14 -26,-22 -37,-34 -11,-11 -25,-22 -30,-39 -3,-15 5,-34 23,-32 9,1 33,25 25,17 z M -529,600 c 13,-12 34,-17 40,-36 4,-16 10,-37 -0,-52 -9,-13 -29,-24 -14,-42 13,-15 35,-22 40,-44 4,-19 -2,-40 -18,-50 -16,-10 -39,-13 -51,-31 -10,-16 -33,-25 -52,-13 -13,8 -21,23 -17,39 4,19 21,29 35,42 11,10 25,37 5,47 -17,8 -19,27 -17,44 3,23 -18,28 -32,40 -18,15 -18,42 -14,65 3,16 12,32 29,35 4,0 7,-3 12,-3 29,-5 41,-25 56,-38 z"></path>
        <path id="z_humle" d="m -538,380 c -25,92 80,111 96,29 8,-53 -79,-96 -96,-29 z M 726,258 c -17,12 -11,22 10,27 21,5 6,37 16,55 12,22 34,22 57,15 24,-7 17,-30 36,-39 22,-11 53,-13 55,-35 2,-22 -28,-28 -46,-31 -17,-2 -29,-5 -44,-18 -28,-24 -60,10 -84,26 z"></path>
        <path id="z_jenny" d="m 336,630 c 5,-66 11,-149 57,-202 28,-32 102,-41 36,-69 -31,-37 -14,-99 8,-134 19,-51 70,-107 131,-93 28,7 56,25 74,49 12,17 20,37 20,60 19,70 -59,144 -62,162 34,41 73,176 79,223 z"></path>
        <path id="z_samir" d="m 200,268 c -22,-24 -28,-66 -5,-92 17,-19 0,-40 13,-61 13,-20 38,-28 62,-27 29,0 63,18 78,44 13,25 23,54 11,79 -17,37 -44,27 -49,49 -4,17 35,1 46,24 14,28 24,58 31,89 4,21 15,45 5,65 -11,20 -40,20 -66,5 -21,-12 -3,-29 -35,-34 -31,-5 -62,-11 -94,-11 -27,-0 -53,3 -79,-6 -18,-6 -10,-51 3,-67 16,-18 48,-20 49,10 0,11 10,28 11,7 0,-17 -4,-42 13,-51 12,-5 8,-15 2,-22 z"></path>
        <path id="z_hestehov" d="m -442,573 c -28,-2 8,-43 13,-18 1,7 -4,18 -13,18 z m 83,-49 c 8,20 -5,57 -31,52 -24,-5 -40,-33 -41,-57 -0,-26 32,-22 50,-14 8,4 18,10 22,19 z m -84,-147 c -22,5 -59,-28 -36,-47 16,-13 49,-9 56,12 5,16 -6,31 -20,35 z m -146,-67 c -14,-34 -33,36 -2,11 3,-2 3,-7 2,-11 z m 59,6 c -20,19 -41,-29 -15,-30 11,-0 26,19 15,30 z m -22,140 c -2,15 -29,25 -36,5 -8,-28 40,-33 36,-5 z m -59,69 c -8,-25 -37,-9 -39,12 -2,30 40,29 42,2 0,-5 -0,-9 -2,-14 z m 228,-187 c 20,-22 -35,-31 -20,-0 3,6 14,7 20,0 z m 170,95 c 23,-0 25,-39 2,-41 -19,-1 -27,41 -2,41 z m -121,59 c -24,15 -29,-32 -9,-37 16,-3 22,28 9,37 z m -124,18 c 6,-29 -33,18 -6,9 3,-1 5,-5 6,-9 z"></path>
        <path id="z_krokus" d="m -167,121 c -14,-11 -17,-37 5,-37 24,-0 48,2 73,1 17,-0 51,-11 53,15 0,18 -10,39 -30,42 -27,4 -56,6 -82,-3 -8,-3 -11,-13 -19,-18 z m -41,31 c -18,12 -57,8 -58,34 -0,19 6,41 21,55 20,19 57,15 73,-7 15,-21 42,-7 63,-13 22,-6 27,-36 21,-56 -6,-22 -34,-14 -51,-19 -23,-7 -49,-7 -70,6 z"></path>
        <path id="z_hen" d="m -559,-55 c -35,66 -47,145 -95,205 -10,13 -26,20 -42,22 -16,2 -40,10 -36,31 5,26 23,52 50,58 19,3 27,-17 36,-30 6,-9 18,-34 28,-26 10,9 -15,34 -18,53 -2,15 11,51 32,40 18,-9 36,-30 46,-48 10,-18 -0,-42 5,-60 17,-50 40,-107 68,-154 13,-21 28,-38 29,-64 0,-19 -39,-26 -44,-11 -8,25 -29,18 -20,-1 7,-14 2,-38 -14,-40 -15,-2 -20,15 -26,25 z"></path>
        <path id="z_katt" d="m -183,-555 c 15,0 24,14 23,29 -0,17 -5,23 -4,42 0,11 25,2 36,14 9,10 21,24 12,39 -7,14 -25,10 -36,16 -10,6 -15,17 -23,27 -14,18 -28,37 -48,50 -13,8 -21,22 -28,36 -6,11 -14,23 -26,30 -11,7 -9,-17 -26,-2 -9,8 -28,9 -34,-3 -7,-15 13,-27 7,-40 -7,-15 5,-27 9,-41 5,-17 29,-5 36,-20 5,-13 19,-21 25,-34 5,-13 -2,-32 -1,-46 0,-18 -2,-34 13,-43 12,-7 22,2 31,-3 10,-7 3,-28 8,-40 5,-12 20,-10 25,-10 z"></path>
    </g>
    
    <g id="g_ord">
        <text class="ord" id="t_romskip" x="-588" y="-432" dy="20">romskip</text>
        <text class="ord" id="t_katt" x="-85" y="-369" dy="20">katt</text>
        <text class="ord" id="t_hen" x="-690" y="40" dy="20">hen</text>
        <text class="ord" id="t_bjoerk" x="-416" y="244" dy="20">bjørk</text>
        <text class="ord" id="t_krokus" x="-63" y="158" dy="20">krokus</text>
        <text class="ord" id="t_humle" x="-500" y="320" dy="20">humle</text>
        <use xlink:href="#t_humle" x="1300" y="-120" dy="20">humle</use>
        <text class="ord" id="t_selje" x="760" y="475" dy="20">selje</text>
        <use xlink:href="#t_selje" x="-1430" y="10"></use>
        <text class="ord" id="t_hestehov" x="-409" y="454" dy="20">hestehov</text>
        <text class="ord" id="t_samir" x="117" y="278" dy="20">samir</text>
        <text class="ord" id="t_jenny" x="541" y="391" dy="20">jenny</text>
    </g>
    
    <g id="g_ord_clones">
           
    </g>
    
    <script type="text/javascript" xlink:href="https://lumbrikus.no/js/libs/snap.svg-min.js"></script>
    <script type="text/javascript" xlink:href="https://lumbrikus.no/js/let-og-finn.js"></script>
    <!--<script type="text/javascript" xlink:href="https://lumbrikus.no/js/add-svg-words.js"></script>-->
</svg>
