<?xml version="1.0" encoding="UTF-8"?>
<?xml-stylesheet type="text/css" href="https://lumbrikus.no/css/interactive-svg.css" ?>   
<svg
    id="SVG_let_og_finn"
    width="100%"
    height="100%"
    viewBox="-900 -600 1800 1200"
    preserveAspectRatio="xMidYMid meet"
    xmlns="http://www.w3.org/2000/svg"
    xmlns:xlink="http://www.w3.org/1999/xlink"
     version="2.0"
    
    >
    <title>Let og finn ord i bildet</title>
    <defs>
        <style type="text/css">
            <![CDATA[*/
            /*]]>*/
        </style>
    </defs>

    

    <image id="let_og_finn_bg" xlink:href="img/02-let-og-finn-bg.jpg" x="-900" y="-600" width="1800" height="1200"></image>
    
    <g class="active_zones" id="g_active_zones">
        <path id="z_epletre" d="m -351,11 c 6,48 13,100 62,129 41,24 113,5 88,-48 -23,-52 -67,-105 -53,-166 15,-67 86,-105 150,-118 63,-12 132,-26 179,-77 34,-37 87,0 93,48 7,57 107,41 132,3 29,-46 7,-118 -38,-148 -40,-25 -13,-83 6,-118 37,-66 -55,-53 -87,-23 -40,37 -59,90 -93,132 -25,32 -90,61 -118,29 -35,-40 61,-64 91,-92 46,-42 95,-96 88,-160 -5,-47 -70,-37 -107,-38 -53,-0 -89,34 -139,33 -54,-0 -96,22 -138,50 -41,28 -91,49 -143,38 -57,-12 -76,57 -128,63 -47,5 -70,-52 -125,-44 -40,6 -84,45 -59,85 28,46 91,64 113,118 20,53 -51,71 -56,116 -8,69 98,113 143,57 21,-26 9,-118 57,-86 18,12 35,34 44,42 52,39 31,113 38,173 z"></path>
        <path id="z_blomster" d="m -501,-336 c 53,-167 -294,-204 -157,-22 29,39 128,113 157,22 z m -11,94 c 70,48 24,121 -27,134 -52,13 -109,-34 -44,-113 16,-20 51,-35 72,-21 z m 339,-186 c 150,123 423,-100 224,-166 -63,-20 -135,-11 -175,4 -44,17 -103,57 -160,72 -113,28 -255,-8 -190,187 75,225 238,-240 264,-24 8,71 -142,133 52,144 129,7 289,-53 90,-135 -39,-16 -141,-111 -105,-82 z m 299,49 c 2,-134 217,-159 109,-0 -20,30 -110,66 -109,0 z m 48,81 c 47,-185 212,64 91,94 -17,4 -47,7 -70,-4 -27,-14 -28,-58 -21,-89 z"></path>
        <path id="z_bjoerk" d="m -770,14 c 77,48 32,-78 56,-113 34,-50 117,-35 156,-94 36,-54 44,-137 -30,-156 -88,-22 -69,-128 22,-119 70,6 117,-90 73,-149 -46,-62 -136,31 -207,20 -81,-12 -230,-58 -226,17 0,0 1,484 1,499 -1,60 100,62 153,96 z"></path>
        <path id="z_hvitveis" d="m -335,58 c -4,72 -2,139 63,145 56,5 117,-13 158,-47 C -76,127 -20,102 -9,52 3,-6 -86,-27 -133,-29 -217,-37 -330,-6 -335,58 Z"></path>
        <path id="z_fuglevikke" d="m -427,58 c -34,-29 -74,-63 -67,-114 5,-45 45,-84 91,-72 45,11 79,46 110,81 25,28 40,60 23,96 -13,26 -22,77 -59,70 -30,-5 -54,-30 -82,-45 -6,-3 -10,-11 -16,-16 z"></path>
        <path id="z_bed" d="m -494,601 91,-219 919,-6 170,225 z"></path>
        <path id="z_romskip" d="m 71,-91 c 59,-55 152,-38 192,24 32,50 24,141 -59,178 C 98,157 -29,2 71,-91 Z"></path>
        <path id="z_roedkloever" d="m 918,23 c -4,-37 -23,-55 -55,-71 -44,-21 -101,-20 -132,19 -28,35 -31,95 6,118 40,25 46,74 88,73 61,-1 101,-76 93,-139 z"></path>
        <path id="z_hen" d="m 311,-80 c -25,-13 -59,-34 -81,-9 -30,34 -24,88 -4,127 14,29 47,33 68,54 17,18 46,7 56,-14 17,-41 19,-92 -1,-132 -7,-13 -23,-18 -37,-25 z"></path>
        <path id="z_loevetann" d="m 411,9 c -61,6 -93,23 -140,33 -23,5 -58,18 -50,48 7,31 31,57 63,64 56,11 120,-4 159,-48 16,-18 25,-52 8,-72 C 440,22 426,7 411,9 Z"></path>
        <path id="z_meitemarkbaesj" d="m 314,215 c 0,-23 -44,-16 -54,-23 -30,-18 -51,-15 -72,6 -28,29 8,57 28,35 12,-13 20,9 46,9 15,0 51,-3 51,-28 z m -23,-47 c -21,13 -73,1 -52,-20 10,-10 73,7 52,20 z m 78,-19 c -5,37 -65,-4 -16,-17 8,-2 18,5 16,17 z m 401,0 c -42,-13 -33,-51 8,-34 9,3 43,-24 40,9 -1,20 -29,31 -49,24 z M 145,568 c 16,23 49,0 40,-18 -15,-31 -56,-3 -40,18 z"></path>
        <path id="z_froepose" d="m -299,587 -155,-37 120,-162 148,37 z m 759,-100 141,-38 60,136 -147,30 z m -288,-32 148,-68 104,141 -149,61 z"></path>
        
        <path id="z_rogn" d="m -777,625 c 90,-14 -33,-340 33,-290 99,73 27,-76 118,-103 108,-31 -25,-135 -64,-187 -36,-49 -174,-114 -203,-28 -25,77 1,210 14,291 14,90 -19,43 2,226 6,51 1,107 98,92 z"></path>
        <path id="z_blomst" d="m -773,31 c 13,-11 30,-8 45,-5 33,5 85,42 61,70 -13,15 -42,18 -64,9 -19,-8 -64,-55 -42,-73 z"></path>
        <path id="z_humle" d="m 175,-437 c -0,-11 9,-26 -6,-29 -20,6 -44,-20 -60,-14 -6,3 -6,13 -4,20 4,9 11,14 9,27 -0,6 4,13 9,17 8,6 14,11 24,5 10,-7 28,-12 26,-27 z M -731,46 c 1,-16 -13,-38 9,-42 30,9 63,-30 87,-21 10,5 10,20 6,30 -7,14 -17,21 -14,39 1,10 -6,19 -14,25 -12,10 -21,17 -35,8 -15,-11 -41,-18 -38,-39 z"></path>
        <path id="z_linerle" d="m -615,118 c 45,-59 83,4 47,31 -18,13 0,27 -1,37 -8,47 -71,-4 -99,5 -32,11 -43,9 -46,0 -1,-4 1,-13 9,-17 35,-18 65,-25 89,-55 z m 1223,-443 c -23,-5 -111,-83 -6,-65 38,6 90,-34 98,-1 14,56 -41,48 -22,75 16,25 -15,34 -44,29 -43,-7 -6,-34 -25,-38 z"></path>
        <path id="z_blaabaerblomster" d="m -720,519 c 27,24 8,62 42,70 45,11 132,14 128,-33 -2,-33 18,-60 37,-90 36,-56 32,-126 -33,-147 -32,-10 -86,-23 -113,-0 -57,48 -82,35 -101,64 -25,39 12,113 39,137 z"></path>
        <path id="z_katt" d="m -572,-137 c -43,8 -62,59 -55,100 6,36 29,65 57,88 20,16 42,30 68,38 21,6 -9,31 -7,49 2,28 -15,54 -13,82 1,25 20,50 5,75 -14,24 -1,52 20,68 29,22 51,57 90,66 34,8 62,-33 39,-59 -11,-13 -18,-57 8,-40 22,14 21,60 59,48 31,-10 39,-50 25,-76 -14,-28 33,-49 12,-74 -15,-17 -11,-45 -40,-49 -29,-4 -31,-36 -37,-60 -7,-26 -24,-49 -51,-58 -48,-17 -79,-62 -110,-101 -22,-29 -23,-72 -56,-92 -4,-2 -9,-4 -14,-3 z"></path>
        <path id="z_samir" d="m -93,114 c 3,-29 24,-27 37,-53 15,-32 -17,-78 12,-112 44,-49 129,-45 168,8 28,38 5,79 -3,119 -8,35 41,56 50,91 8,33 -2,66 11,98 11,27 9,71 -19,84 -43,18 -49,-46 -48,-77 1,-25 -22,-104 -42,-64 -17,35 54,71 38,108 -15,35 -65,30 -104,32 -37,1 -63,-0 -96,0 -34,1 -62,-22 -64,-56 -1,-38 2,-87 40,-105 20,-9 16,-55 19,-74 z"></path>
        <path id="z_jenny" d="M 482,125 C 419,99 383,20 416,-45 c 24,-48 53,-68 111,-73 47,-3 101,42 114,90 11,43 10,31 53,67 32,28 90,121 57,175 -16,28 -20,77 0,68 28,-12 56,-35 87,-12 34,25 20,62 19,100 -0,28 -25,78 -53,54 -39,-34 -56,12 -90,21 -38,9 -49,-21 -66,-47 -18,-28 -78,24 -110,-19 -22,-30 -19,-64 -19,-99 -0,-22 19,-45 -15,-40 -53,8 -61,-60 -35,-94 3,-4 20,-18 13,-21 z"></path>
        <path id="z_skilt" d="m 211,231 -1,194 31,5 v -97 l 130,7 V 230 Z m -466,332 -3,-292 c 0,0 54,16 83,17 39,1 117,-15 117,-15 l 1,148 c 0,0 -57,10 -86,11 -23,1 -70,-2 -70,-2 v 134 z"></path>
        <path id="z_pinner" d="m 925,441 c -6,0 -145,40 -214,52 -9,1 -22,-4 -33,-14 -5,-5 37,-11 34,-14 -2,-2 -43,4 -50,-2 -7,-7 -7,-17 0,-19 70,-18 261,-26 261,-26 z"></path>
        <path id="z_spade" d="m 34,429 c 49,-9 73,-33 104,-60 7,-6 -0,-19 2,-25 12,-20 31,-39 42,-60 4,-8 -13,-20 -20,-13 -13,13 -26,33 -47,52 -6,5 -18,-3 -22,4 -22,35 -49,60 -57,103 z"></path>
    </g>
    
    <g id="g_ord" opacity="0.5">
        <text class="ord" id="t_epletre" x="-300" y="-230" dy="20">epletre</text>
        <text class="ord" id="t_bjoerk" x="-786" y="-329" dy="20">bjørk</text>
        <text class="ord" id="t_blomster" x="205" y="-295" dy="20">blomster</text>
        <use xlink:href="#t_blomster" x="-700" y="-150"></use>
        
        <text class="ord" id="t_linerle" x="632" y="-442" dy="20">linerle</text>
        <use xlink:href="#t_linerle" x="-1250" y="670"></use>
        <text class="ord" id="t_roedkloever" x="724" y="-93" dy="20">rødkløver</text>
        <text class="ord" id="t_meitemarkbaesj" x="729" y="180" dy="20"><tspan x="729" y="180" dy="0">meite-</tspan><tspan x="729" y="180" dy="50">mark- </tspan><tspan x="729" y="180" dy="100">bæsj  </tspan></text>
        <text class="ord" id="t_pinner" x="763" y="494" dy="20">pinner</text>
        <text class="ord" id="t_froepose" x="166" y="479" dy="20">frøpose</text>
        <use xlink:href="#t_froepose" x="-600" y="0"></use>
        <use xlink:href="#t_froepose" x="500" y="50"></use>
        <text class="ord" id="t_spade" x="30" y="450" dy="20">spade</text>
        <text class="ord" id="t_bed" x="-29" y="517" dy="20">bed</text>
        <text class="ord" id="t_skilt" x="-163" y="431" dy="20">skilt</text>
        <text class="ord" id="t_hen" x="299" y="-122" dy="20">Hen</text>
        <text class="ord" id="t_loevetann" x="285" y="126" dy="20">løvetann</text>
        <text class="ord" id="t_romskip" x="90" y="-114" dy="20">romskip</text>
        <text class="ord" id="t_hvitveis" x="-216" y="77" dy="20">hvitveis</text>
        <text class="ord" id="t_samir" x="-5" y="169" dy="20">samir</text>
        <text class="ord" id="t_jenny" x="579" y="153" dy="20">Jenny</text>
        <text class="ord" id="t_blaabaerblomster" x="-650" y="550" dy="20">blåbærblomster</text>
        <text class="ord" id="t_humle" x="-680" y="-50" dy="20">humle</text>
        <use xlink:href="#t_humle" x="820" y="-470"></use>
        <text class="ord" id="t_katt" x="-426" y="148" dy="20">katt</text>
        <text class="ord" id="t_fuglevikke" x="-467" y="-89" dy="20">fuglevikke</text>
        <text class="ord" id="t_blomst" x="-770" y="111" dy="20">blomst</text>
        <text class="ord" id="t_rogn" x="-816" y="247" dy="20">rogn</text>
    </g>
    
    <g id="g_ord_clones">
           
    </g>
    
    <script type="text/javascript" xlink:href="https://lumbrikus.no/js/libs/snap.svg-min.js"></script>
    <script type="text/javascript" xlink:href="https://lumbrikus.no/js/let-og-finn.js"></script>
<!--    <script type="text/javascript" xlink:href="https://lumbrikus.no/js/add-svg-words.js"></script>-->
</svg>
