<?xml version="1.0" encoding="UTF-8"?>
<?xml-stylesheet type="text/css" href="https://lumbrikus.no/css/interactive-svg.css" ?>   
<svg
    id="SVG_let_og_finn"
    width="100%"
    height="100%"
    viewBox="-900 -600 1800 1200"
    preserveAspectRatio="xMidYMid meet"
    xmlns="http://www.w3.org/2000/svg"
    xmlns:xlink="http://www.w3.org/1999/xlink"
     version="2.0"
    
    >
    <title>Let og finn ord i bildet</title>
    <defs>
        <style type="text/css">
            <![CDATA[*/
            /*]]>*/
        </style>
    </defs>

    

    <image id="let_og_finn_bg" xlink:href="img/03-let-og-finn-bg.jpg" x="-900" y="-650" width="1800" height="1305"></image>
    
    <g id="g_active_zones" class="active_zones">
        <path id="z_jord1" d="m -889,-204 c -20,-26 340,14 523,-25 150,-32 302,12 458,4 258,-13 518,15 777,15 65,-0 49,118 50,193 1,96 -143,31 -216,33 C 567,22 432,-11 296,-17 171,-23 48,-2 -76,-3 -209,-4 -342,-0 -473,-13 c -128,-12 -296,-17 -394,-19 -60,-1 -19,-167 -22,-170 z"></path>
        <path id="z_jord2" d="m -883,8 c 2,92 16,280 -1,425 -11,91 27,126 105,112 87,-14 175,-11 264,-7 115,5 229,-21 341,-56 125,-39 256,29 387,13 129,-16 260,10 391,6 94,-2 184,52 264,-11 61,-49 11,-141 14,-207 C 890,194 938,26 845,13 581,-22 360,-0 95,-1 -175,-1 -438,32 -706,-8 -773,-18 -884,-24 -883,8 Z"></path>
        <path id="z_jord3" d="m 883,634 c 29,-119 -13,-129 -89,-123 -93,7 -187,10 -281,-0 -149,-17 -301,-9 -452,-20 -145,-10 -284,5 -425,16 -177,13 -325,-11 -477,3 -109,11 -42,138 19,137 147,-3 315,1 463,-4 153,-5 304,10 458,7 245,-5 459,22 704,-2 37,-3 73,17 80,-13 z"></path>
        <path id="z_roedkloever" d="m -756,-77 c 33,-6 38,-52 44,-82 5,-29 8,-58 20,-85 12,-26 34,-56 18,-86 -14,-28 10,-54 17,-81 8,-29 2,-57 -13,-85 -21,-36 -28,-86 -69,-105 -29,-13 -69,-14 -91,13 -16,20 -32,44 -42,68 -11,28 -6,59 3,89 8,27 -14,61 9,86 18,18 35,37 39,65 6,46 5,93 12,140 3,27 18,69 46,64 1,-0 2,-0 4,-0 z"></path>
        <path id="z_gress" d="m 652,-468 c -2,-12 -2,-28 7,-37 7,-7 15,0 22,3 6,4 15,2 16,-5 3,-18 6,-37 10,-56 2,-14 6,-31 19,-39 6,-5 16,-5 22,-0 15,11 23,29 25,48 2,11 3,24 0,36 -4,20 -13,39 -24,57 -6,10 -19,17 -32,15 -14,8 -28,20 -46,18 -14,0 -25,-14 -23,-27 -1,-3 1,-8 -0,-11 z M -93,-638 c -24,25 -24,89 13,95 45,7 53,-62 29,-92 -9,-12 -30,-17 -43,-3 z m 213,57 c -34,19 -35,72 -31,113 3,28 25,57 56,43 41,-19 47,-70 28,-105 -11,-21 -31,-64 -54,-51 z m -522,144 c 2,-38 -25,-69 -33,-107 -6,-34 -0,-74 33,-90 36,-17 29,83 59,45 20,-26 71,-44 62,3 -7,37 -39,68 -51,105 -13,42 1,88 -3,132 -5,49 -69,51 -76,3 -4,-32 8,-60 10,-91 z"></path>
        <path id="z_snegle" d="m -114,-314 c -25,-29 0,-74 32,-94 41,-25 96,-45 140,-15 27,19 22,66 51,78 31,13 46,-36 58,-64 13,-31 23,-87 62,-86 34,1 -29,76 17,73 46,-3 -16,43 -1,56 30,25 -6,52 -31,72 -60,48 -74,85 -155,95 -69,12 -162,17 -189,-56 -13,-50 44,-23 15,-59 z"></path>
        <path id="z_sneglehus" d="m -89,-288 c -8,-17 -17,-34 -23,-52 -7,-22 0,-48 20,-62 33,-23 72,-47 115,-40 25,4 48,19 62,39 16,23 23,51 35,77 9,20 -26,30 -42,36 -23,9 -47,21 -72,21 -22,0 -44,1 -66,2 -12,1 -22,-9 -28,-22 z"></path>
        <path id="z_ert1" d="m -715,1 c -47,32 -68,95 -55,152 11,47 44,89 93,99 55,11 123,-9 137,-68 10,-45 11,-95 -6,-137 -25,-61 -116,-83 -170,-45 z"></path>
        <path id="z_ert2" d="M -368,-36 C -425,-20 -456,39 -450,95 c 4,45 20,93 63,116 62,34 141,-8 163,-71 15,-43 27,-101 -9,-138 -30,-29 -72,-49 -114,-48 -7,0 -13,6 -21,8 z"></path>
        <path id="z_ert3" d="M 6,-174 C -42,-120 -37,-20 24,24 69,57 137,43 178,9 216,-22 238,-75 221,-125 202,-177 158,-228 97,-225 c -41,2 -67,24 -91,50 z"></path>
        <path id="z_rot1" d="m -796,-125 c 6,59 80,47 85,-13 4,-48 3,-93 -45,-105 -7,-1 -16,-0 -18,1 -25,31 -25,78 -21,118 z"></path>
        <path id="z_rot2" d="m -256,162 c -20,-43 30,-128 69,-75 26,36 23,87 2,127 -21,40 -33,87 -21,132 8,32 -11,88 -45,48 -39,-47 -46,-121 -21,-180 6,-15 23,-36 15,-53 z"></path>
        <path id="z_rot3" d="m 166,12 c -21,-40 1,-100 52,-96 52,3 47,71 55,110 7,40 15,85 -7,123 -22,37 -46,72 -68,109 -26,45 -81,-5 -88,-46 C 100,160 109,108 142,67 153,54 176,31 166,12 Z"></path>
        <path id="z_froe" d="m 236,254 c -4,-28 13,-55 39,-61 24,-5 51,0 71,16 12,9 25,18 42,19 26,1 53,1 80,1 28,-0 62,4 74,32 11,26 3,60 -19,79 -25,22 -61,34 -95,27 -20,-4 -39,-13 -55,-27 -12,-10 -27,-20 -45,-18 -24,3 -54,3 -73,-16 -12,-14 -16,-33 -19,-52 z"></path>
        <path id="z_plakat" d="m -337,-134 c 1,-93 -2,-409 -2,-409 63,19 131,13 205,4 l -6,149 c -55,-17 -98,25 -167,1 0,0 0,177 0,253 -0,30 -29,27 -29,0 z"></path>
        <path id="z_gulroetter" d="m 427,-383 c 20,-123 175,-100 269,-93 91,6 255,-12 261,110 5,98 -17,206 -70,289 C 824,24 689,-70 590,-46 477,-19 463,-138 448,-219 437,-273 418,-329 427,-383 Z"></path>
        <path id="z_vann" d="m 498,64 c 0,0 -46,88 -32,124 17,46 62,31 69,-0 C 544,150 498,64 498,64 Z M 158,302 c 0,0 -62,117 -43,165 23,61 84,41 93,-0 11,-50 -49,-165 -49,-165 z M -21,289 c 0,0 -46,81 -32,114 17,42 62,28 69,-0 8,-34 -36,-113 -36,-113 z M 643,17 c 0,0 -87,165 -61,233 33,86 118,58 131,-1 C 729,178 643,17 643,17 Z"></path>
        <path id="z_regndraape" d="m 817,-681 c 0,0 -61,117 -43,165 23,61 83,41 92,-0 11,-50 -49,-164 -49,-164 z m -562,17 c 0,0 -61,117 -43,165 23,61 83,41 92,-0 11,-50 -49,-164 -49,-164 z m -719,161 c 0,0 -61,117 -43,165 23,61 83,41 92,-0 11,-50 -49,-164 -49,-164 z"></path>
        <path id="z_stein" d="m -89,272 c -26,-11 -59,-23 -86,-2 -34,24 -53,80 -17,110 21,17 56,21 81,9 34,-16 53,-65 37,-99 -3,-6 -7,-14 -14,-17 z m 66,-121 c -21,-15 -34,-27 -65,-13 -34,15 -52,-43 -20,-52 22,-6 40,-3 54,-29 19,-36 78,-48 111,-17 27,26 23,81 -12,97 -18,8 -45,30 -67,15 z"></path>
        <path id="z_meitemark" d="m 921,206 c -33,18 -53,55 -81,82 -46,46 -91,94 -138,140 -40,40 -90,82 -150,71 -42,-7 -67,-43 -101,-65 -32,-21 -93,-51 -105,-29 -9,16 15,54 30,83 20,41 60,67 100,88 46,24 101,38 154,23 35,-10 69,-26 97,-49 33,-26 62,-59 87,-93 27,-37 56,-73 81,-112 20,-31 58,-60 52,-101 -2,-15 -11,-47 -26,-39 z"></path>
        <path id="z_romskip" d="m -912,645 c -93,-119 -45,-359 83,-439 175,-109 406,10 430,187 43,327 -346,466 -513,252 z"></path>
        <path id="z_jenny" d="m -788,240 c 32,-1 53,13 60,44 5,23 2,49 -14,65 -21,20 2,14 4,58 1,29 -16,52 -47,53 -32,1 -66,-15 -78,-33 -3,-5 -13,-11 -11,-66 0,-24 16,-23 18,-39 7,-59 35,-80 68,-82 z"></path>
        <path id="z_samir" d="m -742,374 c 17,-29 58,-37 92,-18 12,6 30,44 37,11 5,-26 21,-59 48,-68 25,-7 20,29 17,45 -5,43 -20,86 -42,125 -13,25 -39,41 -67,48 -29,6 -65,14 -90,-4 -26,-19 -33,-60 -12,-89 11,-16 4,-32 14,-50 z"></path>
        <path id="z_katt" d="m -593,444 c 29,-17 67,-36 99,-17 20,12 36,30 60,31 19,1 17,30 19,28 12,-16 50,-18 56,3 5,22 -20,38 -36,50 -17,13 -42,14 -58,29 -22,21 -50,22 -76,19 -25,-3 -51,5 -76,-5 -21,-9 -45,-38 -28,-55 25,-25 13,-70 40,-85 z"></path>
        <path id="z_hen" d="m -865,615 c -12,-34 9,-63 0,-98 -7,-30 36,0 55,-25 24,-31 81,-19 111,6 15,13 5,65 21,55 21,-13 41,-31 52,-8 10,21 -6,42 -14,61 -10,24 -23,51 -47,63 -34,17 -76,12 -113,1 -28,-7 -55,-25 -66,-56 z"></path>
        <path id="z_stengel" d="m 195,-193 c -1,25 -16,46 -20,70 -4,22 4,51 29,58 30,7 53,-22 54,-49 1,-30 11,-56 30,-80 20,-25 4,-58 -4,-86 -6,-18 -16,-35 -29,-50 -16,-18 -35,1 -47,13 -22,21 -19,55 -18,83 0,13 6,27 5,41 z"></path>
    </g>
    
    <g id="g_ord">
        <text class="ord" id="t_jord1" x="-175" y="-119" dy="20">jord</text>
        <text class="ord" id="t_jord2" x="-10" y="254" dy="20">jord</text>
        <text class="ord" id="t_jord3" x="-221" y="549" dy="20">jord</text>
        <text class="ord" id="t_roedkloever" x="-776" y="-425" dy="20">rødkløver</text>
        <text class="ord" id="t_gress" x="-442" y="-552" dy="20">gress</text>
        <text class="ord" id="t_snegle" x="-16" y="-320" dy="20">snegle</text>
        <text class="ord" id="t_ert1" x="-665" y="109" dy="20">ert</text>
        <text class="ord" id="t_ert2" x="-329" y="74" dy="20">ert</text>
        <text class="ord" id="t_ert3" x="82" y="-86" dy="20">ert</text>
        <text class="ord" id="t_rot1" x="-755" y="-150" dy="20">rot</text>
        <text class="ord" id="t_rot2" x="-231" y="230" dy="20">rot</text>
        <text class="ord" id="t_rot3" x="188" y="92" dy="20">rot</text>
        <text class="ord" id="t_froe" x="375" y="226" dy="20">frø</text>
        <text class="ord" id="t_plakat" x="-218" y="-537" dy="20">plakat</text>
        <text class="ord" id="t_sneglehus" x="-23" y="-403" dy="20">sneglehus</text>
        <text class="ord" id="t_gulroetter" x="653" y="-222" dy="20">gulrøtter</text>
        <text class="ord" id="t_vann" x="643" y="176" dy="20">vann</text>
        <use xlink:href="#t_vann" x="-480" y="330"></use>
        <use xlink:href="#t_vann" x="-660" y="260"></use>
        <text class="ord" id="t_regndraape" x="-500" y="-300" dy="20">regndråpe</text>
        <text class="ord" id="t_stein" x="-67" y="107" dy="20">stein</text>
        <text class="ord" id="t_meitemark" x="574" y="468" dy="20">meitemark</text>
        <text class="ord" id="t_jenny" x="-803" y="302" dy="20">Jenny</text>
       	<text class="ord" id="t_samir" x="-686" y="425" dy="20">Samir</text>
       	<text class="ord" id="t_katt" x="-520" y="498" dy="20">Katt</text>
       	<text class="ord" id="t_hen" x="-775" y="545" dy="20">Hen</text>
       	<text class="ord" id="t_romskip" x="-638" y="244" dy="20">romskip</text>
        <text class="ord" id="t_stengel" x="219" y="-176" dy="20">stengel</text>
    </g>
    
    <script type="text/javascript" xlink:href="https://lumbrikus.no/js/libs/snap.svg-min.js"></script>
    <script type="text/javascript" xlink:href="https://lumbrikus.no/js/let-og-finn.js"></script>
    <!--<script type="text/javascript" xlink:href="https://lumbrikus.no/js/add-svg-words.js"></script>-->
</svg>
