<?xml version="1.0" encoding="UTF-8" standalone="no"?>
<svg
   xmlns="http://www.w3.org/2000/svg"
   xmlns:xlink="http://www.w3.org/1999/xlink"
   id="blomst_innmat_svg"
   version="1.1"
   viewBox="-250 -250 500 500">
  
  <title>Blomst innmat</title>
   <desc xml:lang="no">
      Innmat i en blomst, bearbeidet av Eirik Hanssen. Modifisert figur av Mariana Ruiz (LadyofHats). Kilde: https://commons.wikimedia.org/wiki/User:LadyofHats/gallery2#/media/File:Mature_flower_diagram.svg
      Opphavsrett: denne figuren slippes i det fri.
   </desc>
   <desc xml:lang="en">Flower internals, reworked by Eirik Hanssen. Modified/traced illustration by Mariana Ruiz (LadyofHats). Source: https://commons.wikimedia.org/wiki/User:LadyofHats/gallery2#/media/File:Mature_flower_diagram.svg
   Copyright: this illustration is released into the public domain.
   </desc>
  <style
     type="text/css"
     id="style29">
     /* <![CDATA[ */
     
        #def_bg {
        fill: #d8ffc9;
        }
        
        .strek, .bare_strek,
        [class="pollenknapp"],
        [class="pollenknapp_tverrsnitt"]{
         stroke-width: 1px;
         stroke-linecap: round;
         stroke: #000000;
         stroke-linejoin: miter;
         stroke-opacity: 1;
        }
        .bare_strek {fill:none;}
        
        .blomsterbunn {}
        
        .ord {
        font-family:sans-serif;
        font-size:16px;
        text-align:center;
        fill:#000000;
        fill-opacity:1;
        text-anchor:middle;
        font-style:normal;
        font-variant:normal;
        font-weight:normal;
        paint-order: stroke fill;
        }
        
        .ord:hover,
        .ord:focus {
        
        }
        
        .ord.gruppe {font-weight: bold;}
        
        [id^="forklaringslinje"] {
        fill:none;
        stroke:#000000;
        stroke-width:1;
        stroke-linecap:round;
        stroke-linejoin:miter;
        stroke-miterlimit:4;
        stroke-dasharray:5, 5;
        stroke-dashoffset:2.5;
        
        }
        
        .plante_base {
            fill: #01a33e;
        }
        .fruktknute_vegg {
            fill:#2dc763;
        }
        .fruktknute_hulrom {
            fill:#07772d;
        }
        
        .kronblad {
        fill:#f3ca20;
        }
        .kronblad.underside,
        .pollenknapp_tverrsnitt,
        .pollenknapp_hoyre_inni {
        fill:#ef9c22;
        }
        
        .pollenknapp {
            fill:#feff02;
        }
        
        .pollenknapp_tverrsnitt_inni {fill:url(#linearGradientPollenknappIndre);fill-opacity:1;}
        
        .tykk_pil {
        fill:none;
        fill-opacity:1;
        stroke:#000000;
        stroke-width:3;
        stroke-linecap: butt;
        marker-end:url(#markerStoreForklaringspiler);}
        
        
        .sirkel_til_pil {
        fill:none;
            stroke:#000000;
            stroke-width:4;
        }
        
        #blomsterbunn {
            fill:none;
            stroke:#ffff00;
            stroke: white;
            stroke-width:2;
            stroke-linecap:round;
            stroke-dasharray:1, 8;
            stroke-dashoffset:0;
        }
        
        #def_pollenkorn {
               fill:url(#radialGradientPollenkorn);
               fill-opacity:1;
               stroke:#800000;
               stroke-width:0.5;
        }
        
        
       
        /* ]]> */
    </style>
  <defs
     id="defs4621">
    <rect id="def_bg" x="-5000" y="-5000" width="10000" height="10000"></rect>
    <marker
       style="overflow:visible"
       id="markerStoreForklaringspiler"
       refX="0.0"
       refY="0.0"
       orient="auto">
      <path
         transform="scale(0.4)"
         style="fill-rule:evenodd;stroke:#000000;stroke-width:1pt;stroke-opacity:1;fill:#000000;fill-opacity:1"
         d="M 5.77,0.0 L -2.88,5.0 L -2.88,-5.0 L 5.77,0.0 z "
         id="path1760" />
    </marker>
    <linearGradient
       id="linearGradientPollenknappIndreDef">
      <stop
         style="stop-color:#b3470e;stop-opacity:1"
         offset="0"
         id="stop968" />
      <stop
         style="stop-color:#ee8b1d;stop-opacity:1"
         offset="1"
         id="stop970" />
    </linearGradient>
    <linearGradient
       id="linearGradient145">
      <stop
         style="stop-color:#f2d91a;stop-opacity:1"
         offset="0"
         id="stop141" />
      <stop
         style="stop-color:#d75b13;stop-opacity:1"
         offset="1"
         id="stop143" />
    </linearGradient>
    <linearGradient
       xlink:href="#linearGradientPollenknappIndreDef"
       id="linearGradientPollenknappIndre"
       x1="115.1"
       y1="93.066"
       x2="134.22"
       y2="115.43"
       gradientUnits="userSpaceOnUse"
       gradientTransform="translate(-23.63,40.242)" />
    
    <radialGradient
       r="6"
       fy="0"
       fx="0"
       cy="0"
       cx="0"
       gradientUnits="userSpaceOnUse"
       id="radialGradientPollenkorn"
       xlink:href="#linearGradient145" />
   
    <circle
       id="def_pollenkorn"
       cx="0"
       cy="0"
       r="5.7768" />
    <use
       height="100%"
       width="100%"
       transform="scale(0.2)"
       id="def_pollenkorn_lite"
       xlink:href="#def_pollenkorn"
       y="0"
       x="0" />
    <g
       id="def_klamme"
       transform="rotate(240)">
      <path
         class="bare_strek"
         
         d="m 14.936,-56.263 -14.74973,6 V 0 49.06 l 14.74973,6"
         id="path4088" />
      <path
         class="bare_strek"
         
         d="M 0.18627,0 H -6.8737"
         id="path4090" />
    </g>
  </defs>
  <g
     id="bakgrunn">
    <use xlink:href="#def_bg" x="0" y="0"/>
  </g>
   
  
  <g
     id="g_fig_blomst_oversikt">
    <path
       class="kronblad underside strek"
       id="kronblad_underside"
       d="m 233.81,-92.54 c 0,0.66 2.46,18.897 2.46,18.897 1.79,5.372 -2.39,10.556 -9.53,-1.476 -7.12,-12.041 -15.39,-4.371 -20.69,-12.811 -5.3,-8.45 -4.44,-25.14 -4.44,-25.14 L 60.976,-180.05 45.407,-184 c 0,0 -41.193,48.39 -64.621,38.52 -23.43,-9.89 -27.27,3.46 -37.82,5.16 -5.426,0.88 -10.376,-1.96 -16.496,2.28 -10.61,7.34 -9.99,3.76 -9.99,3.76 l 17.19,-28.58 61.5601,-62.02 21.8419,-3.26 151.238,45.31 13.47,13.01 z"
       />
    <path
       class="kronblad overside strek"
       id="kronblad_overside"
       d="m 242.18,-68.713 c 3,-0.34 -4.9,-10.457 -5.96,-21.337 -1.12,-11.52 0.3,-22.15 -1.6,-29.59 -1.99,-7.84 -4.41,-14.55 -11.63,-26.01 -8.68,-13.78 -21.99,-29.87 -35.33,-30.18 -30.51,-0.69 -77.82,52.24 -92.001,67.36 42.641,-49.82 75.191,-65.6 80.161,-68.33 4.97,-2.74 9.14,-6.59 1.57,-12.36 -7.58,-5.77 -19.49,-20.65 -48.81,-14.7 -29.305,5.95 -46.943,-9.26 -66.2,-17.56 -19.257,-8.29 -39.635,-20.74 -54.774,-5.33 32.263,8.31 45.166,47.69 45.647,75.05 0.389,22.11 2.85,25.5 2.314,32.72 -3.987,-17.21 -7.399,-68.94 -22.516,-85.99 -15.116,-17.05 -25.445,-21.78 -44.858,-19 -19.417,2.8 -28.117,12.88 -34.707,31.34 -2.5,7.02 -16.786,12.82 -24.836,20.31 -13.14,12.19 -19.13,25.36 -13.36,36.91 1.95,3.9 13.4,-13.24 27.186,-19.59 7.68,-3.53 24.95,3.46 31.4,6.36 18.6571,8.37 35.773,32.08 41.46,58.57 5.687,26.491 13.891,55.035 27.7,57.2 l 16.594,2.602 c 32.192,5.046 56.06,-46.868 85.07,-60.052 29.01,-13.19 53.47,-16.81 69.97,-12.37 16.5,4.45 14.26,39.221 27.51,33.977 z"
       />
    <path
       class="plante_base strek"
       id="arr_griff_blomsterstilk_begerblad"
       d="M 39.107,58.497 C 31.135,59.987 28.447,54.001 22.711,47.542 16.973,41.083 11.098,34.249 16.949,24.327 20.002,19.149 23.518,11.623 25.996,-0.82685 27.21,-6.9283 35.511,-6.3873 35.862,-11.879 36.366,-19.74 25.669,-25.42 18.846,-39.966 11.163,-56.34 12.862,-63.917 10.871,-74.914 8.445,-88.31 2.674,-96.65 2.674,-96.65 c 0,0 8,7.38 13.121,19.914 3.254,7.966 3.169,17.233 6.179,25.237 4.662,12.397 12.201,21.765 15.859,18.589 3.628,-3.15 -1.882,-4.24 -0.354,-8.774 0.964,-2.866 4.377,-0.255 4.706,-2.885 0.435,-3.495 -2.173,-2.499 -8.015,-11.557 -5.103,-7.915 -9.157,-21.885 -10.334,-44.194 -2.261,-42.82 12.584,-65.62 14.162,-68.35 1.576,-2.74 5.857,-2.61 3.441,1.72 -2.416,4.32 -6.881,11.67 -8.465,17.11 -7.55,25.93 -8.902,55.194 1.379,81.13 2.11,5.321 6.278,9.397 10.848,12.696 -5.273,-8.828 -5.436,-12.161 -6.592,-19.947 -1.164,-7.859 2.259,-17.965 6.253,-25.529 6.181,-11.69 16.133,-22.43 22.832,-33.68 10.975,-18.44 17.811,-37.01 17.443,-42.29 -0.29,-4.15 -9.224,-15.8 0.335,-20.38 2.009,-0.96 4.592,4.41 7.177,4.92 4.013,0.8 4.605,-3.47 9.241,-0.32 1.02,0.7 4.12,4.68 -1.07,12.56 -5.157,7.84 -14.73,22.86 -14.46,40.09 0.287,18.39 7.592,48.55 4.807,63.583 -3.608,19.475 -16.901,24.788 -16.088,26.117 1.652,2.697 19.446,-6.773 28.181,-26.4 3.24,-7.29 7.77,-14.45 8.94,-23.26 2.53,-18.98 1.1,-39.77 4.81,-47.26 1.62,-3.29 6.36,-8.2 3.94,-0.13 -1.07,3.6 -5.21,16.38 -4.74,24.97 0.76,14.04 -2.32,37.98 -9.96,51.529 -21.436,37.992 -38.611,26.131 -38.197,32.986 0.232,1.871 1.811,0.929 1.77,4.593 -0.04,3.686 -5.85,2.634 -5.711,6.907 0.06,1.883 11.839,4.723 26.21,-6.446 10.308,-8.011 21.978,-22.59 27.578,-25.187 11.99,-5.556 16.52,-5.914 16.52,-5.914 0,0 -8.49,4.111 -17.24,12.999 -5.98,6.081 -10.5,16.059 -18.729,21.904 -7.041,4.999 -18.47,7.206 -25.398,10.58 -5.036,2.452 -5.912,6.451 -9.672,8.059 -5.227,2.2327 -8.726,3.6557 -9.128,4.2837 -2.23,3.4904 1.336,4.8794 0.179,15.9424 C 53.048,22.531 43.323,39 40.333,48.112 c -3.029,9.232 1.2,9.881 -1.226,10.334 z"
        />
     <path
        class="bare_strek"
        d="m 86.708,-188.13 c 1.75,-0.12 3.209,-3.58 6.921,-3.36 4.265,0.26 4.884,3.52 7.011,4.24"
        id="arr_liten_strek" />
    <g
       id="g_pollenknapp_venstre">
      <path
         class="pollenknapp"
         
         d="m 34.949,-173.35 c 2.299,4.52 4.908,1.46 6.854,2.46 1.928,0.99 1.183,3.68 4.04,3.42 6.437,-0.59 14.874,-22.61 8.859,-26.19 -6.016,-3.6 -24.354,11.24 -19.753,20.31 z"
         id="pollenknapp_venstre_rundt" />
      <path
         class="pollenknapp"
         d="m 41.812,-171.45 c 3.071,1.45 8.021,-4.58 9.994,-8.25 1.973,-3.67 3.612,-10.4 1.275,-11.97 -2.336,-1.57 -9.18,4.3 -11.153,8.14 -1.973,3.84 -3.186,10.64 -0.116,12.08 z"
         id="path8305" />
    </g>
    <path
       class="fruktknute_vegg"
       id="fruktknute_liten_m_blomsterbunn"
       d="m 80.216,-134.19 c 9.231,1.96 13.777,56.771 -0.601,73.526 -2.248,2.621 -4.982,5.339 -7.036,7.067 -1.665,1.401 -2.377,2.305 -2.093,4.152 0.203,1.315 2.502,2.001 5.142,1.699 2.869,-0.329 6.096,-1.68 6.324,-0.841 0.396,1.456 -4.016,3.352 -8.484,4.64 -4.387,1.265 -8.829,1.915 -8.828,3.783 0,3.767 1.028,1.653 1.996,4.851 0.969,3.197 -6.443,3.522 -4.589,9.86 1.854,6.336 24.579,-2.295 24.065,-2.012 0,0 0.295,0.468 -1.114,0.931 -5.42,1.784 -17.984,7.55 -24.457,12.72 -5.717,4.5647 -12.207,4.0937 -11.581,6.2537 1.689,5.8254 3.53,14.1314 1.262,20.6423 -3.361,9.646 -6.752,25.609 -20.475,22.802 -13.722,-2.807 -8.4,-16.743 -4.953,-25.305 5.813,-14.4341 14.713,-13.3689 15.853,-22.191 1.14,-8.823 -16.533,-17.689 -15.204,-23.116 0.664,-2.711 3.966,1.859 7.52,3.286 1.666,0.67 4.444,1.779 6.32,0.582 5.431,-3.464 2.604,-4.635 3.771,-7.384 1.167,-2.75 4.201,-4.042 0.949,-8.114 -6.522,-8.166 -6.983,-10.689 -6.439,-11.046 0.707,-0.465 4.233,2.706 7.277,4.562 2.96,1.804 5.469,2.322 4.196,0.103 l -1.834,-3.207 c -1.177,-2.056 -4.019,-5.805 -5.217,-9.734 -5.223,-17.16 3.374,-33.36 7.533,-40.45 4.155,-7.08 21.457,-30.03 30.697,-28.06 z"
        />
    <path
       id="blomsterbunn"
       d="M 57.31,-52.95 43.23,-6.37">
    </path>
    <g
       id="g_pollenknapp_hoyre">
      <path
         class="pollenknapp"
         d="m 112.98,-150.82 c 3.27,3.66 4.95,0.16 7,0.6 2.06,0.45 2.03,3.15 4.63,2.2 5.86,-2.15 8.27,-24.79 1.76,-26.65 -6.51,-1.85 -19.93,16.54 -13.39,23.85 z"
         id="pollenknapp_hoyre_rundt" />
      <path
         class="pollenknapp_hoyre_inni strek"
         d="m 120.71,-151.43 c 2.85,0.54 6.21,-4.24 6.82,-9.6 0.6,-5.37 -0.14,-11.06 -2.39,-11.67 -2.26,-0.6 -6.69,6.16 -7.72,11.09 -1.03,4.93 0.43,9.64 3.29,10.18 z"
         id="pollenknapp_hoyre_inni" />
      <g
         id="g_smaa_pollenkorn">
        <use
           id="use8808"
           x="125.5"
           y="-165"
           xlink:href="#def_pollenkorn_lite"
           width="100%"
           height="100%" />
        <use
           id="use8810"
           x="125"
           y="-171"
           xlink:href="#def_pollenkorn_lite"
           width="100%"
           height="100%" />
        <use
           id="use8812"
           x="122"
           y="-164"
           xlink:href="#def_pollenkorn_lite"
           width="100%"
           height="100%" />
        <use
           id="use8814"
           x="119"
           y="-160"
           xlink:href="#def_pollenkorn_lite"
           width="100%"
           height="100%" />
        <use
           id="use8816"
           x="122"
           y="-158"
           xlink:href="#def_pollenkorn_lite"
           width="100%"
           height="100%" />
        <use
           id="use8818"
           x="120"
           y="-154"
           xlink:href="#def_pollenkorn_lite"
           width="100%"
           height="100%" />
        <use
           id="use8820"
           x="123"
           y="-155"
           xlink:href="#def_pollenkorn_lite"
           width="100%"
           height="100%" />
        <use
           id="use8822"
           x="123"
           y="-167"
           xlink:href="#def_pollenkorn_lite"
           width="100%"
           height="100%" />
        <use
           id="use8824"
           x="124"
           y="-160"
           xlink:href="#def_pollenkorn_lite"
           width="100%"
           height="100%" />
      </g>
    </g>
    <path
       class="fruktknute_hulrom"
       d="m 60.327,-75.303 c -0.491,12.029 -4.733,17.988 -12.024,13.037 0,0 -9.028,-14.2 -1.054,-32.12 7.977,-17.924 22.085,-31.074 22.085,-31.074 3.403,-3.35 7.785,-6.24 7.519,-0.77 -0.273,5.51 -4.191,14.79 -4.191,14.79 -3.936,-4.25 -6.892,-1.6 -7.957,1.24 -1.064,2.8 1.093,6.26 4.917,5.53 -0.628,2.76 -1.191,5.91 -2.837,8.46 0,0 0.09,-4.03 -4.33,-3.59 -4.423,0.46 -6.105,6.23 -2.664,8.41 3.41,2.15 5.527,-0.79 5.527,-0.79 -1.3,2.96 -2.286,7.5 -2.674,10.9 -1.166,-2.71 -2.593,-4.48 -5.188,-2.18 -2.509,2.63 -3.545,4.972 -2.281,6.955 1.478,2.29 3.115,2.481 5.152,1.202 z m 16.577,-38.577 c -0.683,-3.8 1.46,-12.31 4.31,-14.2 1.034,-0.7 1.853,1.59 2.004,2.94 1.696,14.89 5.498,32.77 1.041,47.141 -2.63,8.481 -9.206,20.026 -17.406,21.177 -2.947,0.416 -5.354,-2.73 -5.259,-5.194 0.209,-5.56 2.681,-11.857 4.807,-16.446 -0.453,-1.558 1.922,6.201 6.333,2.558 3.863,-3.186 1.361,-8.336 -1.203,-8.846 -2.356,-0.56 -3.623,-0.68 -2.842,-3.91 0.499,-2.01 2.653,-4.9 2.653,-4.9 0,0 0.422,3.03 2.158,3.39 2.81,0 4.999,-4.066 4.915,-6.89 -0.09,-3.06 -3.745,-5.63 -5.953,-5 l 2.329,-7.83 c 1.081,0.67 1.78,4.18 3.68,4.4 2.037,0.23 3.295,-2.25 3.185,-3.93 -0.138,-2.15 -2.381,-7.63 -4.756,-4.46 z"
       
       id="fruktknute_liten_hulrom" />
  </g>
  <g
     id="g_forstorringspil_pollenknapp">
    <circle
       class="sirkel_til_pil"
       r="18.03"
       cy="-160.83"
       cx="122.87"
       id="sirkel_til_pil_pollenknapp" />
    <path
       class="tykk_pil"
       id="pil_pollenknapp"
       d="M 132.08,-143.15 C 157,-73.064 258.86,17.974 177.8,94.076"
        />
  </g>
  <g
     id="g_forstorringspil_fruktknute">
    <circle
       class="sirkel_til_pil"
       id="sirkel_til_pil_fruktknute"
       cx="64.888"
       cy="-75.977"
       r="19.303" />
    <path
       class="tykk_pil"
       id="pil_fruktknute"
       d="M 50.199,-61.688 C 14.469,-46.117 -63.55,55.871 -115.56,83.645" />
  </g>
  <text
     tabindex="0"
     class="ord"
     xml:space="preserve"
     x="-129.4"
     y="-160.58"
     id="tekst_arr"><tspan
       id="tspan3898"
       x="-129.4"
       y="-160.58">arr</tspan></text>
  <text
     tabindex="0"
     class="ord"
     xml:space="preserve"
     x="-117.72"
     y="-139.58"
     id="tekst_griffel"><tspan
       id="tspan3902"
       x="-117.72"
       y="-139.58">griffel</tspan></text>
  <text
     class="ord"
     xml:space="preserve"
     x="-97.529"
     y="-115.47"
     id="tekst_fruktknute"><tspan
       id="tspan3906"
       x="-97.529"
       y="-115.47">fruktknute</tspan></text>
  <text
     class="ord gruppe"
     xml:space="preserve"
     x="-200.27"
     y="-136.13"
     id="tekst_fruktemne_fet"><tspan
       id="tspan3910"
       x="-200.27"
       y="-136.13">fruktemne</tspan></text>
  <text
     class="ord"
     xml:space="preserve"
     x="-125.35"
     y="27.931"
     id="tekst_froemner"><tspan
       id="tspan3914"
       x="-125.35"
       y="27.931">frøemner</tspan></text>
  <text
     class="ord gruppe"
     xml:space="preserve"
     x="-130.4"
     y="229.86"
     id="tekst_fruktknute_fet"><tspan
       id="tspan3918"
       x="-130.4"
       y="229.86">fruktknute</tspan></text>
  <text
     class="ord"
     xml:space="preserve"
     x="115.28"
     y="14.682"
     id="tekst_blomsterbunn"><tspan
       id="tspan3922"
       x="115.28"
       y="14.682">blomsterbunn</tspan></text>
  <text
     class="ord"
     xml:space="preserve"
     x="3.2121"
     y="77.007"
     id="tekst_blomsterstilk"><tspan
       id="tspan3926"
       x="3.2121"
       y="77.007">blomsterstilk</tspan></text>
  <text
     class="ord"
     xml:space="preserve"
     x="148.54"
     y="74.759"
     id="tekst_pollenkorn_stor"><tspan
       id="tspan3934"
       x="148.54"
       y="74.759">pollenkorn</tspan></text>
  <text
     class="ord gruppe"
     xml:space="preserve"
     x="190.5"
     y="191.21"
     id="tekst_pollenknapp_fet"><tspan
       id="tspan3938"
       x="190.5"
       y="191.21">pollenknapp</tspan></text>
  <text
     class="ord"
     xml:space="preserve"
     x="34.586"
     y="239.15"
     id="tekst_pollenbaerer"><tspan
       id="tspan3942"
       x="34.586"
       y="239.15">pollenbærer</tspan></text>
  <text
     class="ord"
     xml:space="preserve"
     x="-66.533"
     y="-219.78"
     id="tekst_kronblad"><tspan
       id="tspan3926-1"
       x="-66.533"
       y="-219.78">kronblad</tspan></text>
  <text
     class="ord"
     xml:space="preserve"
     x="-29.944"
     y="-52.967"
     id="tekst_begerblad"><tspan
       id="tspan3926-2"
       x="-29.944"
       y="-52.967">begerblad</tspan></text>
  <g
     id="klamme_fruktemne"
     transform="translate(6.6351)">
    <path
       class="bare_strek"
       id="path4076"
       d="m -97.86,-181.34 h -54.56 v 41.26 40.06 h 54.56"
        />
    <path
       class="bare_strek"
       id="path4078"
       d="m -152.42,-140.08 h -7.06"
        />
  </g>
  <path
     
     d="m 92.932,-190.27 -203.592,23.21"
     id="forklaringslinje_arr" />
  <path
     
     d="M 84.026,-157.81 -92.55,-145.03"
     id="forklaringslinje_griffel" />
  <path
     id="forklaringslinje_fruktknute"
     d="M 49.899,-104.73 -51.792,-120.39"/>
  <g
     id="g_fig_fruktknute_stor">
    <path
       class="plante_base strek"
       id="fruktknute_stor_base"
       d="m -191.96,23.858 c 22.7,53.329 67.84,49.509 88.46,110.882 2.61,7.33 -1.28,21.1 2.02,27.9 6.964,9.18 13.356,-44.94 14.289,-40.81 11.881,25.15 -3.015,34.97 -6.125,51.69 l -0.68,9.52 c -9.744,-2.72 -23.824,26.58 -26.524,24.5 -5.02,-2.37 -4.03,-5.11 -3.8,-7.8 -24.78,-0.48 -54.93,3.27 -54.04,-17.38 0.55,-2.66 27.94,19.54 43.55,7.5 C -221,176.68 -185.9,63.713 -212.37,28.618"
        
    />
    <path
       class="fruktknute_vegg"
       id="fruktknute_stor"
       d="m -187.02,58.379 c 12.93,-8.013 82.01,49.811 80.61,85.381 -1.4,35.58 -27.3,42.4 -48.48,35.2 -21.16,-7.2 -33.65,-42.38 -36.73,-55.26 -3.08,-12.88 -8.34,-57.307 4.6,-65.321 z"
       />
    <path
       class="fruktknute_hulrom"
       d="m -145.17,148.26 c 12.86,14.54 14.58,26.2 0.58,28.58 0,0 -26.35,-6.44 -37.09,-36.18 -10.73,-29.74 -9,-60.774 -9,-60.774 0.22,-7.689 2.08,-15.947 7.9,-9.269 5.81,6.69 11.6,21.839 11.6,21.839 -9.32,-0.55 -9.78,5.853 -7.87,10.324 1.91,4.46 8.28,6.08 11.91,0.96 2.34,3.9 5.22,8.21 6.12,12.98 0,0 -4.38,-4.77 -9.02,0.68 -4.64,5.46 -0.13,14.07 6.3,12.76 6.37,-1.3 5.54,-7.09 5.54,-7.09 1.78,4.88 5.69,11.25 9.05,15.65 -4.39,-1.86 -8.03,-2.33 -8.45,3.27 0,5.84 1.42,9.73 5.09,10.61 4.3,1.04 6.41,-0.57 7.34,-4.34 z M -168.94,84.916 C -174,81.236 -181,68.953 -179.8,63.579 c 0.43,-1.96 3.94,-0.213 5.63,1.2 18.58,15.407 42.94,31.94 53.82,53.641 6.41,12.8 11.65,33.56 3.4,44.05 -2.96,3.77 -9.27,2.8 -11.91,-0.17 -5.96,-6.7 -10.12,-16.78 -12.76,-24.48 -2.28,-1.32 9.15,5.06 10.21,-4.1 0.94,-8.01 -7.75,-11.24 -11.29,-8.96 -3.36,1.98 -4.96,3.26 -7.65,-1.36 -1.66,-2.89 -2.39,-8.66 -2.39,-8.66 0,0 3.87,3.05 6.29,1.53 3.35,-3.05 1.27,-10.31 -1.97,-13.49 -3.53,-3.471 -10.63,-2.36 -12.51,0.82 l -6.03,-11.704 c 1.99,-0.44 6.74,2.88 9.19,1.01 2.63,-2 1.33,-6.28 -0.67,-8.11 -2.58,-2.36 -11.3,-6.23 -10.5,0.13 z"
       
       id="fruktknute_stor_hulrom" />
  </g>
  <g
     id="g_forklaringslinjer_froemner">
    <path
       id="forklaringslinje_froemne1"
       d="m -128.23,32.714 -34.94,54.68"/>
    <path
       d="m -128.23,32.714 -23.09,76.716"
       id="forklaringslinje_froemne2" />
    <path
       id="forklaringslinje_froemne3"
       d="M -128.23,32.714 -138.29,132.89"/>
  </g>
  <path
     d="M 50.104,-29.475 104.39,3.0003"
     id="forklaringslinje_blomsterbunn" />
  <path
     d="M 133.76,77.368 98.935,137.8"
     id="forklaringslinje_pollenkorn" />
  <g
     id="g_fig_pollenknapp_stor">
    <path
       class="pollenknapp"
       id="pollenknapp_stor"
       d="m 73.416,154.6 c 0,0 3.364,18.57 9.994,22.69 6.62,4.14 15.58,5.55 36.01,-3.51 20.43,-9.06 50.55,-56.45 49.32,-56.72 0,0 0.78,-4.7 -1.03,-7.59 -1.82,-2.91 -5.89,-3.96 -10.92,-3.11 -5.03,0.85 -17.73,5.03 -17.73,5.03 0,0 11.6,-4.95 14.35,-8.52 2.75,-3.578 5.45,-5.557 3.59,-9.502 -1.86,-3.945 -7.35,-6.155 -32.44,-1.769 -25.09,4.386 -48.78,15.781 -63.857,30.761 -15.06,14.98 0.533,25.02 0.533,25.02 z"
       />
    <path
       class="plante_base strek"
       id="pollenbaerer"
       d="m 19.38,209.9 c 6.909,-13.07 9.073,-17.46 26.183,-39.08 31.147,-39.36 87.177,-60.64 92.377,-62.29 5.2,-1.65 10.38,-2.45 11.4,1.84 1.02,4.29 -5.37,9.11 -10.74,11.77 -5.36,2.67 -56.56,19.45 -81.537,56.4 -21.293,31.51 -16.265,26.9 -21.346,35.65"
        />
    <path
       class="pollenknapp"
       id="pollenknapp_stor_inni"
       d="m 88.99,118.74 c -7.78,4.66 -36.165,26.3 -25.958,39.9 10.206,13.6 26.378,7.78 36.598,4.09 -10.99,0.93 -21.18,3.16 -27.961,-5.95 -6.777,-9.11 2.653,-18.76 28.051,-37.17 l 0.97,-6.22 c -0.31,-0.85 -7.62,2.91 -11.7,5.35 z"
       />
    <path
       class="pollenknapp_tverrsnitt_inni"
       id="pollenknapp_stor_tverrsnitt_inni"
       d="m 103.91,116.89 12.27,2.89 c 9.19,4.6 8.89,12.86 9.56,20.74 l -22.01,18.58 c -9.3,0.89 -19.18,6.36 -27.84,2.1 -4.653,-3.2 -4.992,-7.77 -5.17,-12.38 l 8.3,-11.55 z"
       />
    <path
       class="pollenknapp_tverrsnitt"
       id="pollenknapp_stor_tverrsnitt"
       d="m 99.72,119.63 0.97,-6.25 c 7.05,-5.11 29.83,12.56 29.57,25.24 -0.26,12.68 -22.75,20.47 -28.98,23.29 -6.22,2.81 -18.82,3.43 -25.389,-0.71 16.449,4.36 37.419,-10.48 42.919,-14.45 5.49,-3.98 7.6,-12.05 4.33,-18.66 -3.27,-6.63 -16.52,-11.19 -18.68,-9.59 -2.17,1.58 -3.4,7.11 -3.4,7.11 -15.38,9.95 -38.077,17.97 -25.072,35.49 -4.222,-4.3 -7.829,-12.03 -3.397,-18.88 4.429,-6.84 27.129,-22.59 27.129,-22.59 z"/>
    <use
       transform="translate(140.28,171.56)"
       height="100%"
       width="100%"
       id="klamme_pollenknapp"
       xlink:href="#def_klamme"
       y="0"
       x="0" />
    <g
       transform="translate(106,135)"
       id="g_store_pollenkorn">
      <use
         x="0"
         y="0"
         xlink:href="#def_pollenkorn"
         id="use1146"
         transform="translate(-4.8502,-2.8312)"
         width="100%"
         height="100%" />
      <use
         x="0"
         y="0"
         xlink:href="#def_pollenkorn"
         id="use1152"
         transform="translate(-3.4702,8.8188)"
         width="100%"
         height="100%" />
      <use
         x="0"
         y="0"
         xlink:href="#def_pollenkorn"
         id="use1162"
         transform="translate(10.89,-5.9112)"
         width="100%"
         height="100%" />
      <use
         x="0"
         y="0"
         xlink:href="#def_pollenkorn"
         id="use1184"
         transform="translate(-15.27,10.709)"
         width="100%"
         height="100%" />
      <use
         x="0"
         y="0"
         xlink:href="#def_pollenkorn"
         id="use1186"
         transform="translate(-25.17,18.129)"
         width="100%"
         height="100%" />
      <use
         x="0"
         y="0"
         xlink:href="#def_pollenkorn"
         id="use1188"
         transform="translate(3.8198,-15.811)"
         width="100%"
         height="100%" />
      <use
         x="0"
         y="0"
         xlink:href="#def_pollenkorn"
         id="use1190"
         transform="translate(26.09,16.009)"
         width="100%"
         height="100%" />
      <use
         x="0"
         y="0"
         xlink:href="#def_pollenkorn"
         id="use1192"
         transform="translate(-18.1,4.6988)"
         width="100%"
         height="100%" />
      <use
         x="0"
         y="0"
         xlink:href="#def_pollenkorn"
         id="use1194"
         transform="translate(-11.56,16.899)"
         width="100%"
         height="100%" />
      <use
         x="0"
         y="0"
         xlink:href="#def_pollenkorn"
         id="use1196"
         transform="translate(-6.7902,0.45877)"
         width="100%"
         height="100%" />
      <use
         x="0"
         y="0"
         xlink:href="#def_pollenkorn"
         id="use1198"
         transform="translate(19.11,-2.2712)"
         width="100%"
         height="100%" />
      <use
         x="0"
         y="0"
         xlink:href="#def_pollenkorn"
         id="use1204"
         transform="translate(4.3498,7.6988)"
         width="100%"
         height="100%" />
      <use
         x="0"
         y="0"
         xlink:href="#def_pollenkorn"
         id="use1206"
         transform="translate(2.7598,-5.2012)"
         width="100%"
         height="100%" />
      <use
         x="0"
         y="0"
         xlink:href="#def_pollenkorn"
         id="use1208"
         transform="translate(-21.64,11.769)"
         width="100%"
         height="100%" />
      <use
         x="0"
         y="0"
         xlink:href="#def_pollenkorn"
         id="use8071"
         transform="translate(45.04,-17.721)"
         width="100%"
         height="100%" />
    </g>
  </g>

</svg>
