<?xml version="1.0" encoding="UTF-8" standalone="no"?>
<svg

   xmlns="http://www.w3.org/2000/svg"
   xmlns:xlink="http://www.w3.org/1999/xlink"
   viewBox="-250 -250 500 500"
   version="2.0"
   id="svg_blomst_innmat_responsiv">
   
  <metadata
     id="metadata174">
  </metadata>
  <title
     id="title49">Blomst innmat</title>
  <desc
     id="desc51"
     xml:lang="no">
      Innmat i en blomst, bearbeidet av Eirik Hanssen. Modifisert figur av Mariana Ruiz (LadyofHats). Kilde: https://commons.wikimedia.org/wiki/User:LadyofHats/gallery2#/media/File:Mature_flower_diagram.svg
      Opphavsrett: denne figuren slippes i det fri.
   </desc>
  <desc
     id="desc53"
     xml:lang="en">Flower internals, reworked by Eirik Hanssen. Modified/traced illustration by Mariana Ruiz (LadyofHats). Source: https://commons.wikimedia.org/wiki/User:LadyofHats/gallery2#/media/File:Mature_flower_diagram.svg
   Copyright: this illustration is released into the public domain.
   </desc>
   <script type="text/javascript">
      //<![CDATA[
      window.addEventListener('load', init, false);
      window.addEventListener('resize', applyResponsiveLayout, false);
      
      function init () {
         console.log("init();");
         applyResponsiveLayout();
      }
      
      function applyResponsiveLayout() {
         console.log("applyResponsiveLayout();");
         var svgroot = document.querySelector("#svg_blomst_innmat_responsiv");
         var svg_width = svgroot.clientWidth;
         var svg_height = svgroot.clientHeight;
         var aspect = svg_width / svg_height;
         
         var data_transform_src = null;
         
         if( aspect > (4/3) ) {
            data_transform_src = "data-transform-wide";
         } else if (  aspect < (3/4)  ) {
            data_transform_src = "data-transform-tall";
         } else {
            data_transform_src = "data-transform-default";		
         }
         
         var els = document.querySelectorAll(".responsive");
         
         for (var i = 0; i < els.length; i++) {
            var el = els[i];
            el.setAttribute("transform", el.getAttribute(data_transform_src));
         }
      }
      //]]>
   </script>
  <style
     id="style29"
     type="text/css">
     /* <![CDATA[ */
         
         #senterfirkant, /* debug/troubleshooting */
         #senterkryss {
            display:none;
            fill: none;
            stroke-width: 1;
            stroke: magenta;
         }
         
        #def_bg {
        fill: #d8ffc9;
        }
        
        .strek, .bare_strek,
        [class="pollenknapp"],
        [class="pollenknapp_tverrsnitt"]{
         stroke-width: 1px;
         stroke-linecap: round;
         stroke: #000000;
         stroke-linejoin: miter;
         stroke-opacity: 1;
        }
        .bare_strek {fill:none;}
        
        .blomsterbunn {}
        
        .ord {
        font-family:sans-serif;
        font-size:16px;
        text-align:center;
        fill:#000000;
        fill-opacity:1;
        text-anchor:middle;
        font-style:normal;
        font-variant:normal;
        font-weight:normal;
        paint-order: stroke fill;
        }
        
        .ord:hover,
        .ord:focus {
        
        }
        
        .ord.gruppe {font-weight: bold;}
        
        [id^="forklaringslinje"] {
        fill:none;
        stroke:#000000;
        stroke-width:1;
        stroke-linecap:round;
        stroke-linejoin:miter;
        stroke-miterlimit:4;
        stroke-dasharray:5, 5;
        stroke-dashoffset:2.5;
        
        }
        
        .plante_base {
            fill: #01a33e;
        }
        .fruktknute_vegg {
            fill:#2dc763;
        }
        .fruktknute_hulrom {
            fill:#07772d;
        }
        
        .kronblad {
        fill:#f3ca20;
        }
        .kronblad.underside,
        .pollenknapp_tverrsnitt,
        .pollenknapp_hoyre_inni {
        fill:#ef9c22;
        }
        
        .pollenknapp {
            fill:#feff02;
        }
        
        .pollenknapp_tverrsnitt_inni {fill:url(#linearGradientPollenknappIndre);fill-opacity:1;}
        
        .tykk_pil {
        fill:none;
        fill-opacity:1;
        stroke:#000000;
        stroke-width:3;
        stroke-linecap: butt;
        marker-end:url(#markerStoreForklaringspiler);}
        
        
        .sirkel_til_pil {
        fill:none;
            stroke:#000000;
            stroke-width:4;
        }
        
        #blomsterbunn {
            fill:none;
            stroke:#ffff00;
            stroke: white;
            stroke-width:2;
            stroke-linecap:round;
            stroke-dasharray:1, 8;
            stroke-dashoffset:0;
        }
        
        #def_pollenkorn {
               fill:url(#radialGradientPollenkorn);
               fill-opacity:1;
               stroke:#800000;
               stroke-width:0.5;
        }
        
        /* reponsiv figurplassering */
        #g_fig_blomst_m_forklaringer {

        
        }
        
       
        /* ]]> */
    </style>
  <defs
     id="defs4621">
    <rect
       height="10000"
       width="10000"
       y="-5000"
       x="-5000"
       id="def_bg" />
    <marker
       orient="auto"
       refY="0.0"
       refX="0.0"
       id="markerStoreForklaringspiler"
       style="overflow:visible">
      <path
         id="path1760"
         d="M 5.77,0.0 L -2.88,5.0 L -2.88,-5.0 L 5.77,0.0 z "
         style="fill-rule:evenodd;stroke:#000000;stroke-width:1pt;stroke-opacity:1;fill:#000000;fill-opacity:1"
         transform="scale(0.4)" />
    </marker>
    <linearGradient
       id="linearGradientPollenknappIndreDef">
      <stop
         id="stop968"
         offset="0"
         style="stop-color:#b3470e;stop-opacity:1" />
      <stop
         id="stop970"
         offset="1"
         style="stop-color:#ee8b1d;stop-opacity:1" />
    </linearGradient>
    <linearGradient
       id="linearGradient145">
      <stop
         id="stop141"
         offset="0"
         style="stop-color:#f2d91a;stop-opacity:1" />
      <stop
         id="stop143"
         offset="1"
         style="stop-color:#d75b13;stop-opacity:1" />
    </linearGradient>
    <linearGradient
       gradientTransform="translate(-123.21,-100.65)"
       gradientUnits="userSpaceOnUse"
       y2="115.43"
       x2="134.22"
       y1="93.066"
       x1="115.1"
       id="linearGradientPollenknappIndre"
       xlink:href="#linearGradientPollenknappIndreDef" />
    <radialGradient
       xlink:href="#linearGradient145"
       id="radialGradientPollenkorn"
       gradientUnits="userSpaceOnUse"
       cx="0"
       cy="0"
       fx="0"
       fy="0"
       r="6" />
    <circle
       r="5.7768"
       cy="0"
       cx="0"
       id="def_pollenkorn" />
    <use
       x="0"
       y="0"
       xlink:href="#def_pollenkorn"
       id="def_pollenkorn_lite"
       transform="scale(0.2)"
       width="100%"
       height="100%" />
    <g
       transform="rotate(240)"
       id="def_klamme">
      <path
         id="path4088"
         d="m 14.936,-56.263 -14.74973,6 V 0 49.06 l 14.74973,6"
         class="bare_strek" />
      <path
         id="path4090"
         d="M 0.18627,0 H -6.8737"
         class="bare_strek" />
    </g>
  </defs>
  <g
     id="bakgrunn">
    <use
       id="use73"
       y="0"
       x="0"
       xlink:href="#def_bg" />
  </g>
  <g
     id="g_fig_blomst_oversikt">
    <g
       id="g_pollenknapp_venstre" />
    <g
       id="g_pollenknapp_hoyre">
      <g
         id="g_smaa_pollenkorn" />
    </g>
  </g>
  <g
     transform="translate(6.6351)"
     id="klamme_fruktemne" />
  
   <g class="responsive"
      id="g_fig_fruktknute_m_forklaringer"
      transform="translate(-160,124)" 
      data-transform-default="translate(-160,124)"
      data-transform-wide="translate(-283,68)"
      data-transform-tall="translate(-160,220)">
      <text
         class="ord"
         xml:space="preserve"
         x="28.206"
         y="-95.663"
         id="tekst_froemner"
         style="font-style:normal;font-variant:normal;font-weight:normal;font-size:16px;font-family:sans-serif;text-align:center;text-anchor:middle;fill:#000000;fill-opacity:1;paint-order:stroke fill"><tspan
           id="tspan3914"
           x="28.206"
           y="-95.663">frøemner</tspan></text>
      <text
         class="ord gruppe"
         xml:space="preserve"
         x="27"
         y="103"
         id="tekst_fruktknute_fet"
         style="font-style:normal;font-variant:normal;font-weight:bold;font-size:16px;font-family:sans-serif;text-align:center;text-anchor:middle;fill:#000000;fill-opacity:1;paint-order:stroke fill"><tspan
           id="tspan3918"
           x="27"
           y="103">fruktknute</tspan></text>
      <path
         class="plante_base strek"
         id="fruktknute_stor_base"
         d="m -38.404,-99.736 c 22.7,53.329 67.84,49.509 88.46,110.882 2.61,7.33 -1.28,21.1 2.02,27.9 C 59.04,48.226 65.432,-5.8939 66.365,-1.7639 78.246,23.386 63.35,33.206 60.24,49.926 l -0.68,9.52 c -9.744,-2.72 -23.824,26.58 -26.524,24.5 -5.02,-2.37 -4.03,-5.11 -3.8,-7.8 -24.78,-0.48 -54.93,3.27 -54.04,-17.38 0.55,-2.66 27.94,19.54 43.55,7.5 -86.19,-13.18 -51.09,-126.147 -77.56,-161.242"
         style="fill:#01a33e;stroke:#000000;stroke-width:1px;stroke-linecap:round;stroke-linejoin:miter;stroke-opacity:1" />
      <path
         class="fruktknute_vegg"
         id="fruktknute_stor"
         d="m -33.464,-65.215 c 12.93,-8.013 82.01,49.811 80.61,85.381 -1.4,35.58 -27.3,42.4 -48.48,35.2 -21.16,-7.2 -33.65,-42.38 -36.73,-55.25988 -3.08,-12.88012 -8.34,-57.30712 4.6,-65.32112 z"
         style="fill:#2dc763" />
      <path
         class="fruktknute_hulrom"
         d="m 8.386,24.666 c 12.86,14.54 14.58,26.2 0.58,28.58 0,0 -26.35,-6.44 -37.09,-36.18 -10.73,-29.74 -9,-60.774 -9,-60.774 0.22,-7.689 2.08,-15.947 7.9,-9.269 5.81,6.69 11.6,21.839 11.6,21.839 -9.32,-0.55 -9.78,5.853 -7.87,10.324 1.91,4.46 8.28,6.08 11.91,0.96 2.34,3.9 5.22,8.21 6.12,12.9801 0,0 -4.38,-4.7701 -9.02,0.68 -4.64,5.46002 -0.13,14.07 6.3,12.76 6.37,-1.3 5.54,-7.08998 5.54,-7.08998 1.78,4.87998 5.69,11.24988 9.05,15.64988 -4.38997,-1.86 -8.03,-2.33 -8.45,3.27 0,5.84 1.42,9.73 5.09,10.61 4.3,1.04 6.41,-0.57 7.34,-4.34 z m -23.77,-63.344 c -5.06,-3.68 -12.06,-15.963 -10.86,-21.337 0.43,-1.96 3.94,-0.213 5.63,1.2 18.58,15.407 42.94,31.94 53.82,53.6411 6.41,12.8 11.65,33.5599 3.4,44.0499 -2.96,3.77 -9.27,2.8 -11.91,-0.17 -5.96,-6.7 -10.12,-16.78 -12.76,-24.48 -2.28,-1.32 9.15,5.06 10.21,-4.1 0.94,-8.0099 -7.75,-11.2399 -11.29,-8.9599 -3.36,1.98 -4.96,3.26 -7.65,-1.35998 C 1.546,-3.0839 0.81603,-8.8539 0.81603,-8.8539 c 0,0 3.86997,3.05 6.28997,1.53 3.35,-3.0501 1.27,-10.3101 -1.97,-13.4901 -3.53,-3.471 -10.63,-2.36 -12.51,0.82 l -6.03,-11.704 c 1.99,-0.44 6.74,2.88 9.19,1.01 2.63,-2 1.33,-6.28 -0.67,-8.11 -2.58,-2.36 -11.3,-6.23 -10.5,0.13 z"
         id="fruktknute_stor_hulrom"
         style="fill:#07772d" />
       
      <g id="g_forklaringslinjer_froemner">
         <path id="forklaringslinje_froemne1" d="M 25.326,-90.88 -9.614,-36.2" />
         <path id="forklaringslinje_froemne2" d="M 25.326,-90.88 2.236,-14.164" />
         <path id="forklaringslinje_froemne3" d="M 25.326,-90.88 15.266,9.2961" />
      </g>
    </g>
  
  <g class="responsive"
     id="g_fig_blomst_m_forklaringer"
     transform="translate(67,-75)"
     data-transform-default="translate(67,-75)"
     data-transform-wide="translate(15,-50)"
     data-transform-tall="translate(68,0)">
    <path
       style="fill:#ef9c22;stroke:#000000;stroke-width:1px;stroke-linecap:round;stroke-linejoin:miter;stroke-opacity:1"
       class="kronblad underside strek"
       id="kronblad_underside"
       d="m 168.64,-10.893 c 0,0.66 2.46,18.8969 2.46,18.8969 1.79,5.3721 -2.39,10.5561 -9.53,-1.476 -7.12,-12.041 -15.39,-4.371 -20.69,-12.811 -5.3,-8.4499 -4.44,-25.1399 -4.44,-25.1399 L -4.1917,-98.403 -19.761,-102.35 c 0,0 -41.193,48.387 -64.621,38.517 -23.428,-9.89 -27.268,3.46 -37.818,5.16 -5.43,0.88 -10.38,-1.96 -16.5,2.28 -10.61,7.34 -9.99,3.76 -9.99,3.76 l 17.19,-28.58 61.562,-62.017 21.842,-3.26 151.236,45.31 13.47,13.007 z" />
    <path
       style="fill:#f3ca20;stroke:#000000;stroke-width:1px;stroke-linecap:round;stroke-linejoin:miter;stroke-opacity:1"
       class="kronblad overside strek"
       id="kronblad_overside"
       d="m 177.01,12.934 c 3,-0.34 -4.9,-10.4571 -5.96,-21.3371 -1.12,-11.5199 0.3,-22.1499 -1.6,-29.5899 -1.99,-7.84 -4.41,-14.55 -11.63,-26.01 -8.68,-13.78 -21.99,-29.87 -35.33,-30.18 -30.508,-0.69 -77.818,52.24 -91.999,67.36 42.641,-49.82 75.189,-65.6 80.159,-68.33 4.97,-2.74 9.14,-6.587 1.57,-12.357 -7.58,-5.77 -19.488,-20.65 -48.808,-14.7 -29.305,5.95 -46.943,-9.26 -66.1997,-17.56 -19.2573,-8.29 -39.6353,-20.74 -54.7743,-5.33 32.263,8.31 45.166,47.687 45.647,75.047 0.389,22.11 2.8503,25.5 2.3143,32.72 -3.9873,-17.21 -7.3993,-68.937 -22.5163,-85.987 -15.116,-17.05 -25.445,-21.78 -44.858,-19 -19.417,2.8 -28.115,12.88 -34.705,31.34 -2.5,7.02 -16.79,12.817 -24.84,20.307 -13.14,12.19 -19.13,25.36 -13.36,36.91 1.95,3.9 13.4,-13.24 27.19,-19.59 7.68,-3.53 24.948,3.46 31.398,6.36 18.657,8.37 35.773,32.08 41.46,58.5699 5.687,26.4911 13.891,55.0351 27.7,57.2001 l 16.5943,2.602 C 26.654,56.425 50.522,4.5109 79.532,-8.6731 108.54,-21.863 133,-25.483 149.5,-21.043 c 16.5,4.45 14.26,39.221 27.51,33.977 z" />
    <path
       style="fill:#01a33e;stroke:#000000;stroke-width:1px;stroke-linecap:round;stroke-linejoin:miter;stroke-opacity:1"
       class="plante_base strek"
       id="arr_griff_blomsterstilk_begerblad"
       d="m -26.061,140.14 c -7.972,1.49 -10.66,-4.49 -16.396,-10.95 -5.738,-6.46 -11.613,-13.29 -5.762,-23.22 3.053,-5.17 6.569,-12.7 9.047,-25.15 1.214,-6.101 9.515,-5.56 9.866,-11.052 0.504,-7.861 -10.193,-13.541 -17.016,-28.087 -7.683,-16.374 -5.984,-23.951 -7.975,-34.9481 -2.426,-13.396 -8.197,-21.7359 -8.197,-21.7359 0,0 8,7.3799 13.121,19.9139 3.254,7.9661 3.169,17.2331 6.179,25.2371 4.662,12.397 12.201,21.765 15.859,18.589 3.628,-3.15 -1.882,-4.24 -0.354,-8.774 0.964,-2.866 4.377,-0.255 4.706,-2.885 0.435,-3.495 -2.173,-2.499 -8.015,-11.557 -5.103,-7.915 -9.157,-21.8851 -10.334,-44.194 -2.261,-42.82 12.584,-65.62 14.162,-68.35 1.576,-2.74 5.857,-2.61 3.441,1.72 -2.416,4.32 -6.881,11.67 -8.465,17.11 -7.55,25.93 -8.902,55.194 1.379,81.13 2.11,5.321 6.278,9.397 10.848,12.696 -5.273,-8.828 -5.436,-12.161 -6.592,-19.9471 -1.164,-7.859 2.259,-17.9649 6.253,-25.5289 6.181,-11.69 16.1333,-22.43 22.8323,-33.68 10.9747,-18.44 17.8107,-37.01 17.4427,-42.29 -0.29,-4.15 -9.224,-15.797 0.335,-20.377 2.009,-0.96 4.592,4.41 7.177,4.92 4.013,0.8 4.605,-3.47 9.241,-0.32 1.02,0.7 4.12,4.68 -1.07,12.557 -5.157,7.84 -14.73,22.86 -14.46,40.09 0.287,18.39 7.592,48.55 4.807,63.5829 C 22.391,24.115 9.0983,29.428 9.9113,30.757 11.563,33.454 29.357,23.984 38.092,4.3569 c 3.24,-7.29 7.77,-14.4499 8.94,-23.2599 2.53,-18.98 1.1,-39.77 4.81,-47.26 1.62,-3.29 6.36,-8.2 3.94,-0.13 -1.07,3.6 -5.21,16.38 -4.74,24.97 0.76,14.04 -2.32,37.9799 -9.96,51.529 C 19.646,48.198 2.4713,36.337 2.8853,43.192 c 0.232,1.871 1.811,0.929 1.77,4.593 -0.04,3.686 -5.85,2.634 -5.711,6.907 0.06,1.883 11.8387,4.723 26.2097,-6.446 10.308,-8.011 21.978,-22.59 27.578,-25.187 11.99,-5.556 16.52,-5.914 16.52,-5.914 0,0 -8.49,4.111 -17.24,12.999 -5.98,6.081 -10.5,16.059 -18.729,21.904 -7.041,4.999 -18.47,7.206 -25.3977,10.58 -5.036,2.452 -5.912,6.451 -9.672,8.059 -5.227,2.233 -8.7263,3.656 -9.1283,4.284 -2.23,3.49 1.3363,4.879 0.179,15.942 -1.384,13.267 -11.109,29.737 -14.099,38.847 -3.029,9.23 1.2,9.88 -1.226,10.33 z" />
    <path
       style="fill:none;stroke:#000000;stroke-width:1px;stroke-linecap:round;stroke-linejoin:miter;stroke-opacity:1"
       class="bare_strek"
       d="m 21.54,-106.48 c 1.75,-0.12 3.209,-3.58 6.921,-3.36 4.265,0.26 4.884,3.52 7.011,4.24"
       id="arr_liten_strek" />
    <path
       style="fill:#feff02;stroke:#000000;stroke-width:1px;stroke-linecap:round;stroke-linejoin:miter;stroke-opacity:1"
       class="pollenknapp"
       d="m -30.219,-91.703 c 2.299,4.52 4.908,1.46 6.854,2.46 1.928,0.99 1.183,3.68 4.04,3.42 6.437,-0.59 14.8743,-22.607 8.859,-26.187 -6.016,-3.6 -24.354,11.24 -19.753,20.307 z"
       id="pollenknapp_venstre_rundt" />
    <path
       style="fill:#feff02;stroke:#000000;stroke-width:1px;stroke-linecap:round;stroke-linejoin:miter;stroke-opacity:1"
       class="pollenknapp"
       d="m -23.356,-89.803 c 3.071,1.45 8.021,-4.58 9.994,-8.25 1.973,-3.667 3.6123,-10.397 1.275,-11.967 -2.336,-1.57 -9.18,4.3 -11.153,8.14 -1.973,3.837 -3.186,10.637 -0.116,12.077 z"
       id="path8305" />
    <path
       style="fill:#2dc763"
       class="fruktknute_vegg"
       id="fruktknute_liten_m_blomsterbunn"
       d="m 15.048,-52.543 c 9.231,1.96 13.777,56.7709 -0.601,73.526 -2.248,2.621 -4.9817,5.339 -7.0357,7.067 -1.665,1.401 -2.377,2.305 -2.093,4.152 0.203,1.315 2.502,2.001 5.1417,1.699 2.869,-0.329 6.096,-1.68 6.324,-0.841 0.396,1.456 -4.016,3.352 -8.4837,4.64 -4.387,1.265 -8.82898,1.915 -8.82798,3.783 0,3.767 1.028,1.653 1.99598,4.851 0.969,3.197 -6.443,3.522 -4.589,9.86 1.854,6.336 24.5787,-2.295 24.0647,-2.012 0,0 0.295,0.468 -1.114,0.931 -5.42,1.784 -17.9837,7.55 -24.4567,12.72 -5.7173,4.565 -12.2073,4.094 -11.5813,6.254 1.689,5.825 3.53,14.131 1.262,20.642 -3.361,9.641 -6.752,25.611 -20.475,22.801 -13.722,-2.81 -8.4,-16.74 -4.953,-25.304 5.813,-14.434 14.713,-13.369 15.853,-22.191 1.14,-8.823 -16.533,-17.689 -15.204,-23.116 0.664,-2.711 3.966,1.859 7.52,3.286 1.666,0.67 4.444,1.779 6.32,0.582 5.431,-3.464 2.604,-4.635 3.771,-7.384 1.167,-2.75 4.201,-4.042 0.949,-8.114 -6.522,-8.166 -6.983,-10.689 -6.439,-11.046 0.707,-0.465 4.233,2.706 7.277,4.562 2.96,1.804 5.469,2.322 4.196,0.103 l -1.834,-3.207 c -1.177,-2.056 -4.019,-5.805 -5.217,-9.734 -5.223,-17.1601 3.374,-33.36 7.533,-40.45 4.155,-7.08 21.4573,-30.03 30.697,-28.06 z" />
    <path
       style="fill:none;stroke:#ffffff;stroke-width:2;stroke-linecap:round;stroke-dasharray:1, 8;stroke-dashoffset:0"
       id="blomsterbunn"
       d="M -7.8577,28.697 -21.938,75.277" />
    <path
       style="fill:#feff02;stroke:#000000;stroke-width:1px;stroke-linecap:round;stroke-linejoin:miter;stroke-opacity:1"
       class="pollenknapp"
       d="m 47.812,-69.173 c 3.27,3.66 4.95,0.16 7,0.6 2.06,0.45 2.03,3.15 4.63,2.2 5.86,-2.15 8.27,-24.79 1.76,-26.65 -6.51,-1.85 -19.93,16.54 -13.39,23.85 z"
       id="pollenknapp_hoyre_rundt" />
    <path
       style="fill:#ef9c22;stroke:#000000;stroke-width:1px;stroke-linecap:round;stroke-linejoin:miter;stroke-opacity:1"
       class="pollenknapp_hoyre_inni strek"
       d="m 55.542,-69.783 c 2.85,0.54 6.21,-4.24 6.82,-9.6 0.6,-5.37 -0.14,-11.06 -2.39,-11.67 -2.26,-0.6 -6.69,6.16 -7.72,11.09 -1.03,4.93 0.43,9.64 3.29,10.18 z"
       id="pollenknapp_hoyre_inni" />
    <use
       transform="translate(-65.17,81.65)"
       id="use8808"
       x="125.5"
       y="-165"
       xlink:href="#def_pollenkorn_lite"
       width="100%"
       height="100%" />
    <use
       transform="translate(-65.17,81.65)"
       id="use8810"
       x="125"
       y="-171"
       xlink:href="#def_pollenkorn_lite"
       width="100%"
       height="100%" />
    <use
       transform="translate(-65.17,81.65)"
       id="use8812"
       x="122"
       y="-164"
       xlink:href="#def_pollenkorn_lite"
       width="100%"
       height="100%" />
    <use
       transform="translate(-65.17,81.65)"
       id="use8814"
       x="119"
       y="-160"
       xlink:href="#def_pollenkorn_lite"
       width="100%"
       height="100%" />
    <use
       transform="translate(-65.17,81.65)"
       id="use8816"
       x="122"
       y="-158"
       xlink:href="#def_pollenkorn_lite"
       width="100%"
       height="100%" />
    <use
       transform="translate(-65.17,81.65)"
       id="use8818"
       x="120"
       y="-154"
       xlink:href="#def_pollenkorn_lite"
       width="100%"
       height="100%" />
    <use
       transform="translate(-65.17,81.65)"
       id="use8820"
       x="123"
       y="-155"
       xlink:href="#def_pollenkorn_lite"
       width="100%"
       height="100%" />
    <use
       transform="translate(-65.17,81.65)"
       id="use8822"
       x="123"
       y="-167"
       xlink:href="#def_pollenkorn_lite"
       width="100%"
       height="100%" />
    <use
       transform="translate(-65.17,81.65)"
       id="use8824"
       x="124"
       y="-160"
       xlink:href="#def_pollenkorn_lite"
       width="100%"
       height="100%" />
    <path
       style="fill:#07772d"
       class="fruktknute_hulrom"
       d="m -4.8407,6.3439 c -0.491,12.0291 -4.733,17.9881 -12.0243,13.0371 0,0 -9.028,-14.2001 -1.054,-32.12 7.9773,-17.924 22.0853,-31.074 22.0853,-31.074 3.403,-3.35 7.7847,-6.24 7.5187,-0.77 -0.273,5.51 -4.1907,14.79 -4.1907,14.79 -3.936,-4.25 -6.89198,-1.6 -7.95698,1.24 -1.06402,2.8 1.093,6.26 4.91698,5.53 -0.628,2.76 -1.191,5.91 -2.837,8.46 0,0 0.09,-4.03 -4.33,-3.59 -4.423,0.46 -6.105,6.23 -2.664,8.4099 3.41,2.15 5.52702,-0.7899 5.52702,-0.7899 -1.30002,2.9599 -2.28602,7.4999 -2.67402,10.89986 -1.166,-2.70996 -2.593,-4.47996 -5.188,-2.17996 -2.5093,2.62996 -3.5453,4.972 -2.281,6.955 1.478,2.29 3.115,2.481 5.152,1.202 z M 11.736,-32.233 c -0.683,-3.8 1.46,-12.31 4.31,-14.2 1.034,-0.7 1.853,1.59 2.004,2.94 1.696,14.89 5.498,32.77 1.041,47.1409 -2.63,8.4811 -9.2057,20.0261 -17.4057,21.1771 -2.947,0.416 -5.354,-2.73 -5.259,-5.194 0.209,-5.56 2.68102,-11.8571 4.807,-16.4461 -0.45298,-1.558 1.922,6.201 6.333,2.558 3.8627,-3.186 1.361,-8.336 -1.203,-8.846 -2.356,-0.56 -3.623,-0.68 -2.842,-3.91 0.499,-2.01 2.653,-4.8999 2.653,-4.8999 0,0 0.422,3.0299 2.158,3.3899 2.8097,0 4.9987,-4.0659 4.9147,-6.8899 -0.09,-3.06 -3.7447,-5.63 -5.9527,-5 l 2.329,-7.83 c 1.0807,0.67 1.7797,4.18 3.6797,4.4 2.037,0.23 3.295,-2.25 3.185,-3.93 -0.138,-2.15 -2.381,-7.63 -4.756,-4.46 z"
       id="fruktknute_liten_hulrom" />
    <text
       style="font-style:normal;font-variant:normal;font-weight:normal;font-size:16px;font-family:sans-serif;text-align:center;text-anchor:middle;fill:#000000;fill-opacity:1;paint-order:stroke fill"
       class="ord"
       xml:space="preserve"
       x="-194.57"
       y="-78.933"
       id="tekst_arr"><tspan
         id="tspan3898"
         x="-194.57"
         y="-78.933">arr</tspan></text>
    <text
       style="font-style:normal;font-variant:normal;font-weight:normal;font-size:16px;font-family:sans-serif;text-align:center;text-anchor:middle;fill:#000000;fill-opacity:1;paint-order:stroke fill"
       class="ord"
       xml:space="preserve"
       x="-182.89"
       y="-57.933"
       id="tekst_griffel"><tspan
         id="tspan3902"
         x="-182.89"
         y="-57.933">griffel</tspan></text>
    <text
       style="font-style:normal;font-variant:normal;font-weight:normal;font-size:16px;font-family:sans-serif;text-align:center;text-anchor:middle;fill:#000000;fill-opacity:1;paint-order:stroke fill"
       class="ord"
       xml:space="preserve"
       x="-162.7"
       y="-33.823"
       id="tekst_fruktknute"><tspan
         id="tspan3906"
         x="-162.7"
         y="-33.823">fruktknute</tspan></text>
    <text
       style="font-style:normal;font-variant:normal;font-weight:bold;font-size:16px;font-family:sans-serif;text-align:center;text-anchor:middle;fill:#000000;fill-opacity:1;paint-order:stroke fill"
       class="ord gruppe"
       xml:space="preserve"
       x="-265.44"
       y="-54.483"
       id="tekst_fruktemne_fet"><tspan
         id="tspan3910"
         x="-265.44"
         y="-54.483">fruktemne</tspan></text>
    <text
       style="font-style:normal;font-variant:normal;font-weight:normal;font-size:16px;font-family:sans-serif;text-align:center;text-anchor:middle;fill:#000000;fill-opacity:1;paint-order:stroke fill"
       class="ord"
       xml:space="preserve"
       x="50.112"
       y="96.329"
       id="tekst_blomsterbunn"><tspan
         id="tspan3922"
         x="50.112"
         y="96.329">blomsterbunn</tspan></text>
    <text
       style="font-style:normal;font-variant:normal;font-weight:normal;font-size:16px;font-family:sans-serif;text-align:center;text-anchor:middle;fill:#000000;fill-opacity:1;paint-order:stroke fill"
       class="ord"
       xml:space="preserve"
       x="-131.7"
       y="-138.13"
       id="tekst_kronblad"><tspan
         id="tspan3926-1"
         x="-131.7"
         y="-138.13">kronblad</tspan></text>
    <text
       style="font-style:normal;font-variant:normal;font-weight:normal;font-size:16px;font-family:sans-serif;text-align:center;text-anchor:middle;fill:#000000;fill-opacity:1;paint-order:stroke fill"
       class="ord"
       xml:space="preserve"
       x="-100"
       y="20"
       id="tekst_begerblad"><tspan
         id="tspan3926-2"
         x="-100"
         y="20">begerblad</tspan></text>
    <path
       style="fill:none;stroke:#000000;stroke-width:1px;stroke-linecap:round;stroke-linejoin:miter;stroke-opacity:1"
       class="bare_strek"
       id="path4076"
       d="m -163.03,-99.693 h -54.56 v 41.26 40.06 h 54.56"
       transform="translate(6.64)" />
    <path
       style="fill:none;stroke:#000000;stroke-width:1px;stroke-linecap:round;stroke-linejoin:miter;stroke-opacity:1"
       class="bare_strek"
       id="path4078"
       d="m -217.59,-58.433 h -7.06"
       transform="translate(6.64)" />
    <path
       d="M 27.764,-108.62 -175.83,-85.413"
       id="forklaringslinje_arr" />
    <path
       d="m 18.858,-76.163 -176.578,12.78"
       id="forklaringslinje_griffel" />
    <path
       id="forklaringslinje_fruktknute"
       d="M -15.269,-23.083 -116.96,-38.743" />
    <path
       d="M -15.064,52.172 39.222,84.647"
       id="forklaringslinje_blomsterbunn" />
    <text
       id="tekst_blomsterstilk"
       y="155"
       x="-30"
       xml:space="preserve"
       class="ord"
       style="font-style:normal;font-variant:normal;font-weight:normal;font-size:16px;font-family:sans-serif;text-align:center;text-anchor:middle;fill:#000000;fill-opacity:1;paint-order:stroke fill"><tspan
         y="155"
         x="-30"
         id="tspan3926">blomsterstilk</tspan></text>
  </g>
  <g class="responsive"
     id="g_fig_pollenknapp_stor"
     transform="translate(117,143)"
     data-transform-default="translate(117,143)"
     data-transform-wide="translate(250,70)"
     data-transform-tall="translate(-100,-255)">
    <g
       id="g_store_pollenkorn"
       transform="translate(106,135)">
      <g
         id="figur_pollenknapp_med_forklaringer">
        <text
           transform="translate(-106,-135)"
           class="ord"
           xml:space="preserve"
           x="15"
           y="-60"
           id="tekst_pollenkorn_stor"
           style="font-style:normal;font-variant:normal;font-weight:normal;font-size:16px;font-family:sans-serif;text-align:center;text-anchor:middle;fill:#000000;fill-opacity:1;paint-order:stroke fill"><tspan
             id="tspan3934"
             x="15"
             y="-60">pollenkorn</tspan></text>
        <text
           transform="translate(-40,-70)"
           class="ord gruppe"
           xml:space="preserve"
           x="-30"
           y="10"
           id="tekst_pollenknapp_fet"
           style="font-style:normal;font-variant:normal;font-weight:bold;font-size:16px;font-family:sans-serif;text-align:center;text-anchor:middle;fill:#000000;fill-opacity:1;paint-order:stroke fill">
           <tspan
             id="tspan3938"
             x="-30"
             y="10">pollenknapp</tspan></text>
        <text
           transform="translate(-106,-135)"
           class="ord"
           xml:space="preserve"
           x="-70"
           y="90"
           id="tekst_pollenbaerer"
           style="font-style:normal;font-variant:normal;font-weight:normal;font-size:16px;font-family:sans-serif;text-align:center;text-anchor:middle;fill:#000000;fill-opacity:1;paint-order:stroke fill"><tspan
             id="tspan3942"
             x="-70"
             y="90">pollenbærer</tspan></text>
        
        <path
           transform="translate(-106,-135)"
           class="pollenknapp"
           id="pollenknapp_stor"
           d="m -26.16,13.71 c 0,0 3.364,18.57 9.994,22.69 6.6197,4.14 15.57973,5.55 36.01,-3.51 20.43,-9.06 50.55,-56.45 49.32,-56.72 0,0 0.78,-4.7 -1.03,-7.59 -1.82,-2.91 -5.89,-3.96 -10.92,-3.11 -5.03,0.85 -17.73,5.03 -17.73,5.03 0,0 11.6,-4.95 14.35,-8.52 2.75,-3.578 5.45,-5.557 3.59,-9.502 -1.86,-3.945 -7.35,-6.155 -32.44,-1.769 -25.09027,4.386 -48.78,15.781 -63.857,30.761 -15.06,14.9802 0.533,25.0202 0.533,25.0202 z"
           style="fill:#feff02;stroke:#000000;stroke-width:1px;stroke-linecap:round;stroke-linejoin:miter;stroke-opacity:1" />
        <path
           transform="translate(-106,-135)"
           class="plante_base strek"
           id="pollenbaerer"
           d="m -80.196,69.01 c 6.909,-13.07 9.073,-17.46 26.183,-39.08 31.147,-39.3598 87.177,-60.64 92.377,-62.29 5.2,-1.65 10.38,-2.45 11.4,1.84 1.02,4.29 -5.37,9.11 -10.74,11.77 -5.36,2.67 -56.56,19.45017 -81.537,56.4 -21.293,31.51 -16.265,26.9 -21.346,35.65"
           style="fill:#01a33e;stroke:#000000;stroke-width:1px;stroke-linecap:round;stroke-linejoin:miter;stroke-opacity:1" />
        <path
           transform="translate(-106,-135)"
           class="pollenknapp"
           id="pollenknapp_stor_inni"
           d="m -10.586,-22.15 c -7.78,4.66 -36.165,26.3002 -25.958,39.9 10.206,13.6 26.378,7.78 36.59773,4.09 C -10.936,22.77 -21.126,25 -27.907,15.89 -34.684,6.7802 -25.254,-2.8698 0.14373,-21.28 L 1.1137,-27.5 c -0.30997,-0.85 -7.62,2.91 -11.6997,5.35 z"
           style="fill:#feff02;stroke:#000000;stroke-width:1px;stroke-linecap:round;stroke-linejoin:miter;stroke-opacity:1" />
        <path
           transform="translate(-106,-135)"
           class="pollenknapp_tverrsnitt_inni"
           id="pollenknapp_stor_tverrsnitt_inni"
           d="m 4.3337,-24 12.2703,2.89 c 9.19,4.6 8.89,12.8602 9.56,20.74017 L 4.1537,18.21 c -9.3,0.89 -19.1797,6.36 -27.8397,2.1 -4.653,-3.2 -4.992,-7.77 -5.17,-12.3798 l 8.3,-11.55 z"
           style="fill:url(#linearGradientPollenknappIndre);fill-opacity:1" />
        <path
           transform="translate(-106,-135)"
           class="pollenknapp_tverrsnitt"
           id="pollenknapp_stor_tverrsnitt"
           d="M 0.14373,-21.26 1.1137,-27.51 C 8.1637,-32.62 30.944,-14.95 30.684,-2.2698 30.424,10.41 7.9337,18.2 1.7037,21.02 -4.5163,23.83 -17.116,24.45 -23.685,20.31 -7.2363,24.67 13.734,9.8302 19.234,5.8602 c 5.49,-3.98 7.6,-12.05 4.33,-18.6602 -3.27,-6.63 -16.5203,-11.19 -18.6803,-9.59 -2.17,1.58 -3.4,7.11 -3.4,7.11 C -13.896,-5.3298 -36.593,2.6902 -23.588,20.21 -27.81,15.91 -31.417,8.1802 -26.985,1.3302 -22.556,-5.5098 0.14373,-21.26 0.14373,-21.26 Z"
           style="fill:#ef9c22;stroke:#000000;stroke-width:1px;stroke-linecap:round;stroke-linejoin:miter;stroke-opacity:1" />
        <use
           transform="translate(-65.3,-104.33)"
           height="100%"
           width="100%"
           id="klamme_pollenknapp"
           xlink:href="#def_klamme"
           y="0"
           x="0" />
        <use
           x="0"
           y="0"
           xlink:href="#def_pollenkorn"
           id="use1146"
           transform="translate(-104.43,-143.72)"
           width="100%"
           height="100%" />
        <use
           x="0"
           y="0"
           xlink:href="#def_pollenkorn"
           id="use1152"
           transform="translate(-103.05,-132.07)"
           width="100%"
           height="100%" />
        <use
           x="0"
           y="0"
           xlink:href="#def_pollenkorn"
           id="use1162"
           transform="translate(-88.686,-146.8)"
           width="100%"
           height="100%" />
        <use
           x="0"
           y="0"
           xlink:href="#def_pollenkorn"
           id="use1184"
           transform="translate(-114.85,-130.18)"
           width="100%"
           height="100%" />
        <use
           x="0"
           y="0"
           xlink:href="#def_pollenkorn"
           id="use1186"
           transform="translate(-124.75,-122.76)"
           width="100%"
           height="100%" />
        <use
           x="0"
           y="0"
           xlink:href="#def_pollenkorn"
           id="use1188"
           transform="translate(-95.756,-156.7)"
           width="100%"
           height="100%" />
        <use
           x="0"
           y="0"
           xlink:href="#def_pollenkorn"
           id="use1190"
           transform="translate(-73.486,-124.88)"
           width="100%"
           height="100%" />
        <use
           x="0"
           y="0"
           xlink:href="#def_pollenkorn"
           id="use1192"
           transform="translate(-117.68,-136.19)"
           width="100%"
           height="100%" />
        <use
           x="0"
           y="0"
           xlink:href="#def_pollenkorn"
           id="use1194"
           transform="translate(-111.14,-123.99)"
           width="100%"
           height="100%" />
        <use
           x="0"
           y="0"
           xlink:href="#def_pollenkorn"
           id="use1196"
           transform="translate(-106.37,-140.43)"
           width="100%"
           height="100%" />
        <use
           x="0"
           y="0"
           xlink:href="#def_pollenkorn"
           id="use1198"
           transform="translate(-80.466,-143.16)"
           width="100%"
           height="100%" />
        <use
           x="0"
           y="0"
           xlink:href="#def_pollenkorn"
           id="use1204"
           transform="translate(-95.226,-133.19)"
           width="100%"
           height="100%" />
        <use
           x="0"
           y="0"
           xlink:href="#def_pollenkorn"
           id="use1206"
           transform="translate(-96.816,-146.09)"
           width="100%"
           height="100%" />
        <use
           x="0"
           y="0"
           xlink:href="#def_pollenkorn"
           id="use1208"
           transform="translate(-121.22,-129.12)"
           width="100%"
           height="100%" />
        <use
           x="0"
           y="0"
           xlink:href="#def_pollenkorn"
           id="use8071"
           transform="translate(-54.536,-158.61)"
           width="100%"
           height="100%" />
      </g>
       <path
          transform="translate(-106,-135)"
          d="M 34.184,-63.522 -0.64127,-3.0898"
          id="forklaringslinje_pollenkorn" />
    </g>
  </g>
  <g class="responsive"
     id="pil_til_figur_pollenknapp"
     transform="rotate(74.53702,164.1103,5.1366165)"
     data-transform-default="rotate(74.53702,164.1103,5.1366165)"
     data-transform-wide="translate(72,-129) scale(0.9) rotate(45)"
     data-transform-tall="translate(124,-80) scale(-1, 1) rotate(-58)"
     >
    <circle
       style="fill:none;stroke:#000000;stroke-width:4"
       id="sirkel_til_pil_pollenknapp"
       cx="-0.17822"
       cy="-0.035298"
       r="18.03"
       class="sirkel_til_pil"
       transform="rotate(-75.074)" />
    <path
       style="fill:none;fill-opacity:1;stroke:#000000;stroke-width:3;stroke-linecap:butt;marker-end:url(#markerStoreForklaringspiler)"
       d="M 20.196,0.34821 C 52.760535,12.465163 146.50492,-21.181033 240.31,12.64"
       id="pil_pollenknapp"
       class="tykk_pil" />
  </g>
  <g class="responsive"
     id="pil_til_fig_fruktknute"
     transform="rotate(134.62414,46.7773,-21.538069)"
     data-transform-default="rotate(134.62414,46.7773,-21.538069)"
     data-transform-wide="translate(15,-50) rotate(150)"
     data-transform-tall="translate(67,0) rotate(130)">
    <circle
       style="fill:none;stroke:#000000;stroke-width:4"
       r="19.303"
       cy="-0.39754"
       cx="0.025525"
       id="sirkel_til_pil_fruktknute"
       class="sirkel_til_pil"
       transform="rotate(-135.56)" />
    <path
       style="fill:none;fill-opacity:1;stroke:#000000;stroke-width:3;stroke-linecap:butt;marker-end:url(#markerStoreForklaringspiler)"
       d="M 20.196,0.34821 C 56.609,14.248 183.72,-3.9408 240.31,12.64"
       id="pil_fruktknute"
       class="tykk_pil" />
  </g>
   <rect id="senterfirkant" x="-250" y="-250" width="500" height="500"></rect>
   <path id="senterkryss" d="M -2,0 h4 M 0,-2 v4"></path>
</svg>
