<?xml version="1.0" encoding="UTF-8"?>
<?xml-stylesheet type="text/css" href="https://lumbrikus.no/css/interactive-svg.css" ?>   
<svg
    id="SVG_let_og_finn"
    width="100%"
    height="100%"
    viewBox="-900 -600 1800 1200"
    preserveAspectRatio="xMidYMid meet"
    xmlns="http://www.w3.org/2000/svg"
    xmlns:xlink="http://www.w3.org/1999/xlink"
     version="2.0"
    
    >
    <title>Let og finn ord i bildet</title>
    <defs>
        <style type="text/css">
            <![CDATA[*/
            /*]]>*/
        </style>
    </defs>

    

    <image id="let_og_finn_bg" xlink:href="img/04-let-og-finn-bg.jpg" x="-900" y="-600" width="1800" height="1200"></image>
    
    <g id="g_active_zones" class="active_zones">
        <path id="z_roedkloever" d="m -784,-4 c 52,22 97,162 141,74 34,-69 70,-18 116,-35 70,-26 127,-166 49,-230 -79,-64 15,-122 46,-183 34,-67 152,-149 84,-215 -47,-46 -138,-6 -208,-6 -85,-0 -180,31 -242,96 -54,56 -132,113 -86,205 39,77 -61,175 10,253 25,27 60,29 87,41 z"></path>
        <path id="z_epleblomst" d="m -111,-499 c -80,-33 -123,-5 -186,5 -79,13 -132,90 -101,164 27,66 -88,79 -115,134 -28,58 -13,131 16,182 33,57 138,-67 174,17 23,56 73,132 119,45 41,-76 138,-74 211,-64 C 92,-0 113,-72 140,-138 166,-202 268,-283 194,-337 132,-382 96,-423 58,-487 21,-548 -61,-477 -111,-499 Z"></path>
        <path id="z_prestekrage" d="m 449,-543 c -72,-4 -186,101 -114,153 81,58 -7,141 91,185 97,43 64,182 125,253 80,93 117,-93 146,-151 38,-78 184,-111 148,-215 -20,-57 -118,-26 -90,-123 24,-85 -122,-86 -187,-116 -38,-17 -78,16 -118,14 z"></path>
        <path id="z_haargullbasse" d="m 512,-555 c 63,1 197,-23 183,80 -6,45 3,82 -69,112 -103,43 -42,-120 -114,-54 -69,63 -24,-33 -26,-69 -1,-26 5,-69 26,-68 z M 156,248 C 90,202 -14,323 62,372 c 54,34 166,25 136,-69 -7,-22 -26,-43 -41,-54 z"></path>
        <path id="z_geitrams" d="M 715,617 C 709,538 717,441 649,387 590,340 545,280 507,216 452,126 627,89 617,-7 609,-88 640,-152 656,-232 c 17,-90 21,-187 68,-265 55,-92 56,107 95,149 79,84 120,202 131,316 9,94 62,181 28,277 -29,82 -66,164 -132,222 -53,46 -21,188 -112,168 -13,-2 -18,-6 -19,-18 z"></path>
        <path id="z_blaabaerblomst" d="M 392,651 C 365,567 311,499 281,415 c -30,-84 -61,-196 27,-249 94,-56 133,75 200,113 91,52 107,174 66,263 -29,63 -78,160 -162,125 -6,-2 -18,-4 -21,-16 z"></path>
        <path id="z_smoerblomst" d="M -53,569 C 0,506 26,414 -31,344 -79,286 -119,274 -189,280 c -69,5 -157,68 -137,176 15,82 19,86 -1,176 -3,13 31,22 35,9 40,-114 166,11 238,-72 z"></path>
        <path id="z_blomsterflue" d="m -378,435 c 20,-42 90,-26 133,-46 26,-12 42,-60 75,-45 48,22 2,61 1,92 -1,50 35,88 9,139 -8,16 -29,14 -43,2 -20,-17 -10,-47 -34,-59 -14,-6 -27,13 -46,3 -25,-13 -9,-38 -24,-49 -18,-13 -37,16 -56,4 -11,-7 -20,-27 -14,-39 z"></path>
        <path id="z_fuglevikke" d="m -578,409 c 118,-59 90,-156 0,-122 -77,29 153,-101 60,-200 -51,-54 -115,-43 -173,16 -51,53 -253,71 -153,165 61,58 131,83 140,197 4,64 -28,155 39,134 38,-11 30,-152 85,-191 z"></path>
        <path id="z_meitemarkbaesj" d="m 166,489 c 22,-17 50,20 67,11 36,-19 54,15 48,43 -5,23 -38,43 -68,17 -16,-14 -29,-0 -44,-8 -27,-12 -18,-50 -1,-64 z M -767,388 c 49,33 -14,64 1,69 9,2 20,-0 32,10 38,35 3,77 -36,61 -20,-8 -6,-13 -26,-26 -10,-6 -19,17 -45,12 -25,-5 -30,-25 -25,-45 7,-26 37,-16 34,-31 -8,-47 21,-78 64,-49 z"></path>
        <path id="z_humle" d="m -540,-589 c 54,49 253,-21 178,74 -38,49 -33,66 -61,109 -25,40 -60,7 -99,3 -68,-6 -1,-34 -53,-72 -22,-15 -13,-43 -3,-56 12,-17 -19,-112 39,-58 z m 300,208 c -16,-79 -84,-58 -105,10 -24,78 -29,164 -111,211 -56,32 -79,173 20,145 60,-17 110,-100 169,-16 40,57 102,31 158,21 52,-8 30,-86 62,-144 31,-56 -44,-59 -81,-121 -45,-75 87,-12 23,-74 -40,-39 -123,34 -136,-30 z m -46,589 c 7,47 5,43 -17,94 -11,26 41,14 70,44 76,81 106,-90 172,-24 40,40 177,85 143,-26 C 72,263 63,230 74,192 90,130 113,120 87,56 62,-3 -21,8 -28,-26 -39,-87 -63,-141 -90,-129 -170,-88 -131,42 -232,9 c -58,-19 -30,47 -93,64 -78,20 24,50 38,135 z m 591,244 c 11,-24 53,-21 78,-34 37,-19 40,-36 70,-44 24,-7 67,6 88,2 59,-11 105,-39 92,34 -9,54 -57,50 -18,116 32,54 -40,69 -85,77 -24,4 -70,-4 -111,-2 -98,3 20,-53 -58,-74 -26,-6 -66,-50 -54,-74 z M 880,-55 C 937,-3 899,171 805,169 732,168 657,72 714,3 753,-44 830,-100 880,-55 Z M -726,447 c -1,-13 16,-18 28,-21 12,-2 26,3 36,-3 12,-7 10,-24 28,-32 13,-5 27,-0 41,0 15,0 25,-14 40,-18 12,-3 27,-8 39,-2 11,12 -0,45 -6,56 -7,12 -18,24 -33,24 -11,0 -13,10 -8,20 7,14 11,66 -14,47 -8,-6 -5,-21 -19,-18 -18,6 -2,50 -26,32 -13,-10 -14,-32 -22,-47 -8,-4 -24,0 -32,-1 -14,-7 -47,-22 -49,-35 z"></path>
    </g>
    
    <g id="g_ord">
        <text class="ord" id="t_roedkloever" x="-757" y="-164" dy="20">rødkløver</text>
        <text class="ord" id="t_epleblomst" x="-56" y="-409" dy="20">epleblomst</text>
        <text class="ord" id="t_prestekrage" x="414" y="-358" dy="20">prestekrage</text>
        <text class="ord" id="t_haargullbasse" x="600" y="-570" dy="20">hårgullbasse</text>
        <use xlink:href="#t_haargullbasse" x="-450" y="810"></use>
        <text class="ord" id="t_geitrams" x="770" y="-150" dy="20">geitrams</text>
        <text class="ord" id="t_blaabaerblomst" x="355" y="298" dy="20">blåbærblomst</text>
        <text class="ord" id="t_smoerblomst" x="23" y="416" dy="20">smørblomst</text>
        <text class="ord" id="t_blomsterflue" x="-344" y="338" dy="20">blomsterflue</text>
        <text class="ord" id="t_fuglevikke" x="-691" y="319" dy="20">fuglevikke</text>
        <text class="ord" id="t_meitemarkbaesj" x="-750" y="560" dy="20">meitemarkbæsj</text>
        <text class="ord" id="t_humle" x="100" y="90" dy="20">humle</text>
        <use xlink:href="#t_humle" x="660" y="60"></use>
        <use xlink:href="#t_humle" x="520" y="460"></use>
        <use xlink:href="#t_humle" x="-300" y="-300"></use>
        <use xlink:href="#t_humle" x="-300" y="-300"></use>
        <use xlink:href="#t_humle" x="-470" y="-570"></use>
        <use xlink:href="#t_humle" x="-600" y="370"></use>
    </g>
    
    <g id="g_ord_clones">
        <!--<use class="ord bg" xlink:href="#t_ord1"></use>
        <use class="ord fg" xlink:href="#t_ord1"></use> -->   
    </g>
    
    <script type="text/javascript" xlink:href="https://lumbrikus.no/js/libs/snap.svg-min.js"></script>
    <script type="text/javascript" xlink:href="https://lumbrikus.no/js/let-og-finn.js"></script>
    <!--<script type="text/javascript" xlink:href="https://lumbrikus.no/js/add-svg-words.js"></script>-->
</svg>
