<?xml version="1.0" encoding="UTF-8"?>
<?xml-stylesheet type="text/css" href="https://lumbrikus.no/css/interactive-svg.css" ?>   
<svg
    id="SVG_let_og_finn"
    width="100%"
    height="100%"
    viewBox="-900 -600 1800 1200"
    preserveAspectRatio="xMidYMid meet"
    xmlns="http://www.w3.org/2000/svg"
    xmlns:xlink="http://www.w3.org/1999/xlink"
     version="2.0"
    
    >
    <title>Let og finn ord i bildet</title>
    <defs>
        <style type="text/css">
            <![CDATA[*/
            /*]]>*/
        </style>
    </defs>

    

    <image id="let_og_finn_bg" xlink:href="img/05-let-og-finn-bg.jpg" x="-900" y="-600" width="1800" height="1200"></image>
    
    <g id="g_active_zones" class="active_zones">
        <path id="z_blaaklokke" d="m 117,-308 c -13,12 22,55 30,76 43,35 -22,55 -31,92 -39,43 41,41 61,68 3,24 -20,64 -21,96 13,-5 52,-44 79,-59 25,-19 54,-34 87,-38 49,-2 102,-16 135,-55 12,-5 31,-4 39,7 18,38 22,81 32,123 14,44 19,91 21,137 -1,11 -1,23 -1,35 -13,-34 -43,-61 -73,-83 -35,-23 -67,-51 -95,-83 -23,-57 -40,17 -44,43 -22,18 -66,5 -95,20 -20,36 28,93 -20,106 -32,21 -67,52 -80,88 35,-4 73,0 108,12 42,13 84,28 120,55 38,28 88,43 135,29 50,-13 35,54 50,81 13,55 32,109 35,166 l 64,-0 c -7,-58 2,-149 -6,-208 -4,-64 -13,-127 -21,-191 -3,-57 -10,-114 -20,-172 -16,-70 -27,-141 -49,-210 -7,-41 -53,-46 -78,-71 -28,-36 -78,-40 -121,-39 -81,6 -163,-4 -241,-27 z"></path>
        <path id="z_tunge" d="m -88,-125 c 16,20 49,65 51,99 0,13 -3,27 -17,29 -4,0 -8,-1 -7,-5 0,-6 8,-8 9,-14 5,-37 -40,-63 -52,-100 -1,-5 12,-13 16,-8 z"></path>
        <path id="z_oeye" d="m -151,-224 c 51,15 51,52 53,73 2,22 -37,-8 -55,-25 -18,-17 -12,-51 1,-47 z"></path>
        <path id="z_antenne" d="m -118,-209 c 4,-42 78,-86 115,-76 19,5 -32,15 -48,26 -12,8 37,-12 40,-1 2,10 -32,9 -59,23 -39,19 -48,39 -46,27 z"></path>
        <path id="z_pels_med_gult_pollen" d="m -229,-208 c 3,4 6,-3 7,-6 1,1 6,5 9,0 2,-2 1,-7 4,-8 2,4 8,0 9,-3 1,-2 -0,-7 3,-5 3,-1 6,-5 6,-9 1,-1 6,-0 6,-4 3,-2 0,-8 6,-9 3,-3 4,-8 3,-12 1,-3 -2,-1 -3,-2 0,-3 -0,-10 -5,-8 -2,1 -4,3 -4,-0 -0,-4 -6,-6 -9,-2 0,-3 -4,-8 -7,-4 0,-3 -4,-7 -7,-5 -1,0 -3,3 -3,-0 -2,-3 -7,-5 -10,-3 -1,2 -3,5 -6,1 -3,-3 -8,1 -9,4 -2,-4 -9,-1 -10,3 1,4 -3,-2 -5,2 -2,2 -3,6 -1,10 -2,-5 -6,3 -4,6 -1,3 1,8 1,10 -1,4 -2,10 0,15 3,-0 4,2 3,6 0,4 2,8 7,9 2,2 -0,6 0,10 0,3 6,1 4,5 0,3 7,1 7,6 1,1 6,-0 7,-2 z"></path>
        <path id="z_framvinge" d="m -257,-226 c 6,3 -16,20 -23,17 -131,-49 -220,-33 -290,-64 -40,-17 -51,-60 -70,-113 -7,-19 -1,-39 19,-42 142,-20 223,133 365,202 z"></path>
        <path id="z_bakvinge" d="m -288,-199 c 11,7 20,-9 10,-13 -99,-42 -199,-51 -252,-56 -21,-2 -38,20 -28,28 83,66 232,17 270,41 z"></path>
        <path id="z_gul_pels" d="m -311,-204 c 4,2 12,4 11,9 -0,4 -8,-0 -12,-1 -3,-0 1,7 2,10 2,5 -2,12 -8,10 -2,-0 -3,-7 -3,-1 0,5 -1,13 -7,13 -4,-0 -5,-6 -8,-10 -3,-4 0,6 -0,9 -2,6 -11,4 -10,-1 0,-2 -0,-9 -3,-3 -1,4 -11,11 -13,3 -0,-2 2,-6 -0,-7 -2,-1 -8,8 -7,1 0,-2 4,-11 -0,-6 -3,3 -8,1 -4,-3 1,-2 7,-6 1,-4 -3,1 -7,-1 -2,-4 2,-0 6,-2 1,-2 -4,0 -11,-6 -3,-6 1,0 7,0 5,-0 -3,-1 -10,-5 -3,-7 3,-0 10,2 9,-0 -0,-5 -0,-7 3,-3 3,4 1,-0 4,-3 2,-2 7,5 8,-1 0,-3 10,9 9,1 -0,-6 3,-2 5,-0 3,3 1,-5 4,-1 2,3 3,-1 7,-0 4,1 3,2 7,0 3,-1 7,0 5,5 -0,3 2,4 2,6 m -89,13 c -8,0 -14,-22 -21,-17 -4,3 6,20 -2,9 -6,-8 -19,-10 -10,3 5,8 -14,-7 -21,-5 -7,3 20,20 4,15 -8,-2 -26,0 -12,8 7,4 -19,8 -4,11 12,2 -14,15 -4,18 7,2 25,-8 25,-0 -0,5 -11,14 -0,9 9,-4 17,-7 12,7 -2,6 23,-13 24,-5 1,6 -8,14 1,8 4,-2 21,-9 11,1 -10,10 11,2 16,0 8,-1 -13,13 0,8 7,-2 23,-2 10,-12 -5,-4 13,-5 3,-10 -5,-2 -14,-4 -3,-10 5,-3 -17,-6 -10,-18 2,-4 -14,-2 -6,-11 3,-4 -9,0 -3,-7 4,-6 -0,-4 -6,-4 z"></path>
        <path id="z_svart_pels" d="m -470,-150 c -13,-1 -28,5 -37,15 -4,5 17,-3 7,5 -4,3 -20,18 -13,17 20,-3 -6,24 11,14 5,-3 15,-3 8,4 -7,8 -2,18 7,8 4,-3 15,-8 8,1 -6,8 -1,14 6,6 5,-5 10,-3 7,4 -2,6 -1,16 6,7 12,-13 3,17 8,15 5,-2 14,-21 12,-7 -1,6 3,16 6,6 1,-4 8,-23 7,-8 -0,6 2,17 4,4 1,-14 7,-31 22,-35 12,-3 23,-8 34,-15 12,-7 -1,-20 -11,-17 -6,2 -5,-1 -8,-4 -4,-4 -21,11 -14,-3 2,-5 -25,5 -21,-0 11,-14 -25,-0 -12,-8 15,-10 -17,-2 -13,-6 11,-13 -23,1 -17,-5 3,-3 -6,-0 -9,-0 z"></path>
        <path id="z_hvit_pels" d="m -503,-109 c 0,-5 -11,5 -15,10 -3,4 -8,12 -3,17 5,6 -2,13 -4,19 -1,6 -3,12 -6,18 -2,6 -4,13 -2,20 2,6 3,13 5,20 2,7 7,13 12,20 3,5 10,7 16,8 8,2 17,2 25,7 4,2 11,7 17,4 4,-2 5,-2 12,-2 5,0 9,-2 14,-5 5,-3 9,-7 5,-12 -2,-3 -1,-8 -0,-12 0,-6 -0,-12 1,-19 1,-6 6,-12 5,-19 -1,-7 2,-19 -5,-22 -3,-1 -9,6 -8,-1 0,-6 -4,-8 -8,-3 -6,8 -2,-12 -10,-7 -3,2 -8,7 -8,-0 0,-9 -9,0 -12,-1 -2,-3 1,-9 -0,-12 -2,-3 -9,-1 -9,-8 -0,-4 -5,-3 -7,-8 -1,-3 -6,0 -6,-4 -0,-1 -4,-0 -4,-3 0,0 0,0 0,0 z"></path>
        <path id="z_brodd" d="m -463,27 c 15,-4 32,-9 47,-2 -5,10 -10,24 -17,34 -11,13 -22,14 -39,6 -8,-7 -12,-14 -9,-28 3,15 41,28 14,-3 -1,-3 -0,-4 2,-6 z"></path>
        <path id="z_bein_med_gult_pollen" d="m -381,32 c 4,27 4,57 -10,82 -7,16 -15,38 -35,39 -12,5 -34,-0 -23,-17 10,-10 26,-16 30,-32 7,-17 3,-35 -0,-53 -2,-13 1,-34 18,-36 10,-1 20,5 22,15 z m 128,-106 c -5,26 -41,24 -50,48 6,12 15,28 13,45 0,15 -10,30 -6,45 0,16 -8,37 6,50 12,8 30,7 40,21 6,22 -21,16 -33,9 -17,-8 -33,-19 -46,-34 -15,-22 -4,-50 -7,-76 0,-22 -7,-45 2,-66 7,-19 21,-41 45,-42 11,-2 27,-13 36,-0 z"></path>
    </g>
    
    <g id="g_ord">
        <text class="ord" id="t_blaaklokke" x="259" y="344" dy="20">blåklokke</text>
        <text class="ord" id="t_tunge" x="2" y="66" dy="20">tunge</text>
        <text class="ord" id="t_oeye" x="39" y="-188" dy="20">øye</text>
        <text class="ord" id="t_antenne" x="140" y="-334" dy="20">antenne</text>
        <text class="ord" id="t_pels_med_gult_pollen" x="-221" y="-415" dy="20">pels med gult pollen</text>
        <text class="ord" id="t_framvinge" x="-586" y="-504" dy="20">framvinge</text>
        <text class="ord" id="t_bakvinge" x="-713" y="-266" dy="20">bakvinge</text>
        <text class="ord" id="t_gul_pels" x="-677" y="-197" dy="20">gul pels</text>
        <text class="ord" id="t_svart_pels" x="-694" y="-132" dy="20">svart pels</text>
        <text class="ord" id="t_hvit_pels" x="-668" y="-48" dy="20">hvit pels</text>
        <text class="ord" id="t_brodd" x="-579" y="97" dy="20">brodd</text>
        <text class="ord" id="t_bein_med_gult_pollen" x="-373" y="213" dy="20">bein med gult pollen</text>
    </g>
    
    <g id="g_ord_clones">
           
    </g>
    
    <script type="text/javascript" xlink:href="https://lumbrikus.no/js/libs/snap.svg-min.js"></script>
    <script type="text/javascript" xlink:href="https://lumbrikus.no/js/let-og-finn.js"></script>
    <!--<script type="text/javascript" xlink:href="https://lumbrikus.no/js/add-svg-words.js"></script>-->
</svg>
