<?xml version="1.0" encoding="UTF-8"?>
<?xml-stylesheet type="text/css" href="https://lumbrikus.no/css/interactive-svg.css" ?>   
<svg
    id="SVG_let_og_finn"
    width="100%"
    height="100%"
    viewBox="-900 -600 1800 1200"
    preserveAspectRatio="xMidYMid meet"
    xmlns="http://www.w3.org/2000/svg"
    xmlns:xlink="http://www.w3.org/1999/xlink"
     version="2.0"
    
    >
    <title>Let og finn ord i bildet</title>
    <defs>
        <style type="text/css">
            <![CDATA[*/
            /*]]>*/
        </style>
    </defs>

    

    <image id="let_og_finn_bg" xlink:href="img/06-let-og-finn-bg.jpg" x="-900" y="-600" width="1800" height="1200"></image>
    
    <g id="g_active_zones" class="active_zones">
        <path id="z_jord" d="M 710,-84 C 567,-119 439,-29 333,54 230,134 96,203 -35,176 -160,150 -320,203 -411,109 -473,46 -321,7 -278,-37 c 61,-62 100,-146 208,-136 182,16 360,79 547,35 96,-22 284,-88 325,15 17,44 -57,46 -92,37 z"></path>
        <path id="z_erteplante" d="m -384,-606 c -0,9 7,57 -7,39 -11,-13 -21,-42 -37,-35 -13,6 1,30 3,45 2,17 6,34 14,50 9,18 21,35 27,55 4,15 4,31 2,46 -2,20 -0,39 -1,60 -1,21 -12,34 -24,49 -1,1 -2,2 -2,4 -0,0 -1,1 -1,2 -17,35 -21,55 -66,68 -57,15 -120,-16 -174,14 -34,19 -71,58 -55,98 17,42 77,-49 78,-16 1,25 -70,57 -29,76 18,8 87,-55 66,-14 -17,33 -7,91 26,52 31,-36 58,68 82,14 19,-42 -37,-75 -10,-123 20,-36 67,-101 96,-74 30,29 -80,64 -46,112 20,27 57,-23 75,-41 19,-19 69,-34 50,6 -20,42 -69,59 -106,87 -28,22 -53,61 -91,61 -36,-0 -70,-20 -107,-26 -36,-5 -96,-17 -112,20 -19,45 62,31 93,42 41,15 94,11 125,44 27,27 43,71 86,78 32,5 81,14 86,51 5,36 -57,91 -14,112 40,20 33,-67 71,-71 64,-6 -32,-64 -6,-74 36,-14 79,-2 119,-3 38,-1 77,4 116,4 32,0 -41,-23 -53,-29 -24,-11 -23,-17 -53,-39 -31,-23 -73,39 -114,29 -30,-7 -104,0 -92,-26 17,-40 102,20 128,-19 20,-31 -63,-29 -88,-29 -35,0 -95,49 -115,4 -15,-36 26,-58 53,-75 39,-25 78,-56 122,-72 39,-14 -7,58 15,81 32,31 21,-73 53,-25 10,16 7,100 30,61 15,-26 17,-52 49,-30 33,22 109,48 123,7 C 8,19 -74,34 -103,15 c -44,-29 34,-28 53,-26 42,4 39,-61 -1,-35 -22,14 -6,-39 -34,-11 -24,25 -62,57 -96,27 -34,-30 79,-19 58,-54 -10,-18 -31,-1 -51,9 3,-5 5,-13 4,-24 -3,-23 12,-106 34,-70 11,19 -19,83 20,47 14,-13 21,71 42,33 11,-20 5,-17 25,-26 17,-8 -48,-73 -19,-54 20,14 70,76 60,28 -10,-52 37,-4 61,-9 23,-5 94,-2 77,-25 -13,-16 -41,12 -23,-24 14,-29 -48,2 -72,-2 -14,-3 -79,-10 -34,-11 32,-1 25,-23 -2,-19 -33,4 -68,0 -101,10 -16,4 -67,5 -28,-9 24,-9 30,-36 -0,-18 -33,20 -88,20 -117,-6 -7,-7 -15,-10 -21,-13 -11,-9 -24,-20 -30,-34 -0,-1 -0,-2 -0,-3 -0,-1 -0,-3 -1,-4 -2,-10 -3,-20 -3,-31 0,-8 1,-16 2,-24 2,-25 -3,-50 -0,-75 1,-16 0,-34 -0,-50 -0,-18 -20,-42 -6,-56 16,-16 34,19 49,28 19,11 42,6 63,4 19,-1 38,-11 48,-30 10,-18 20,-37 20,-58 z m 169,493 c 3,0 7,5 9,17 1,15 9,23 17,25 -12,3 -24,1 -31,-19 -4,-13 -0,-24 5,-23 z"></path>
        <path id="z_en_gang" d="M 935,539 C 875,468 775,462 695,424 580,370 464,316 339,285 209,252 92,170 -47,168 -123,167 -200,161 -276,159 -335,158 -483,107 -404,41 c 58,-47 143,-62 176,-139 28,-67 113,-63 175,-66 149,-7 291,64 441,45 99,-13 195,-47 296,-51 73,-2 54,-75 -10,-70 -86,6 -191,3 -288,4 -5,0 10,-71 -6,-71 -16,0 -68,1 -84,2 -14,0 -12,81 -26,82 -89,5 -132,-14 -221,-21 -113,-9 -244,5 -325,93 -45,49 -80,109 -141,142 -55,29 -128,90 -88,155 36,60 127,69 195,78 78,9 159,-8 236,15 C 51,279 181,312 303,366 448,428 607,463 737,554 c 58,40 131,103 203,63 30,-17 11,-57 -5,-77 z"></path>
        <path id="z_rot" d="m -410,-290 c -17,35 -21,55 -66,68 -57,15 -120,-16 -174,14 -34,19 -71,58 -55,98 17,42 77,-49 78,-16 1,25 -70,57 -29,76 18,8 87,-55 66,-14 -17,33 -7,91 26,52 31,-36 58,68 82,14 19,-42 -37,-75 -10,-123 20,-36 67,-101 96,-74 30,29 -80,64 -46,112 20,27 57,-23 75,-41 19,-19 69,-34 50,6 -20,42 -69,59 -106,87 -28,22 -53,61 -91,61 -36,-0 -70,-20 -107,-26 -36,-5 -96,-17 -112,20 -19,45 62,31 93,42 41,15 94,11 125,44 27,27 43,71 86,78 32,5 81,14 86,51 5,36 -57,91 -14,112 40,20 33,-67 71,-71 64,-6 -32,-64 -6,-74 36,-14 79,-2 119,-3 38,-1 77,4 116,4 32,0 -41,-23 -53,-29 -24,-11 -23,-17 -53,-39 -31,-23 -73,39 -114,29 -30,-7 -104,0 -92,-26 17,-40 102,20 128,-19 20,-31 -63,-29 -88,-29 -35,0 -95,49 -115,4 -15,-36 26,-58 53,-75 39,-25 78,-56 122,-72 39,-14 -7,58 15,81 32,31 21,-73 53,-25 10,16 7,100 30,61 15,-26 17,-52 49,-30 33,22 109,48 123,7 9,-27 -73,-11 -102,-30 -44,-29 34,-28 53,-26 42,4 39,-61 -1,-35 -22,14 -6,-39 -34,-11 -24,25 -62,57 -96,27 -34,-30 79,-19 58,-54 -19,-34 -76,55 -97,-3 -8,-23 10,-36 14,-5 4,36 40,32 35,-5 -3,-23 12,-106 34,-70 11,19 -19,83 20,47 14,-13 21,71 42,33 11,-20 5,-17 25,-26 17,-8 -48,-73 -19,-54 20,14 70,76 60,28 -10,-52 37,-4 61,-9 23,-5 94,-2 77,-25 -13,-16 -41,12 -23,-24 14,-29 -48,2 -72,-2 -14,-3 -79,-10 -34,-11 32,-1 25,-23 -2,-19 -33,4 -68,0 -101,10 -16,4 -67,5 -28,-9 24,-9 30,-36 -0,-18 -33,20 -88,20 -117,-6 -25,-24 -48,-9 -52,-51 -2,-23 -97,-4 -110,23 z"></path>
        <path id="z_rhisobium_bor_i_denne_knollen" d="m -219,-270 c -34,-3 -57,43 -31,68 6,12 37,10 17,31 -13,44 41,68 73,43 32,-22 11,-81 -29,-74 21,-24 2,-67 -29,-68 z M 100,-241 c -30,1 -45,30 -74,12 -40,1 -49,63 -13,79 28,15 49,-14 77,-3 38,-6 73,-64 25,-84 -4,-2 -9,-2 -14,-3 z m -708,3 c -38,-4 -42,48 -34,65 -31,5 -73,36 -55,73 10,33 59,37 76,6 16,-15 26,-42 11,-62 36,9 64,-37 40,-65 -8,-13 -24,-15 -38,-17 z m 530,50 c -36,1 -51,55 -20,75 32,24 73,-18 55,-52 -5,-14 -19,-22 -34,-23 z m -381,42 c 1,0 0,0 0,0 z m 1,0 c -40,-6 -60,57 -19,70 36,20 74,-29 45,-59 -6,-6 -16,-11 -25,-11 z m 371,69 c -41,1 -77,57 -33,83 26,13 47,-5 74,7 39,0 51,-58 16,-75 -21,-2 -36,-12 -57,-15 z m 2,18 h 0 z m -97,33 c -38,0 -54,53 -26,77 25,29 74,4 72,-32 2,-25 -20,-47 -45,-45 z M -339,240 c -47,-1 -56,72 -9,82 44,25 89,-38 49,-71 -10,-10 -26,-8 -40,-11 z"></path>
        <path id="z_jord2" d="m -897,536 c 10,-36 48,-11 50,22 3,54 71,4 68,-32 -2,-37 55,-22 67,3 16,39 46,28 83,45 28,12 60,20 83,-8 24,-29 65,-7 100,-5 31,1 54,10 88,11 43,0 35,-28 43,-52 11,-35 71,-53 93,-21 19,27 42,35 74,40 30,4 64,-0 82,-28 15,-23 59,-28 78,-2 17,23 53,45 41,75 -14,35 -73,5 -107,9 -34,3 -68,11 -104,7 -33,-3 -65,-8 -99,-8 -37,0 -74,-0 -112,-0 -39,-0 -78,-8 -115,4 -59,21 -122,1 -183,-1 -42,-1 -85,3 -128,6 -32,1 -73,10 -99,-14 -12,-12 -10,-32 -6,-47 z"></path>
        <path id="z_loepebille" d="m -8,449 c 13,43 -29,87 -61,108 -28,19 -111,23 -117,-21 -5,-42 31,-90 70,-105 26,-10 97,-16 108,18 z M 816,384 c -50,-8 -106,15 -133,59 -28,47 -6,124 52,135 51,9 111,-12 139,-56 26,-42 14,-111 -32,-134 -8,-4 -17,-2 -26,-3 z"></path>
        
        <path id="z_kokong" d="m 344,582 c 10,-26 35,-44 61,-45 29,-1 57,6 87,0 26,-5 60,-11 82,8 19,17 3,49 -18,60 -27,14 -58,19 -89,14 -22,-3 -44,-0 -67,-1 -18,-0 -69,-4 -56,-36 z"></path>
        <path id="z_skolopenderen_spiser_en_meitemark" d="m 484,200 c -18,37 -26,78 -39,117 -11,33 7,92 46,55 39,-36 55,27 76,49 28,28 58,-5 62,-36 7,-55 35,-107 76,-147 42,-41 83,-84 129,-122 C 886,75 952,46 982,-11 1002,-50 940,-82 903,-78 823,-70 758,-19 685,7 592,41 525,115 484,200 Z"></path>
        <path id="z_meitemark_i_hvilerom" d="m -618,442 c -6,-12 -14,-24 -19,-38 -4,-15 -7,-33 -4,-49 3,-22 16,-43 31,-60 9,-11 21,-20 35,-27 19,-9 40,-19 62,-15 15,2 31,6 45,13 24,12 45,31 61,54 14,21 27,44 33,69 6,23 10,47 8,71 -1,19 -3,41 -16,57 -14,18 -37,27 -60,32 -14,3 -29,5 -44,6 -16,0 -32,-2 -46,-8 -14,-5 -27,-13 -38,-24 -12,-11 -26,-23 -30,-40 -3,-14 -10,-28 -17,-41 z"></path>
        <path id="z_jenny" d=""></path>
        <path id="z_samir" d=""></path>
        <path id="z_katt" d=""></path>
        <path id="z_hen" d=""></path>
    </g>
    
    <g id="g_ord">
        
        <text class="ord" id="t_erteplante" x="-346" y="-463" dy="20">erteplante</text>
        <text class="ord" id="t_rot" x="-338" y="-35" dy="20">rot</text>
        <text class="ord" id="t_rhisobium_bor_i_denne_knollen" x="0" y="-400" dy="20">rhisobium bor i denne knollen</text>
        <text class="ord" id="t_jord" x="-75" y="90" dy="20">jord</text>
        <text class="ord" id="t_jord2" x="-266" y="540" dy="20">jord</text>
        <text class="ord" id="t_loepebille" x="-80" y="370" dy="20">løpebille</text>
        
        <use xlink:href="#t_loepebille" x="850" y="0"></use>
        
        <text class="ord" id="t_skolopenderen_spiser_en_meitemark" x="500" y="118" dy="20"><tspan x="500" y="118" dy="0">skolopenderen</tspan><tspan x="500" y="118" dy="50">spiser</tspan><tspan x="500" y="118" dy="100">en meitemark</tspan></text>
        <text class="ord" id="t_meitemark_i_hvilerom" x="-600" y="250" dy="20">meitemark i hvilerom</text>
        <text class="ord" id="t_kokong" x="240" y="556" dy="20">kokong</text>
        <text class="ord" id="t_en_gang" x="547" y="432" dy="20">en gang</text>
        <text class="ord" id="t_jenny" x="95" y="232" dy="20">Jenny</text>
        <text class="ord" id="t_samir" x="159" y="276" dy="20">Samir</text>
        <text class="ord" id="t_katt" x="257" y="329" dy="20">Katt</text>
        <text class="ord" id="t_hen" x="342" y="355" dy="20">Hen</text>
    </g>
    
    <g id="g_ord_clones">
           
    </g>
    
    <script type="text/javascript" xlink:href="https://lumbrikus.no/js/libs/snap.svg-min.js"></script>
    <script type="text/javascript" xlink:href="https://lumbrikus.no/js/let-og-finn.js"></script>
    <!--<script type="text/javascript" xlink:href="https://lumbrikus.no/js/add-svg-words.js"></script>-->
</svg>
