<?xml version="1.0" encoding="UTF-8"?>
<?xml-stylesheet type="text/css" href="https://lumbrikus.no/css/interactive-svg.css" ?>   
<svg
    id="SVG_let_og_finn"
    width="100%"
    height="100%"
    viewBox="-900 -600 1800 1200"
    preserveAspectRatio="xMidYMid meet"
    xmlns="http://www.w3.org/2000/svg"
    xmlns:xlink="http://www.w3.org/1999/xlink"
     version="2.0"
    
    >
    <title>Let og finn ord i bildet</title>
    <defs>
        <style type="text/css">
            <![CDATA[*/
            /*]]>*/
        </style>
    </defs>

    

    <image id="let_og_finn_bg" xlink:href="img/07-let-og-finn-bg.jpg" x="-900" y="-600" width="1800" height="1200"></image>
    
    <g id="g_active_zones" class="active_zones">
        <path id="z_stjernehimmel" d="m -884,347 1765,40 v -976 H -884 Z"></path>
        <path id="z_jord" d="M 893,532 C 847,455 719,492 632,485 557,479 481,472 406,456 c -76,-16 -55,113 -21,130 101,49 222,3 335,6 58,1 229,34 172,-60 z"></path>
        <path id="z_erteplante" d="m -23,-630 c 73,15 92,126 20,165 -32,17 -127,91 -105,13 14,-50 160,-77 74,-140 -66,-48 -135,-14 -178,55 -35,57 -112,73 -97,157 13,78 4,162 59,229 52,62 -56,118 -33,171 18,44 58,1 76,-41 36,-88 157,4 189,60 44,78 -109,7 -113,42 -10,97 -150,33 -150,76 0,94 -43,186 26,264 51,57 143,32 214,45 C 29,482 187,430 153,538 135,596 46,509 15,594 -11,669 -140,620 -212,677 c -77,62 -31,-133 -102,-59 -38,40 -230,31 -153,-44 25,-25 87,-52 16,-41 -70,10 -190,173 -190,74 0,-119 -109,88 -100,-9 6,-71 152,-43 77,-133 -54,-65 72,14 101,20 76,14 134,-13 168,-108 36,-101 -52,-168 -9,-238 37,-61 33,-123 -34,-167 -51,-33 -90,-45 -109,14 -11,39 -95,11 -46,70 69,82 -93,107 -92,15 0,-59 -34,-105 -39,-161 -2,-29 88,-91 18,-62 -65,26 -123,-46 -41,-49 59,-2 120,-60 164,-99 41,-36 56,77 112,22 24,-23 79,-6 29,-58 -42,-44 60,-78 7,-157 -45,-66 5,-202 93,-235 87,-33 144,77 234,84 29,2 56,9 85,15 z"></path>
        <path id="z_rot" d="m -401,408 c 71,-66 131,27 193,21 96,-7 192,26 289,17 80,-7 132,96 28,99 -60,2 -106,50 -177,46 -95,-5 -190,-0 -285,6 -34,2 -150,21 -85,-32 62,-51 -65,-19 -92,0 -57,42 -222,77 -224,1 -1,-56 59,-66 81,-132 22,-68 124,61 192,2 21,-18 58,-12 79,-32 z"></path>
        <path id="z_baesj_fra_meitemark" d="m -292,380 c 0,-12 15,-19 27,-19 11,0 16,14 29,3 9,-8 33,-5 35,9 4,21 20,3 32,1 17,-3 23,22 33,19 14,-4 23,-18 38,-19 15,-1 22,14 36,21 11,5 25,-9 38,-9 14,0 33,22 38,19 14,-10 30,-15 45,-19 19,-4 38,-0 56,8 12,6 22,16 19,31 -2,12 -7,27 -22,30 -16,4 -34,-0 -50,2 -18,2 -39,9 -54,-1 -12,-9 -16,2 -29,1 -16,-0 -35,8 -48,-2 -8,-7 -10,10 -22,11 -19,1 -38,-4 -49,-18 -11,-14 -16,10 -31,6 -13,-4 -33,-5 -40,-20 -5,-11 -23,7 -35,-4 -8,-8 -2,-23 -19,-15 -13,6 -28,-11 -26,-25 0,-3 -0,-6 0,-9 z"></path>
        <path id="z_klatretraader" d="m -722,-27 c -20,66 34,179 111,171 114,-11 -3,-133 -46,-174 -17,-17 -57,-20 -65,3 z m 526,-28 c 54,-34 120,1 161,42 C 18,41 3,124 -86,96 -147,78 -256,65 -217,-24 c 8,-19 2,-19 21,-32 z M -464,-249 c -51,-39 -106,-57 -185,-24 -60,25 -215,44 -157,122 60,80 146,-58 229,-61 27,-1 175,12 113,-35 z m 54,-57 c -14,-38 -29,-163 23,-109 42,43 77,162 25,196 -41,26 -35,-53 -48,-87 z M 25,-621 c 74,61 30,158 -44,204 -75,46 -183,-47 -74,-80 70,-21 59,-80 73,-131 5,-19 30,-4 44,7 z"></path>
        <path id="z_kuler_hvor_rhisobium_bor" d="m 121,451 c -21,-3 -34,24 -49,23 -25,-10 -51,12 -51,38 -3,26 21,52 48,46 16,-4 26,-16 44,-10 34,-2 61,-43 45,-75 -6,-15 -21,-22 -37,-22 z M -154,519 c -30,-2 -58,30 -45,59 16,36 77,34 92,-3 11,-28 -18,-58 -46,-56 z"></path>
        <path id="z_hodelykt" d="m -227,286 c -23,-3 -44,25 -30,46 14,21 57,16 60,-11 1,-17 -13,-34 -30,-34 z m 311,4 c -23,-3 -44,25 -30,46 14,21 57,16 60,-11 1,-17 -13,-34 -30,-34 z m -204,1 c -23,-3 -44,25 -30,46 14,21 57,16 60,-11 1,-17 -13,-34 -30,-34 z m 97,3 c -23,-3 -44,25 -30,46 14,21 57,16 60,-11 1,-17 -13,-34 -30,-34 z"></path>
        <path id="z_aapning_til_meitemarkens_ganger" d="m 329,377 c -42,13 -35,36 -17,63 11,16 -10,24 -11,48 -0,16 -8,25 -8,45 0,35 2,82 0,107 h -92 c 3,-15 -29,-69 -20,-82 22,-29 7,-52 12,-65 4,-12 21,-27 18,-38 -2,-8 -19,-17 -15,-25 11,-28 36,-54 -13,-55 M -855,355 c 67,12 23,40 4,67 -10,14 -29,40 -28,59 2,65 -22,110 -44,160 h 121 c 3,-27 10,-65 19,-93 3,-10 20,-10 18,-22 -4,-33 8,-80 35,-106 15,-14 2,-17 7,-39 3,-13 1,-30 23,-29"></path>
        <path id="z_piggsvin" d="m 632,7 c -79,-6 -164,30 -217,97 -54,68 -51,171 3,238 59,72 143,104 224,123 73,17 123,-41 179,-71 91,-48 86,-168 35,-241 C 815,92 747,51 683,14 667,5 651,8 632,7 Z"></path>
    </g>
    
    <g id="g_ord">
        <text class="ord" id="t_piggsvin" x="607" y="91" dy="20">piggsvin</text>
        <text class="ord" id="t_aapning_til_meitemarkens_ganger" x="-778" y="215" dy="20"><tspan x="-778" y="215" dy="0">åpning til </tspan><tspan x="-778" y="215" dy="50">meitemarkens </tspan><tspan x="-778" y="215" dy="100">ganger</tspan></text>
        <text class="ord" id="t_kuler_hvor_rhisobium_bor" x="177" y="-210" dy="20">kuler hvor rhisobium bor</text>
        <text class="ord" id="t_erteplante" x="-358" y="42" dy="20">erteplante</text>
        <text class="ord" id="t_klatretraader" x="-51" y="-371" dy="20">klatretråder</text>
        <use xlink:href="#t_klatretraader" x="-550" y="0"></use>
        <use xlink:href="#t_klatretraader" x="50" y="300"></use>
        <use xlink:href="#t_klatretraader" x="-700" y="450"></use>
        <text class="ord" id="t_jord" x="576" y="542" dy="20">jord</text>
        <text class="ord" id="t_stjernehimmel" x="438" y="-460" dy="20">stjernehimmel</text>
        <text class="ord" id="t_hodelykt" x="-78" y="180" dy="20">hodelykt</text>
        <text class="ord" id="t_rot" x="-326" y="504" dy="20">rot</text>
        <text class="ord" id="t_baesj_fra_meitemark" x="-174" y="436" dy="20">bæsj fra meitemark</text>
    </g>
    
    <g id="g_ord_clones">
           
    </g>
    
    <script type="text/javascript" xlink:href="https://lumbrikus.no/js/libs/snap.svg-min.js"></script>
    <script type="text/javascript" xlink:href="https://lumbrikus.no/js/let-og-finn.js"></script>
<!--    <script type="text/javascript" xlink:href="https://lumbrikus.no/js/add-svg-words.js"></script>-->
</svg>
