<?xml version="1.0" encoding="UTF-8"?>
<?xml-stylesheet type="text/css" href="https://lumbrikus.no/css/interactive-svg.css" ?>   
<svg
    id="SVG_let_og_finn"
    width="100%"
    height="100%"
    viewBox="-900 -600 1800 1200"
    preserveAspectRatio="xMidYMid meet"
    xmlns="http://www.w3.org/2000/svg"
    xmlns:xlink="http://www.w3.org/1999/xlink"
     version="2.0"
    
    >
    <title>Let og finn ord i bildet</title>
    <defs>
        <style type="text/css">
            <![CDATA[*/
            /*]]>*/
        </style>
    </defs>

    

    <image id="let_og_finn_bg" xlink:href="img/09-let-og-finn-bg.jpg" x="-900" y="-600" width="1800" height="1200"></image>
    
    <g id="g_active_zones" class="active_zones">
        <path id="z_her_kom_det_erter_boenner_og_gulroetter" d="m -299,-372 c -11,-18 0,-66 -19,-63 -13,2 -15,31 -16,46 -3,34 3,68 -20,96 -14,16 -25,39 -29,63 -4,22 8,39 32,33 19,-4 37,-9 57,1 23,13 47,-5 74,-3 29,1 60,4 88,-3 31,-10 61,6 89,-2 13,-4 21,1 32,-5 14,-8 11,-35 23,-52 8,-12 23,-10 18,-33 -4,-20 1,-47 -24,-50 -28,-3 -62,-24 -87,-6 -23,17 -44,36 -72,29 -19,-4 -37,-9 -58,-2 -18,6 -40,1 -58,6 -14,4 -21,-19 -24,-31 -2,-8 1,-15 -2,-22 z"></path>
        <path id="z_geitrams" d="m -880,-285 c 0,-14 -4,-45 13,-37 17,7 18,33 26,48 5,9 6,-17 6,-23 0,-39 30,-58 44,-88 6,-14 13,-44 30,-37 8,3 9,17 17,6 7,-9 19,-34 29,-24 20,19 4,61 11,91 15,64 7,137 -5,200 -7,36 -9,74 -25,106 -5,10 -13,14 -30,8 -12,-4 -15,25 -24,35 -15,16 -3,42 -12,62 -10,24 -28,52 -52,58 -10,2 -9,-20 -14,-30 -18,-39 -18,-83 -19,-128 -0,-31 -4,-61 3,-89 9,-35 -12,-67 -1,-102 5,-17 2,-36 3,-53 z"></path>
        <path id="z_ekorn" d="m -619,-226 c 7,4 10,23 17,13 7,-10 0,-29 20,-31 24,-2 29,16 37,31 11,20 21,46 7,68 -11,17 -25,33 -34,51 -9,19 -33,8 -49,0 -22,-10 -44,-24 -48,-49 -2,-16 -22,-23 -25,-42 -6,-40 49,-69 74,-43 0,0 -0,0 0,1 z"></path>
        <path id="z_baesj_fra_meitemark" d="m -529,-269 c 13,-21 45,-13 51,9 4,18 -10,40 -29,38 -17,-2 -31,-32 -22,-47 z m 95,83 c -9,-19 -45,13 -40,37 4,23 38,33 54,19 16,-13 -0,-30 -11,-51 z m 108,6 c -21,-6 -43,19 -37,39 6,21 28,34 54,25 17,-6 16,-37 4,-47 -6,-5 -10,-14 -22,-18 z m 1166,60 c -18,1 -33,16 -25,37 7,20 16,40 42,33 20,-5 33,-14 30,-37 -2,-21 -21,-34 -47,-33 z"></path>
        <path id="z_gult_loev" d="m 707,-7 c -0,-22 -9,-50 15,-53 27,-3 61,-3 58,32 C 779,4 747,25 719,10 712,7 707,0 707,-7 Z M 466,250 c -9,-25 -43,-28 -66,-16 -11,6 -34,-19 -41,-3 -7,15 6,28 19,35 18,9 28,34 54,28 14,-3 30,-11 35,-23 1,-5 1,-11 -1,-19 z M -431,-6 c 25,0 38,25 62,16 21,-7 46,-29 42,-57 -2,-19 -25,-29 -45,-22 -26,9 -48,15 -62,40 -3,6 -6,21 2,22 z m 39,152 c 19,-0 41,-30 55,-18 14,11 23,34 16,57 -6,23 -40,24 -62,19 -17,-3 -25,-18 -40,-27 -12,-7 -35,-0 -49,-9 -13,-7 -31,-27 -13,-37 17,-9 43,-12 63,-6 13,4 13,22 28,22 z"></path>
        <path id="z_maake" d="m 687,-539 c -8,22 6,46 -10,62 -11,10 -30,19 -26,38 2,13 38,3 52,10 31,14 61,14 103,16 38,2 34,1 26,-28 3,-27 64,-31 48,-72 -23,-36 -85,-9 -94,-48 -4,-21 -5,-52 -25,-51 -39,11 -62,42 -74,72 z"></path>
        <path id="z_blaabaer" d="m 658,-236 c -7,-19 -20,-50 10,-48 12,0 17,17 22,14 20,-17 47,-45 66,-28 8,7 -5,32 13,28 17,-3 14,12 37,14 17,1 24,-1 40,-10 13,-7 -1,37 16,27 20,-11 28,13 16,31 -13,20 11,51 -6,70 -11,12 -33,29 -50,33 -23,5 -26,-28 -44,-42 -17,-14 -45,-11 -58,-25 -16,-17 -53,-7 -72,-20 -11,-7 14,-30 11,-39 z"></path>
        <path id="z_hermetikkboks" d="m 578,300 c -20,-6 -34,4 -33,29 1,30 1,62 1,89 -0,33 36,33 65,32 29,-1 46,-7 47,-37 0,-30 -2,-60 -5,-90 -1,-18 -14,-23 -31,-20 -12,2 -30,1 -43,-2 z"></path>
        <path id="z_kokeplate" d="m -248,365 17,124 405,-10 C 150,434 112,385 83,343 Z"></path>
        <path id="z_boenner" d="m 122,461 c -25,28 5,75 37,91 41,20 94,25 134,-1 147,-85 -97,-164 -171,-89 z"></path>
        <path id="z_kjele" d="m -175,262 c 7,-32 49,-36 81,-43 57,-13 122,-2 173,24 20,10 19,30 19,53 0,37 14,79 1,113 -10,28 -53,27 -81,34 -53,13 -117,15 -162,-9 -15,-8 -37,-18 -34,-37 5,-43 -7,-93 1,-136 z"></path>
        <path id="z_suppe" d="m 51,265 c -40,-14 -88,-17 -132,-15 -27,0 -56,7 -77,23 -21,15 6,42 24,50 50,21 108,9 159,0 22,-3 59,-12 54,-39 -2,-10 -17,-14 -28,-18 z"></path>
        <path id="z_gulroetter" d="m -82,480 c 25,0 45,-28 69,-31 22,-2 68,-12 69,11 1,12 5,15 15,17 12,2 3,11 3,21 -0,11 43,15 31,27 -21,20 -62,17 -94,14 -31,-2 -63,-12 -87,-24 -15,-7 -24,-34 -9,-34 z"></path>
        <path id="z_sukkererter" d="m -137,515 c -23,-9 -60,4 -68,29 -8,26 16,52 45,46 31,-5 58,15 91,7 42,-9 88,-5 131,-11 19,-3 56,-7 53,-35 -3,-31 -49,-27 -75,-27 -33,0 -65,-4 -96,-17 -26,-11 -57,17 -78,9 z"></path>
        <path id="z_suppeboller" d="m -199,436 c -24,6 -69,-19 -92,-1 -11,8 -15,23 -16,39 -1,37 -0,77 29,101 18,14 45,4 61,-8 22,-17 24,-42 26,-71 0,-9 11,11 18,17 21,16 57,11 69,-9 12,-22 26,-52 15,-79 -8,-20 -44,-21 -68,-22 -22,-1 -25,29 -42,34 z"></path>
        <path id="z_skjeer" d="m -388,575 c 2,-12 -4,-30 9,-38 10,-6 18,-6 28,-16 9,-10 18,-4 29,8 9,11 8,14 12,23 5,16 -3,29 -10,38 -7,10 -13,18 -31,16 -19,-2 -39,-6 -56,-3 -3,0 16,-15 19,-29 z"></path>
        <path id="z_spade" d="m -673,96 70,-14 c 26,-5 -9,36 -11,56 3,34 18,114 26,126 12,-3 48,-11 52,-4 15,31 15,73 -5,102 -11,16 -25,40 -40,42 -38,4 -67,-41 -78,-75 -4,-14 -17,-41 -6,-47 9,-5 52,-5 50,-12 -12,-42 -15,-86 -28,-126 -5,-17 -22,-26 -34,-40 -2,-2 0,-7 5,-8 z"></path>
        <path id="z_peanoetter" d="m -625,360 c -16,1 -42,8 -31,28 9,16 26,25 49,20 20,-4 56,15 69,-7 9,-16 -4,-55 -26,-43 -21,11 -35,0 -60,2 z m -116,7 c -18,2 -14,19 -23,33 -15,23 25,30 43,37 18,7 22,-11 34,-11 14,-0 23,3 23,-16 -1,-22 -19,-36 -42,-35 -12,0 -22,-9 -35,-7 z"></path>
    </g>
    
    <g id="g_ord">
        
        <text class="ord" id="t_gulroetter" x="50" y="450" dy="20">gulrøtter</text>
        <text class="ord" id="t_sukkererter" x="-91" y="562" dy="20">sukkererter</text>
        <text class="ord" id="t_kjele" x="-48" y="370" dy="20">kjele</text>
        <text class="ord" id="t_suppe" x="-51" y="280" dy="20">suppe</text>
        <text class="ord" id="t_peanoetter" x="-744" y="447" dy="20">peanøtter</text>
        <text class="ord" id="t_spade" x="-606" y="249" dy="20">spade</text>
        <text class="ord" id="t_geitrams" x="-769" y="-347" dy="20">geitrams</text>
        <text class="ord" id="t_ekorn" x="-632" y="-265" dy="20">ekorn</text>
        <text class="ord" id="t_hermetikkboks" x="650" y="270" dy="20">hermetikkboks</text>
        <text class="ord" id="t_maake" x="729" y="-408" dy="20">måke</text>
        <text class="ord" id="t_skjeer" x="-464" y="542" dy="20">skjeer</text>
        <text class="ord" id="t_suppeboller" x="-403" y="443" dy="20">suppeboller</text>
        <text class="ord" id="t_gult_loev" x="-370" y="50" dy="20">gult løv</text>
        <text class="ord" id="t_baesj_fra_meitemark" x="-300" y="-100" dy="20">bæsj fra meitemark</text>
        <text class="ord" id="t_boenner" x="350" y="484" dy="20">bønner</text>
        <text class="ord" id="t_kokeplate" x="224" y="364" dy="20">kokeplate</text>
        <text class="ord" id="t_her_kom_det_erter_boenner_og_gulroetter" x="-316" y="-402" dy="20"><tspan x="-316" y="-402" dy="0">her kom det erter, </tspan><tspan x="-316" y="-402" dy="50">bønner og </tspan><tspan x="-316" y="-402" dy="100">gulrøtter</tspan></text>
        <text class="ord" id="t_blaabaer" x="750" y="-150" dy="20">blåbær</text>
    </g>
    
    <g id="g_ord_clones">
           
    </g>
    
    <script type="text/javascript" xlink:href="https://lumbrikus.no/js/libs/snap.svg-min.js"></script>
    <script type="text/javascript" xlink:href="https://lumbrikus.no/js/let-og-finn.js"></script>
<!--    <script type="text/javascript" xlink:href="https://lumbrikus.no/js/add-svg-words.js"></script>-->
</svg>
