<?xml version="1.0" encoding="UTF-8"?>
<?xml-stylesheet type="text/css" href="https://lumbrikus.no/css/interactive-svg.css" ?>   
<svg
    id="SVG_let_og_finn"
    width="100%"
    height="100%"
    viewBox="-900 -600 1800 1200"
    preserveAspectRatio="xMidYMid meet"
    xmlns="http://www.w3.org/2000/svg"
    xmlns:xlink="http://www.w3.org/1999/xlink"
     version="2.0"
    
    >
    <title>Let og finn ord i bildet</title>
    <defs>
        <style type="text/css">
            <![CDATA[*/
            /*]]>*/
        </style>
    </defs>

    

    <image id="let_og_finn_bg" xlink:href="img/10-let-og-finn-bg.jpg" x="-900" y="-740" width="1800" height="1476"></image>
    
    <g id="g_active_zones" class="active_zones">
        <path id="z_himmel" d="m -899,-596 1186,-3 -2,143 -79,4 0,125 -36,3 0,-70 -119,10 3,53 -21,1 -5,-39 -90,5 -1,48 -16,-5 3,-110 -84,7 v 61 l -103,7 3,48 h -16 l -0,-71 -107,6 7,66 h -41 c -35,-43 -75,-7 -113,10 -52,-24 -102,-13 -151,-1 l -56,-27 -2,-156 -151,1 z"></path>
        <path id="z_hus" d="m -744,-479 -151,1 -2,165 c 14,0 29,-8 43,-12 22,-7 24,13 51,1 16,-7 61,4 67,5 z m 1029,21 -80,4 -0,128 c 16,-9 59,-13 82,1 z m -362,26 -84,7 v 61 l -99,7 1,48 c 5,0 20,3 28,4 6,0 11,-3 17,-2 12,1 23,2 35,3 l 32,-3 c 16,-33 67,-18 69,-10 z m 0,114 v 0 c 0,-0 0,-0 0,-0 z M 168,-395 l -115,9 0,61 c 4,1 14,-6 31,3 20,-11 45,-4 66,-1 7,1 17,1 17,1 z m -447,17 -106,6 2,63 c 5,-1 33,7 43,12 8,-11 60,-8 60,-8 z m 311,9 -96,4 -0,51 70,-1 25,-7 z"></path>
        <path id="z_graagaas" d="m -221,-522 c -7,-5 -17,-2 -26,-5 -9,-3 -18,-10 -16,-21 2,-13 16,-15 27,-14 11,0 23,1 33,6 13,5 26,12 41,14 16,2 33,0 48,7 7,3 7,16 -1,17 -8,1 -11,8 -3,15 7,5 -0,15 -8,16 -11,2 -23,3 -35,4 -11,1 -23,5 -34,9 -10,4 -21,5 -32,5 -7,-0 -18,-6 -15,-15 3,-9 13,-15 20,-22 5,-5 7,-12 0,-17 z m -477,19 c -20,-15 -47,-6 -71,-15 -24,-9 -49,-27 -43,-57 6,-36 45,-41 75,-40 31,1 62,4 92,17 36,16 71,33 111,39 43,6 90,0 130,20 20,9 21,43 -4,48 -23,4 -31,24 -10,40 19,15 -1,41 -21,45 -31,6 -63,10 -95,13 -32,2 -62,14 -92,26 -27,11 -58,15 -87,13 -21,-1 -50,-16 -40,-42 9,-27 35,-42 56,-61 15,-14 20,-34 2,-48 z"></path>
        <path id="z_busker" d="m -413,-300 c 22,-7 53,-10 74,2 21,-7 44,-9 68,-9 24,-1 49,8 74,3 20,-3 42,43 8,32 -29,6 -58,13 -88,12 -39,1 -77,16 -117,14 -16,8 -30,-3 -15,-18 6,-13 -7,-26 -4,-38 z m -485,-4 c 10,-21 43,-19 65,-23 29,9 61,-0 90,10 24,5 48,13 72,21 32,-19 75,-22 109,-4 13,-0 37,14 9,14 -26,2 -53,8 -79,14 -30,11 -52,38 -69,65 -28,18 -65,11 -97,21 -25,6 -60,11 -87,9 -17,-1 -5,-44 -10,-70 1,-19 -0,-39 -2,-59 z"></path>
        <path id="z_vindu" d="m 474,-629 h 191 v 158 H 474 Z"></path>
        <path id="z_visne_erteplanter" d="m 349,-304 c 5,-24 -34,-49 -31,-12 1,30 -13,58 -17,88 -3,23 -9,74 24,65 18,-4 10,-55 39,-32 13,11 25,-10 37,14 8,18 50,37 66,16 6,-8 2,-36 15,-15 21,34 37,-34 62,-3 9,12 37,52 45,32 6,-16 0,-63 25,-36 20,21 31,-32 48,-25 25,9 57,6 71,-14 19,-31 -8,-58 -15,-87 -5,-22 -24,-38 -29,-6 -1,13 -4,49 -10,43 -18,-19 -0,-47 -7,-72 -4,-16 -18,-33 -26,-8 -8,30 -25,58 -27,90 -1,21 -26,44 -25,11 0,-28 6,-69 -21,-82 -28,-12 -31,46 -34,68 -2,26 -14,45 -17,9 -1,-23 1,-47 -7,-69 -13,-32 -27,2 -27,22 0,23 2,48 -6,70 -5,13 -23,-30 -18,-43 6,-19 -2,-79 -22,-57 -19,21 -7,56 -14,85 -6,24 -21,25 -29,3 -10,-26 -0,-55 -10,-82 -5,-13 -21,-37 -23,-8 -1,14 4,49 -7,48 -4,-0 -3,-8 -2,-13 z"></path>
        <path id="z_mus" d="m 686,-161 c 0,-10 2,-22 11,-28 7,-4 14,-11 15,-20 3,-8 9,-17 17,-21 8,-1 15,7 24,3 14,-0 30,3 39,15 4,7 11,11 19,13 14,5 28,16 32,32 2,9 -3,18 -12,20 -8,1 -16,5 -23,11 -9,6 -20,8 -31,12 -13,4 -25,12 -39,15 -7,1 -11,-4 -17,-6 -7,-0 -15,-1 -21,-7 -9,-9 -15,-22 -14,-35 v -1 z"></path>
        <path id="z_ert" d="m 703,-162 c -9,5 -20,12 -20,23 -0,15 14,30 29,26 13,-3 20,-19 15,-32 -4,-10 -14,-24 -25,-17 z"></path>
        <path id="z_doed_humle" d="m 426,-2 c -6,-9 -10,-20 -5,-30 6,-11 18,-15 29,-8 10,6 17,17 18,30 1,13 0,27 9,38 7,9 14,27 3,37 -7,6 -14,13 -21,21 -8,9 -19,16 -31,19 -9,2 -24,6 -32,-3 -7,-10 15,-21 0,-26 -15,-4 -32,-16 -30,-33 1,-13 12,-22 22,-30 8,-6 19,-9 29,-8 2,0 6,-2 4,-4 z"></path>
        <path id="z_jenny" d="m 83,-140 c 1,-25 14,-51 5,-70 -13,-27 -45,-41 -63,-58 -22,-21 -28,-43 0,-45 14,-1 45,33 55,16 3,-5 14,-33 30,-39 30,-13 98,8 92,46 -6,37 -15,33 -12,52 4,24 17,39 15,62 -2,30 -15,52 -20,81 -6,39 -13,76 -14,107 C 168,92 114,58 82,55 49,53 36,40 70,-1 96,-59 80,-77 83,-140 Z"></path>
        <path id="z_samir" d="m -25,-357 c 29,13 -14,91 -20,127 -16,90 -9,242 -17,259 -8,17 -36,2 -45,2 -4,-0 -19,5 -22,4 -52,-10 -35,-83 -25,-137 14,-76 -23,-151 -49,-225 -10,-30 8,-41 32,-33 11,4 19,17 34,26 11,7 39,3 63,1 32,-7 20,-38 51,-25 z"></path>
        <path id="z_hen" d="m -484,-237 c -4,-21 2,-46 24,-54 15,-5 31,-0 43,11 15,15 10,38 15,58 8,33 20,66 20,101 0,21 0,49 -17,63 -15,12 -33,-6 -37,-22 -6,-26 -12,-53 -23,-79 -8,-18 -15,-37 -22,-55 -2,-7 -1,-15 -2,-23 z"></path>
        <path id="z_rognebaerblad" d="m -285,-189 c 28,-15 133,22 95,65 -41,46 -23,52 -30,87 -14,78 -148,-75 -163,56 -9,85 -139,-57 -83,-95 33,-22 70,42 84,-25 14,-67 -21,-45 -10,-99 18,-91 182,-72 106,10 z"></path>
        <path id="z_loev" d="m -855,22 c 62,-51 126,-33 190,-34 72,-1 247,19 176,111 -56,73 -185,36 -274,54 -76,15 -190,-49 -93,-130 z"></path>
        <path id="z_vann" d="m -907.67,592.3 c 4.06,-107.92 143.22,-51.99 210.63,-80.72 207.88,-32.35 418.06,-83.51 629.542,-55.61 140.282,17.57 280.008,40.8 418.898,66.81 71.3,16.29 141.62,38.32 207.48,70.39 z"></path>
        <path id="z_is" d="m -901,384 c 138,-91 361,-76 557,-98 181,-14 364,4 536,64 156,43 282,150 421,228 C 592,662 489,555 433,553 229,481 10,471 -203,468 c -129,8 -257,30 -386,40 -98,12 -197,18 -295,34 -23,3 -63,-128 -16,-159 z"></path>
        <path id="z_katt" d="M -455.29,60.72 C -391.18,-31.403 -237.06,-71.642 -150.4,14.994 -110.69,54.696 33.727,30.186 8.7491,80.904 -18.016,135.25 14.58,129.01 53.634,157.77 108.83,198.42 -63.511,279.26 38.15,341.86 127.39,396.81 15.406,560.59 -69.441,489.5 -133.86,435.53 -203.82,461.49 -277.53,453.47 c -83.51,-9.09 -137.19,10.77 -204.48,47.02 -90.7,48.87 -173.31,-87.15 -84.44,-154.23 51.43,-38.83 -30.25,-106.13 -12.93,-148.61 20.65,-50.63 90.93,-30.04 44.75,-98.222 -42.93,-63.391 55.4,-4.304 79.34,-38.708 z"></path>
        <path id="z_oerret" d="m -417,522 c 44,-32 91,-26 132,-43 38,-16 55,-32 109,-10 20,8 62,28 86,19 49,-18 72,-40 65,42 -1,14 4,35 -4,44 -11,12 -41,-14 -60,-2 -43,27 -105,25 -150,22 -12,-0 -24,-11 -50,-13 -75,-8 -177,-23 -128,-59 z"></path>
        <path id="z_ekorn" d="m 567,233 c -49,-88 89,-154 79,-248 2,-96 136,-164 203,-83 77,72 94,191 60,289 -3,89 -29,190 -122,222 -80,39 -179,-25 -186,-111 -7,-24 -20,-42 -35,-68 z"></path>
        <path id="z_peanoetter" d="m 338,354 c 14,-102 139,-72 211,-68 114,1 242,38 310,136 56,63 21,195 -76,172 C 693,580 609,542 523,521 447,489 345,505 291,432 273,400 291,336 338,354 Z"></path>
    </g>
    
    <g id="g_ord">
        <text class="ord" id="t_graagaas" x="-345" y="-531" dy="20">grågås</text>
        <text class="ord" id="t_hus" x="-300" y="-420" dy="20">hus</text>
        <use xlink:href="#t_hus" x="-520" y="20"></use>
        <text class="ord" id="t_himmel" x="92" y="-531" dy="20">himmel</text>
        <text class="ord" id="t_is" x="-771" y="417" dy="20">is</text>
        <text class="ord" id="t_oerret" x="-140" y="544" dy="20">ørret</text>
        <text class="ord" id="t_vann" x="203" y="540" dy="20">vann</text>
        <text class="ord" id="t_doed_humle" x="419" y="-18" dy="20">død humle</text>
        <text class="ord" id="t_peanoetter" x="612" y="479" dy="20">peanøtter</text>
        <text class="ord" id="t_ekorn" x="725" y="257" dy="20">ekorn</text>
        <text class="ord" id="t_mus" x="810" y="-247" dy="20">mus</text>
        <text class="ord" id="t_ert" x="679" y="-123" dy="20">ert</text>
        <text class="ord" id="t_visne_erteplanter" x="497" y="-302" dy="20">visne erteplanter</text>
        <text class="ord" id="t_vindu" x="569" y="-550" dy="20">vindu</text>
        <text class="ord" id="t_rognebaerblad" x="-397" y="-34" dy="20">rognebærblad</text>
        <text class="ord" id="t_loev" x="-788" y="65" dy="20">løv</text>
        <text class="ord" id="t_katt" x="-261" y="140" dy="20">Katt</text>
        <text class="ord" id="t_samir" x="-108" y="-152" dy="20">Samir</text>
        <text class="ord" id="t_jenny" x="129" y="-158" dy="20">Jenny</text>
        <text class="ord" id="t_busker" x="-811" y="-267" dy="20">busker</text>
        <text class="ord" id="t_hen" x="-425" y="-150" dy="20">Hen</text>
    </g>
    
    <g id="g_ord_clones">
           
    </g>
    
    <script type="text/javascript" xlink:href="https://lumbrikus.no/js/libs/snap.svg-min.js"></script>
    <script type="text/javascript" xlink:href="https://lumbrikus.no/js/let-og-finn.js"></script>
<!--    <script type="text/javascript" xlink:href="https://lumbrikus.no/js/add-svg-words.js"></script>-->
</svg>
