<?xml version="1.0" encoding="UTF-8" standalone="no"?>
<svg
   xmlns:dc="http://purl.org/dc/elements/1.1/"
   xmlns:cc="http://creativecommons.org/ns#"
   xmlns:rdf="http://www.w3.org/1999/02/22-rdf-syntax-ns#"
   xmlns:svg="http://www.w3.org/2000/svg"
   xmlns="http://www.w3.org/2000/svg"
   id="svg8"
   version="1.1"
   viewBox="0 0 69.3208 52.9167"
   height="200.00012"
   width="261.99988">
  <defs
     id="defs2" />
  <metadata
     id="metadata5">
    <rdf:RDF>
      <cc:Work
         rdf:about="">
        <dc:format>image/svg+xml</dc:format>
        <dc:type
           rdf:resource="http://purl.org/dc/dcmitype/StillImage" />
        <dc:title></dc:title>
      </cc:Work>
    </rdf:RDF>
  </metadata>
  <g
     transform="translate(-37.688972,-67.392415)"
     id="layer1">
    <g
       style="stroke-width:0.8893472"
       transform="matrix(1.1237967,0,0,1.1250442,-4.7803109,-14.927601)"
       id="g880">
      <path
         style="opacity:1;vector-effect:none;fill:#ffff00;fill-opacity:1;stroke:#000000;stroke-width:1.64714527;stroke-linecap:round;stroke-linejoin:round;stroke-miterlimit:4;stroke-dasharray:none;stroke-dashoffset:0;stroke-opacity:1;paint-order:stroke fill markers"
         d="m 98.651787,94.59375 c -4e-6,11.3769 -12.438092,20.5997 -27.78125,20.5997 -4.139798,0 -8.068108,-0.67142 -11.59768,-1.8754 -1.743393,-0.5947 -19.024771,6.83239 -20.551033,5.99456 -1.478756,-0.81175 12.790259,-9.88149 11.557034,-10.89055 -4.46776,-3.65566 -7.189569,-8.506297 -7.189571,-13.82831 -4e-6,-11.376903 12.438089,-20.599705 27.78125,-20.599705 15.343161,0 27.78125,9.222802 27.78125,20.599705 z"
         id="path825" />
      <g
         aria-label="Hei,
lærer!"
         style="font-style:normal;font-weight:normal;font-size:10.58333302px;line-height:1.25;font-family:sans-serif;letter-spacing:0px;word-spacing:0px;fill:#000000;fill-opacity:1;stroke:none;stroke-width:0.21622854"
         id="text817"
         transform="matrix(1.0882302,0,0,1.0882302,-6.4132518,-8.2980558)">
        <path
           d="m 57.735123,83.66566 h 1.043864 v 3.162597 h 3.79305 V 83.66566 H 63.6159 v 7.715291 h -1.043863 v -3.674194 h -3.79305 v 3.674194 h -1.043864 z"
           style="stroke-width:0.21622854"
           id="path828" />
        <path
           d="m 70.602554,88.249359 v 0.465088 h -4.371826 q 0.06201,0.981852 0.589111,1.498617 0.532267,0.511596 1.477946,0.511596 0.54777,0 1.059367,-0.134358 0.516764,-0.134359 1.023193,-0.403077 v 0.89917 q -0.511596,0.217041 -1.049031,0.330729 -0.537435,0.113689 -1.090373,0.113689 -1.384928,0 -2.196248,-0.806153 -0.806153,-0.806152 -0.806153,-2.180745 0,-1.421102 0.764812,-2.253093 0.769978,-0.837158 2.072225,-0.837158 1.167887,0 1.844848,0.754476 0.682129,0.749308 0.682129,2.041219 z m -0.950846,-0.279053 q -0.01034,-0.780314 -0.43925,-1.245401 -0.423747,-0.465088 -1.126546,-0.465088 -0.795817,0 -1.276408,0.449585 -0.475423,0.449585 -0.54777,1.266072 z"
           style="stroke-width:0.21622854"
           id="path830" />
        <path
           d="m 72.163182,85.593191 h 0.950846 v 5.78776 h -0.950846 z m 0,-2.253093 h 0.950846 v 1.204061 h -0.950846 z"
           style="stroke-width:0.21622854"
           id="path832" />
        <path
           d="m 75.341282,90.06837 h 1.090373 v 0.888834 l -0.847494,1.653646 h -0.666626 l 0.423747,-1.653646 z"
           style="stroke-width:0.21622854"
           id="path834" />
        <path
           d="m 57.693782,96.569265 h 0.950846 v 8.040855 h -0.950846 z"
           style="stroke-width:0.21622854"
           id="path836" />
        <path
           d="m 68.509658,101.19947 q -0.0052,-0.78031 -0.434082,-1.245399 -0.423746,-0.465088 -1.131713,-0.465088 -0.79065,0 -1.271241,0.449585 -0.475423,0.449582 -0.54777,1.266072 z m -3.736206,-1.565793 q 0.382406,-0.465088 0.930176,-0.707967 0.54777,-0.242879 1.229899,-0.242879 1.167888,0 1.850016,0.754475 0.682129,0.749304 0.682129,2.041224 v 0.46508 h -4.371826 q 0.06201,0.98702 0.589112,1.50379 0.527099,0.51676 1.472778,0.51676 0.537435,0 1.054199,-0.13436 0.516764,-0.13952 1.033529,-0.41341 v 0.89917 q -0.516765,0.21704 -1.054199,0.33073 -0.537435,0.11369 -1.085206,0.11369 -0.862996,0 -1.503784,-0.31006 -0.640787,-0.31523 -1.038696,-0.93018 -0.377238,0.62012 -0.935343,0.93018 -0.558106,0.31006 -1.297079,0.31006 -0.976684,0 -1.519287,-0.48059 -0.542602,-0.48576 -0.542602,-1.35392 0,-0.97669 0.651123,-1.47278 0.65629,-0.4961 1.953369,-0.4961 h 1.333252 v -0.093 q 0,-0.65629 -0.434082,-1.012862 -0.428915,-0.361735 -1.209229,-0.361735 -0.496094,0 -0.966349,0.118856 -0.470256,0.118855 -0.904338,0.356567 v -0.878499 q 0.521932,-0.201538 1.012858,-0.299724 0.490927,-0.103352 0.956014,-0.103352 0.733806,0 1.281576,0.248046 0.552938,0.248047 0.83199,0.7028 z m -1.514119,2.067053 q -1.152384,0 -1.596802,0.26355 -0.444417,0.26355 -0.444417,0.89917 0,0.50643 0.330729,0.80616 0.335897,0.29455 0.909505,0.29455 0.79065,0 1.266073,-0.5581 0.480591,-0.56328 0.480591,-1.49345 v -0.21188 z"
           style="stroke-width:0.21622854"
           id="path838" />
        <path
           d="m 74.380101,99.711192 q -0.160197,-0.09302 -0.351399,-0.134359 -0.186035,-0.04651 -0.413412,-0.04651 -0.806152,0 -1.240234,0.527097 -0.428914,0.52194 -0.428914,1.50379 v 3.04891 h -0.956014 v -5.787764 h 0.956014 v 0.89917 q 0.299723,-0.5271 0.780314,-0.780314 0.48059,-0.258382 1.167887,-0.258382 0.09818,0 0.217041,0.0155 0.118856,0.01033 0.26355,0.03617 z"
           style="stroke-width:0.21622854"
           id="path840" />
        <path
           d="m 80.111016,101.47853 v 0.46508 H 75.73919 q 0.06201,0.98186 0.589112,1.49862 0.532267,0.5116 1.477946,0.5116 0.54777,0 1.059366,-0.13436 0.516765,-0.13436 1.023194,-0.40308 v 0.89917 q -0.511597,0.21704 -1.049032,0.33073 -0.537435,0.11369 -1.090372,0.11369 -1.384929,0 -2.196249,-0.80615 -0.806152,-0.80616 -0.806152,-2.18075 0,-1.4211 0.764811,-2.253091 0.769979,-0.837158 2.072225,-0.837158 1.167887,0 1.844849,0.754475 0.682128,0.749304 0.682128,2.041224 z m -0.950846,-0.27906 q -0.01033,-0.78031 -0.43925,-1.245399 -0.423746,-0.465088 -1.126546,-0.465088 -0.795817,0 -1.276408,0.449585 -0.475423,0.449582 -0.54777,1.266072 z"
           style="stroke-width:0.21622854"
           id="path842" />
        <path
           d="m 85.025445,99.711192 q -0.160197,-0.09302 -0.3514,-0.134359 -0.186035,-0.04651 -0.413411,-0.04651 -0.806152,0 -1.240234,0.527097 -0.428915,0.52194 -0.428915,1.50379 v 3.04891 h -0.956014 v -5.787764 h 0.956014 v 0.89917 q 0.299724,-0.5271 0.780314,-0.780314 0.480591,-0.258382 1.167888,-0.258382 0.09819,0 0.217041,0.0155 0.118856,0.01033 0.26355,0.03617 z"
           style="stroke-width:0.21622854"
           id="path844" />
        <path
           d="m 86.632584,103.29754 h 1.049031 v 1.31258 h -1.049031 z m 0,-6.402714 h 1.049031 v 3.384804 l -0.103353,1.84485 h -0.837158 l -0.10852,-1.84485 z"
           style="stroke-width:0.21622854"
           id="path846" />
      </g>
    </g>
  </g>
</svg>
