<?xml version="1.0" encoding="UTF-8" standalone="no"?>
<svg
   xmlns:dc="http://purl.org/dc/elements/1.1/"
   xmlns:cc="http://creativecommons.org/ns#"
   xmlns:rdf="http://www.w3.org/1999/02/22-rdf-syntax-ns#"
   xmlns:svg="http://www.w3.org/2000/svg"
   xmlns="http://www.w3.org/2000/svg"
   width="261.99988"
   height="200.00012"
   viewBox="0 0 69.3208 52.9167"
   version="1.1"
   id="svg8">
  <defs
     id="defs2" />
  <metadata
     id="metadata5">
    <rdf:RDF>
      <cc:Work
         rdf:about="">
        <dc:format>image/svg+xml</dc:format>
        <dc:type
           rdf:resource="http://purl.org/dc/dcmitype/StillImage" />
        <dc:title></dc:title>
      </cc:Work>
    </rdf:RDF>
  </metadata>
  <g
     id="g875">
    <path
       style="opacity:1;vector-effect:none;fill:#c0ff00;fill-opacity:1;stroke:#000000;stroke-width:1.85208356;stroke-linecap:round;stroke-linejoin:round;stroke-miterlimit:4;stroke-dasharray:none;stroke-dashoffset:0;stroke-opacity:1;paint-order:stroke fill markers"
       d="m 68.39527,24.102134 c -5e-6,12.799515 -13.977887,23.175573 -31.220477,23.175573 -4.652292,0 -9.066914,-0.755377 -13.033435,-2.109908 C 22.182139,44.498735 2.7613832,52.85454 1.046175,51.911944 -0.61564608,50.998689 15.419826,40.794831 14.033932,39.659594 9.0130778,35.546815 5.9543178,30.089634 5.9543155,24.102134 5.954311,11.302615 19.932199,0.92655516 37.174793,0.92655516 c 17.242593,0 31.220477,10.37605984 31.220477,23.17557884 z"
       id="path825" />
    <g
       aria-label="Hei,
elev!"
       style="font-style:normal;font-weight:normal;font-size:10.58333302px;line-height:1.25;font-family:sans-serif;letter-spacing:0px;word-spacing:0px;fill:#000000;fill-opacity:1;stroke:none;stroke-width:0.26458332"
       id="text828">
      <path
         d="m 21.464057,11.554803 h 1.391818 V 15.7716 h 5.0574 v -4.216797 h 1.391819 v 10.287055 h -1.391819 v -4.898926 h -5.0574 v 4.898926 h -1.391818 z"
         style="font-style:normal;font-variant:normal;font-weight:normal;font-stretch:normal;font-size:14.11111069px;font-family:sans-serif;-inkscape-font-specification:'sans-serif, Normal';font-variant-ligatures:normal;font-variant-caps:normal;font-variant-numeric:normal;font-feature-settings:normal;text-align:start;writing-mode:lr-tb;text-anchor:start;stroke-width:1.05833334;stroke:#000000;stroke-linecap:round;stroke-linejoin:round"
         id="path845" />
      <path
         d="m 38.620632,17.666402 v 0.620117 h -5.829101 q 0.08268,1.309137 0.785481,1.998156 0.70969,0.682129 1.970595,0.682129 0.73036,0 1.412489,-0.179145 0.689019,-0.179145 1.364258,-0.537435 v 1.198893 q -0.682129,0.289388 -1.398709,0.440972 -0.71658,0.151584 -1.45383,0.151584 -1.846571,0 -2.928331,-1.074869 -1.07487,-1.07487 -1.07487,-2.907661 0,-1.894802 1.019748,-3.004123 1.026639,-1.116211 2.762967,-1.116211 1.557183,0 2.459798,1.005968 0.909505,0.999078 0.909505,2.721625 z m -1.267795,-0.37207 q -0.01378,-1.040419 -0.585666,-1.660536 -0.564996,-0.620117 -1.502062,-0.620117 -1.061089,0 -1.701877,0.599446 -0.633898,0.599447 -0.73036,1.688097 z"
         style="font-style:normal;font-variant:normal;font-weight:normal;font-stretch:normal;font-size:14.11111069px;font-family:sans-serif;-inkscape-font-specification:'sans-serif, Normal';font-variant-ligatures:normal;font-variant-caps:normal;font-variant-numeric:normal;font-feature-settings:normal;text-align:start;writing-mode:lr-tb;text-anchor:start;stroke-width:1.05833334;stroke:#000000;stroke-linecap:round;stroke-linejoin:round"
         id="path847" />
      <path
         d="m 40.701469,14.124844 h 1.267795 v 7.717014 h -1.267795 z m 0,-3.004123 h 1.267795 v 1.605415 h -1.267795 z"
         style="font-style:normal;font-variant:normal;font-weight:normal;font-stretch:normal;font-size:14.11111069px;font-family:sans-serif;-inkscape-font-specification:'sans-serif, Normal';font-variant-ligatures:normal;font-variant-caps:normal;font-variant-numeric:normal;font-feature-settings:normal;text-align:start;writing-mode:lr-tb;text-anchor:start;stroke-width:1.05833334;stroke:#000000;stroke-linecap:round;stroke-linejoin:round"
         id="path849" />
      <path
         d="m 44.938937,20.091749 h 1.453831 v 1.185113 l -1.129992,2.204861 h -0.888834 l 0.564995,-2.204861 z"
         style="font-style:normal;font-variant:normal;font-weight:normal;font-stretch:normal;font-size:14.11111069px;font-family:sans-serif;-inkscape-font-specification:'sans-serif, Normal';font-variant-ligatures:normal;font-variant-caps:normal;font-variant-numeric:normal;font-feature-settings:normal;text-align:start;writing-mode:lr-tb;text-anchor:start;stroke-width:1.05833334;stroke:#000000;stroke-linecap:round;stroke-linejoin:round"
         id="path851" />
      <path
         d="m 28.009738,32.436844 v 0.620117 h -5.829102 q 0.08268,1.309136 0.785482,1.998155 0.70969,0.682129 1.970595,0.682129 0.73036,0 1.412489,-0.179145 0.689019,-0.179145 1.364258,-0.537435 v 1.198893 q -0.682129,0.289388 -1.398709,0.440973 -0.71658,0.151584 -1.45383,0.151584 -1.846571,0 -2.928331,-1.07487 -1.07487,-1.07487 -1.07487,-2.907661 0,-1.894802 1.019748,-3.004123 1.026638,-1.116211 2.762967,-1.116211 1.557183,0 2.459798,1.005968 0.909505,0.999078 0.909505,2.721626 z m -1.267795,-0.372071 q -0.01378,-1.040419 -0.585666,-1.660536 -0.564996,-0.620117 -1.502062,-0.620117 -1.061089,0 -1.701877,0.599447 -0.633898,0.599446 -0.73036,1.688096 z"
         style="font-style:normal;font-variant:normal;font-weight:normal;font-stretch:normal;font-size:14.11111069px;font-family:sans-serif;-inkscape-font-specification:'sans-serif, Normal';font-variant-ligatures:normal;font-variant-caps:normal;font-variant-numeric:normal;font-feature-settings:normal;text-align:start;writing-mode:lr-tb;text-anchor:start;stroke-width:1.05833334;stroke:#000000;stroke-linecap:round;stroke-linejoin:round"
         id="path853" />
      <path
         d="m 30.090576,25.891162 h 1.267795 v 10.721137 h -1.267795 z"
         style="font-style:normal;font-variant:normal;font-weight:normal;font-stretch:normal;font-size:14.11111069px;font-family:sans-serif;-inkscape-font-specification:'sans-serif, Normal';font-variant-ligatures:normal;font-variant-caps:normal;font-variant-numeric:normal;font-feature-settings:normal;text-align:start;writing-mode:lr-tb;text-anchor:start;stroke-width:1.05833334;stroke:#000000;stroke-linecap:round;stroke-linejoin:round"
         id="path855" />
      <path
         d="m 40.605007,32.436844 v 0.620117 h -5.829101 q 0.08268,1.309136 0.785481,1.998155 0.70969,0.682129 1.970595,0.682129 0.73036,0 1.412489,-0.179145 0.689019,-0.179145 1.364258,-0.537435 v 1.198893 q -0.682129,0.289388 -1.398709,0.440973 -0.71658,0.151584 -1.45383,0.151584 -1.846571,0 -2.928331,-1.07487 -1.07487,-1.07487 -1.07487,-2.907661 0,-1.894802 1.019748,-3.004123 1.026639,-1.116211 2.762967,-1.116211 1.557183,0 2.459798,1.005968 0.909505,0.999078 0.909505,2.721626 z m -1.267795,-0.372071 q -0.01378,-1.040419 -0.585666,-1.660536 -0.564996,-0.620117 -1.502062,-0.620117 -1.061089,0 -1.701877,0.599447 -0.633898,0.599446 -0.73036,1.688096 z"
         style="font-style:normal;font-variant:normal;font-weight:normal;font-stretch:normal;font-size:14.11111069px;font-family:sans-serif;-inkscape-font-specification:'sans-serif, Normal';font-variant-ligatures:normal;font-variant-caps:normal;font-variant-numeric:normal;font-feature-settings:normal;text-align:start;writing-mode:lr-tb;text-anchor:start;stroke-width:1.05833334;stroke:#000000;stroke-linecap:round;stroke-linejoin:round"
         id="path857" />
      <path
         d="m 41.776339,28.895286 h 1.343587 l 2.411567,6.476779 2.411567,-6.476779 h 1.343587 l -2.89388,7.717013 h -1.722548 z"
         style="font-style:normal;font-variant:normal;font-weight:normal;font-stretch:normal;font-size:14.11111069px;font-family:sans-serif;-inkscape-font-specification:'sans-serif, Normal';font-variant-ligatures:normal;font-variant-caps:normal;font-variant-numeric:normal;font-feature-settings:normal;text-align:start;writing-mode:lr-tb;text-anchor:start;stroke-width:1.05833334;stroke:#000000;stroke-linecap:round;stroke-linejoin:round"
         id="path859" />
      <path
         d="m 51.836018,34.862191 h 1.398709 v 1.750108 h -1.398709 z m 0,-8.536947 h 1.398709 v 4.513075 l -0.137804,2.459798 h -1.116211 l -0.144694,-2.459798 z"
         style="font-style:normal;font-variant:normal;font-weight:normal;font-stretch:normal;font-size:14.11111069px;font-family:sans-serif;-inkscape-font-specification:'sans-serif, Normal';font-variant-ligatures:normal;font-variant-caps:normal;font-variant-numeric:normal;font-feature-settings:normal;text-align:start;writing-mode:lr-tb;text-anchor:start;stroke-width:1.05833334;stroke:#000000;stroke-linecap:round;stroke-linejoin:round"
         id="path861" />
    </g>
  </g>
</svg>
