<?xml version="1.0" encoding="UTF-8" standalone="no"?>
<svg
   xmlns="http://www.w3.org/2000/svg"
   xmlns:xlink="http://www.w3.org/1999/xlink"
   width="100%"
   height="100%"
   version="2.0"
   viewBox="-400 -400 800 800"
   preserveAspectRatio="xMidYMid meet"
   id="svg849">
  
  <desc
     id="desc838" />
  <defs
     id="defs842">
    <linearGradient
       id="linearGradientBakgrunn">
      <stop
         style="stop-color:#7d3051;stop-opacity:1"
         offset="0"
         id="stop1398" />
      <stop
         style="stop-color:#000000;stop-opacity:1"
         offset="1"
         id="stop1400" />
    </linearGradient>
    <style
       type="text/css"
       id="style840">
            /*<![CDATA[*/

         .satellite text,
         #forside_start,
         #forside_start_bg {
               text-anchor: middle; 
               font-family: sans-serif; 
               font-size: 26px;
               fill: white; 
               stroke: white; 
               stroke-linejoin: round; 
               stroke-width: 0; 
               paint-order: stroke; 
               font-weight: bold;
               
            }
            #forside_start, #forside_start_bg {
              font-size: 64px;
            }

            #forside_start_bg {
              font-size: 64px;
              stroke: rgba(84,3,53,0.5);
              stroke-width: 6px;
              paint-order: stroke;
            }
            
            .textbg, .textbg2, .senter_bg {
               fill: #7a2f4f;
               stroke: none;
            }
            .textbg2 {
               opacity: 0.4;
            }
            
            a:hover .textbg,
            a:focus .textbg,
            a:focus .senter_bg,
            a:hover .senter_bg {
               fill: #9c254b;
            }
            
            #titteltekst, #tittel_fix {
               text-anchor: left; 
               font-family: sans-serif;
               fill: black; 
               stroke: white; 
               stroke-linejoin: round; 
               stroke-width: 10; 
               paint-order: stroke;
               font-size: 68px;
               font-weight: bold;
               letter-spacing: 10px;
            }
            .bidragsytere {
              fill: white;
              font-family: sans-serif;
              font-size: 1.1em;
              opacity: .8;
              }
            #tittel_fix {
               stroke-width: 1;
               stroke: black;
            }
            
            #textpath {fill:none; stroke: none;}
            
            a:hover text, a:focus text {
               
            }
            
            .L {
               stroke: #9cff6e;
            }
            .U {
            stroke: #ffee60;
            }
            .m {
            stroke: #f760ff;
            }
            .b {
            stroke: #b1ffff;
            }
            .r {
            stroke: #4affa9;
            }
            .i {
            stroke: #ff9272;
            }
            .k {
            stroke: #72d2ff;
            }
            .u {
            stroke: #ffffb1;
            }
            .s {
            stroke: #c472ff;            
            }
            
            #senter_omriss {
               fill: transparent;
               stroke: yellow;
               stroke-width: 5;
               stroke-dasharray: 0.001 16;
            }
            
            #senter_omriss,
            .textbg {
               stroke-linecap: round;
            }
            
            .textbg {
               stroke: transparent;
               stroke-width: 5;
               stroke-dasharray: 0.1 11;
            
            }
            
            a:hover #senter_omriss,
            a:focus #senter_omriss {
               stroke-width: 10;
               stroke-dasharray: 0.001 16;
            }
            
            a:focus #senter_omriss, 
            a:hover #senter_omriss,
            a:focus .textbg,
            a:hover .textbg {
               stroke: yellow;
            }
            
            a:focus #senter_omriss, 
            a:hover #senter_omriss {
               animation-name: stroke_omriss;
               animation-duration: 5s;
               animation-timing-function: linear;
               animation-iteration-count: infinite;
               animation-fill-mode: both;
               animation-direction: both;
            }
            
            @keyframes stroke_omriss {
               from {
               stroke-dashoffset:16;
               }
               to {
               stroke-dashoffset:0;
               }
            }
            
            /* msie workaround - in case paint-order is not supported */
            use text, use tspan {
               fill: red;
               stroke: none;
               stroke-width: 0;
            }
            .satellite .t_fix {stroke-width: 0;}

            .satellite text {
              opacity: .8;
            }
            
            .satellite :hover text {
              opacity: 1;
            }

            @media aural {
               .t_fix {display:none;}
            }
            
            #nafologo {
               fill: white;
               opacity: 0.5;
            }

            a:hover #nafologo,
            a:focus #nafologo {
              fill: white;
              opacity: 1;
            }

            a:hover #start_text,
            a:focus #start_text {
              opacity: 1;
            }


            #start_text {
              opacity: .8;
            }

            /*]]>*/
        </style>
    <radialGradient
       xlink:href="#linearGradientBakgrunn"
       id="radialGradientBakgrunn"
       cx="0"
       cy="0"
       fx="0"
       fy="0"
       r="1000"
       gradientUnits="userSpaceOnUse" />
          <clipPath id="clip_alle_i_kula">
        <circle r="150" cx="0" cy="0" />
     </clipPath>
  </defs>
  <g
     alignment-baseline="baseline"
     id="g844" />
  <rect
     id="bg"
     x="-20000"
     y="-20000"
     width="40000"
     height="40000"
     fill="black"
     style="fill:url(#radialGradientBakgrunn)" />

  
   <g id="hovedlenkegruppen" transform="translate(0,-90) scale(1.3)" ><path transform="scale(1.2)" id="textpath" d="m -153.79,0 c 0,-84.934 68.856,-153.79 153.79,-153.79 84.934,0 153.79,68.856 153.79,153.79"></path>
   
   <a transform="translate(0,20)" xlink:href="/kapitler" target="_top" xlink:title="Start lumbrikus. Til kapitteloversikten.">
      
      <circle class="textbg2" r="170" cx="0" cy="0" />
      
      <circle class="senter_bg" r="158" cx="0" cy="0" />
      
      <circle fill="transparent" stroke="none" r="230" cx="0" cy="0"></circle>
      
      <image x="-150" y="-150" clip-path="url(#clip_alle_i_kula)" id="alle_i_kula_bilde" xlink:href="../img/alle_i_kula_i_verdensrommet.jpg" width="300" height="300"></image>
      
      <circle id="senter_omriss" r="158" cx="0" cy="0" />
      
      <g id="g_tittel_tekst" transform="rotate(10)">
      <text textLength="520" lengthAdjust="spacing"
         id="titteltekst"
         x="0"
         y="0">
         <textPath xlink:href="#textpath"><tspan class="L">L</tspan><tspan class="U">u</tspan><tspan class="m">m</tspan><tspan class="b">b</tspan><tspan class="r">r</tspan><tspan class="i">i</tspan><tspan class="k">k</tspan><tspan class="u">u</tspan><tspan class="s">s</tspan>
         </textPath>
      </text>
         <text  textLength="520" lengthAdjust="spacing"
         id="tittel_fix"
         x="0"
         y="0"> 
         <textPath xlink:href="#textpath"><tspan class="L">L</tspan><tspan class="U">u</tspan><tspan class="m">m</tspan><tspan class="b">b</tspan><tspan class="r">r</tspan><tspan class="i">i</tspan><tspan class="k">k</tspan><tspan class="u">u</tspan><tspan class="s">s</tspan>
         </textPath>
      </text>
   </g>
    <g id="start_text" letter-spacing="3px">
      <text x="-3" y="122" id="forside_start_bg">start</text>
      <text x="-3" y="122" id="forside_start">start</text>
    </g> 
   </a></g>
   
   
  <g id="satellittlenker" transform="translate(0,-20)">
   <g class="satellite" transform="translate(-50,0)">
      <a xlink:href="/laererveil/" target="_top" xlink:title="Lærerveiledningen inneholder mange tips om hvordan man kan bruke ressursen i undervisningen.">
         <circle class="textbg2" r="105" cx="-235" cy="187" />
         <circle class="textbg" r="90" cx="-235" cy="187" />
         <text id="t_laererveil" x="-235" y="-187">
            <tspan x="-235" y="187" dy="-20">lærer-</tspan>
              <tspan x="-235" y="187" dy="30">veiledning</tspan>
         </text>
      </a>
   </g>
   
     <g class="satellite" transform="translate(0,0)">
        <a xlink:href="/om-lumbrikus/" target="_top" xlink:title="Om prosjektet 'Lumbrikus', hvem som har laget det, bakgrunn etc.">
           <circle class="textbg2" r="105" cx="0" cy="300" />
           <circle class="textbg" r="90" cx="0" cy="300" />
           <text id="t_nafo" x="0" y="300">
              <tspan x="0" y="300" dy="-20">om</tspan>
              <tspan x="0" y="300" dy="30">Lumbrikus</tspan>
           </text>
        </a>
     </g>
   
   <g class="satellite" transform="translate(50,0)">
      <a xlink:href="/til-foreldre/" target="_top" xlink:title="En beskrivelse av innholdet rettet mot foreldre. Her presenteres hoved-temaene.">
         <circle class="textbg2" r="105" cx="235" cy="187" />
         <circle class="textbg" r="90" cx="235" cy="187" />
         <text id="t_foreldre" x="235" y="187">
            <tspan x="235" y="187" dy="-20">til</tspan>
            <tspan x="235" y="187" dy="30">foreldre</tspan>
         </text>
      </a>
   </g>
   
   
   
  </g>
   <a xlink:href="http://nafo.oslomet.no/" target="_top" xlink:title="Nasjonalt senter for flerkulturell opplæring har utviklet nettsiden">
   <ellipse cx="200" cy="350" rx="70" ry="40" fill="#7a2f4f" opacity="0.5"></ellipse>
   <ellipse class="textbg" cx="200" cy="350" rx="60" ry="30" fill="rgba(0,0,0,0.07);"></ellipse>
   <path transform="translate(200,350) scale(1.3)" id="nafologo" d="M18.5 7.6C16.1 7.3 14.5 6.2 14.1 4.4 14 4 14 3.7 14 0.5c0-3.9 0-3.8 0.4-4.7 0.5-1.1 1.6-1.9 3-2.2 0.5-0.1 0.8-0.2 1.8-0.2 1.3 0 2 0 2.8 0.3 1.2 0.4 2.1 1.2 2.6 2.1C25-3.4 25-3.3 25 0.4 25 2.5 25 3.8 24.9 4.1 24.8 5 24.2 5.9 23.5 6.4 22.4 7.4 20.5 7.8 18.5 7.6Zm2.6-1.9c0.8-0.2 1.4-0.6 1.7-1.1 0.4-0.6 0.4-0.6 0.4-4.1 0-2.2 0-3.3-0.1-3.5-0.1-0.6-0.6-1.1-1.2-1.4-0.7-0.3-1.2-0.4-2.4-0.4-0.9 0-1.2 0-1.6 0.1-1.3 0.3-1.9 0.9-2.2 1.9-0.1 0.4-0.1 6.2 0 6.6 0.2 1.1 1.1 1.7 2.6 2 0.6 0.1 2.2 0 2.8-0.1zM-23 7.3c-0.1-0.1-0.3-0.2-0.3-0.3-0.1-0.2-0.1-0.3-0.1-4.7 0-5 0-4.8 0.4-5.9 0.1-0.3 0.2-0.6 0.2-0.6 0 0-0.5-0.5-1-1-1.2-1-1.3-1.2-1.2-1.7 0.1-0.3 0.4-0.7 0.7-0.7 0.4-0.1 0.6 0 1.7 1l1.1 0.9 0.5-0.3c0.5-0.3 1-0.5 1.7-0.6 0.7-0.1 2.4-0.1 3.1 0 2.1 0.5 3.4 1.7 3.9 3.6 0.1 0.5 0.1 0.7 0.1 2.3V1.2l4.2 0h3.8c0 0 1-0.1 1 1 0 1-1 1-1 1H-9-14.1V0.7c0-2.8 0-3.1-0.4-3.7-0.3-0.7-0.9-1.1-1.8-1.4-0.4-0.1-0.6-0.1-1.4-0.1-0.8 0-1 0-1.4 0.1-0.9 0.3-1.5 0.7-1.9 1.5-0.4 0.7-0.4 0.8-0.4 5.5 0 4 0 4.3-0.1 4.5-0.2 0.3-0.4 0.5-0.9 0.5-0.3 0-0.4 0-0.5-0.1zm22.3 0C-0.8 7.2-0.9 7-1 6.9-1.1 6.6-1.1 6.5-1.1 2.4c0-3.6 0-4.3-0.1-4.7-0.2-0.9-0.7-1.6-1.4-1.9-0.7-0.3-1.1-0.4-2.1-0.4-1.3 0-2 0.2-2.7 0.8-0.6 0.6-0.9 1.3-0.9 2.4 0 0.8-0.1 1-0.4 1.2-0.3 0.2-0.7 0.2-1 0-0.4-0.2-0.6-0.8-0.5-1.8 0.1-0.8 0.2-1.2 0.6-2 0.3-0.5 0.4-0.7 0.8-1.2 0.4-0.4 0.6-0.6 1.2-0.8 0.8-0.4 1.3-0.5 2.3-0.6 0.8-0.1 1.9 0 2.7 0.2 0.6 0.2 1.5 0.6 1.9 0.9 0.7 0.6 1.3 1.6 1.6 2.6 0.1 0.5 0.1 0.5 0.1 5.1 0 4.5 0 4.6-0.1 4.7-0.2 0.3-0.5 0.4-0.9 0.4-0.3 0-0.4 0-0.5-0.1zm3.1 0C2.3 7.2 2.1 7 2.1 7 1.9 6.8 1.9 6.8 1.9 2.2c0-4.5 0-4.6 0.1-5.1 0.3-1 0.9-2 1.6-2.6 0.5-0.4 1.3-0.8 1.9-0.9 0.8-0.2 1.8-0.3 2.7-0.2 1 0.1 1.6 0.3 2.3 0.6 0.5 0.3 0.7 0.4 1.1 0.8 0.8 0.8 1.3 1.8 1.4 3.1 0.1 1.1 0 1.6-0.5 1.8-0.3 0.2-0.8 0.2-1 0-0.4-0.2-0.4-0.4-0.4-1.2 0-0.6 0-0.8-0.2-1.2-0.3-1-1-1.6-2.1-1.9-0.6-0.1-2.1-0.1-2.6 0-1.3 0.3-2 1.1-2.3 2.2-0.1 0.3-0.1 0.8-0.1 1.9V1.1H6.9 9.7c0 0 1 0 1 1 0 1-1 1-1 1H6.7 3.9v1.8c0 1.7 0 1.8-0.1 2-0.2 0.3-0.4 0.5-0.9 0.5-0.2 0-0.4 0-0.5-0.1z"/>
  </a>

  <g class="hovedbidragsytere">
    <text class="bidragsytere" x="0" y="320">
    <tspan x="-382" dy="00">Forfatter: Jorun Gulbrandsen</tspan>
    <tspan x="-382" dy="25">Illustratør: Svetlana Voronkova</tspan>
    <tspan x="-382" dy="25">Interaksjonsdesign: Eirik Hanssen</tspan>
    </text>
  </g>

</svg>
