<?xml version="1.0" encoding="UTF-8" standalone="no"?>
<!-- Created with Inkscape (http://www.inkscape.org/) -->

<svg
   xmlns:dc="http://purl.org/dc/elements/1.1/"
   xmlns:cc="http://creativecommons.org/ns#"
   xmlns:rdf="http://www.w3.org/1999/02/22-rdf-syntax-ns#"
   xmlns:svg="http://www.w3.org/2000/svg"
   xmlns="http://www.w3.org/2000/svg"
   xmlns:sodipodi="http://sodipodi.sourceforge.net/DTD/sodipodi-0.dtd"
   xmlns:inkscape="http://www.inkscape.org/namespaces/inkscape"
   version="1.1"
   id="svg2"
   xml:space="preserve"
   width="202.52"
   height="72.427"
   viewBox="0 0 202.52 72.427"
   sodipodi:docname="NRK_positiv_rgb_2017.svg"
   inkscape:version="0.92.2 (unknown)"><metadata
     id="metadata8"><rdf:RDF><cc:Work
         rdf:about=""><dc:format>image/svg+xml</dc:format><dc:type
           rdf:resource="http://purl.org/dc/dcmitype/StillImage" /><dc:title></dc:title></cc:Work></rdf:RDF></metadata><defs
     id="defs6" /><sodipodi:namedview
     pagecolor="#ffffff"
     bordercolor="#666666"
     borderopacity="1"
     objecttolerance="10"
     gridtolerance="10"
     guidetolerance="10"
     inkscape:pageopacity="0"
     inkscape:pageshadow="2"
     inkscape:window-width="1513"
     inkscape:window-height="695"
     id="namedview4"
     showgrid="false"
     inkscape:zoom="2.1089"
     inkscape:cx="123.45"
     inkscape:cy="25.018"
     inkscape:window-x="315"
     inkscape:window-y="347"
     inkscape:window-maximized="0"
     inkscape:current-layer="g10" /><g
     id="g10"
     inkscape:groupmode="layer"
     inkscape:label="ink_ext_XXXXXX"
     transform="matrix(1.3333,0,0,-1.3333,0,72.427)"><g
       id="g12"
       transform="scale(0.1)"><path
         d="M 0,0 H 186.45 V 532.13 H 0 Z"
         style="fill:#070a09;fill-opacity:1;fill-rule:nonzero;stroke:none"
         id="path14"
         inkscape:connector-curvature="0" /><path
         d="M 531.94,0 H 718.48 V 532.13 H 531.94 Z"
         style="fill:#070a09;fill-opacity:1;fill-rule:nonzero;stroke:none"
         id="path16"
         inkscape:connector-curvature="0" /><path
         d="M 952.33,0 H 1138.9 V 532.13 H 952.33 Z"
         style="fill:#070a09;fill-opacity:1;fill-rule:nonzero;stroke:none"
         id="path18"
         inkscape:connector-curvature="0" /><path
         d="m 835.39,543.19 c -58.16,0 -105.22,-47.51 -105.22,-106.08 0,-58.54 47.06,-106.08 105.22,-106.08 58.13,0 105.32,47.54 105.32,106.08 0,58.57 -47.19,106.08 -105.32,106.08"
         style="fill:#070a09;fill-opacity:1;fill-rule:nonzero;stroke:none"
         id="path20"
         inkscape:connector-curvature="0" /><path
         d="m 1372.1,241.29 c -11.1,18.98 -11.7,30.64 -1,48.86 l 147.8,241.98 h -205 c 0,0 -123.3,-201.29 -140.1,-229.32 -16.7,-27.93 -16.1,-45.37 0.7,-74.06 C 1191.3,200.04 1313.9,0 1313.9,0 h 205 c 0,0 -145.1,238.34 -146.8,241.29"
         style="fill:#070a09;fill-opacity:1;fill-rule:nonzero;stroke:none"
         id="path22"
         inkscape:connector-curvature="0" /><path
         d="m 420.41,446.8 c -9.51,48.63 -52.19,85.33 -103.32,85.33 H 197.31 L 317.56,0 H 520.47 L 420.41,446.8"
         style="fill:#070a09;fill-opacity:1;fill-rule:nonzero;stroke:none"
         id="path24"
         inkscape:connector-curvature="0" /></g></g></svg>