<?xml version="1.0" encoding="UTF-8" standalone="no"?>
<svg
   xmlns:dc="http://purl.org/dc/elements/1.1/"
   xmlns:cc="http://creativecommons.org/ns#"
   xmlns:rdf="http://www.w3.org/1999/02/22-rdf-syntax-ns#"
   xmlns:svg="http://www.w3.org/2000/svg"
   xmlns="http://www.w3.org/2000/svg"
   id="svg8"
   version="1.1"
   viewBox="0 0 300 69"
   height="69"
   width="300">
  <defs
     id="defs2" />
  <metadata
     id="metadata5">
    <rdf:RDF>
      <cc:Work
         rdf:about="">
        <dc:format>image/svg+xml</dc:format>
        <dc:type
           rdf:resource="http://purl.org/dc/dcmitype/StillImage" />
        <dc:title></dc:title>
      </cc:Work>
    </rdf:RDF>
  </metadata>
  <g
     transform="translate(-226.88699,-247.67364)"
     id="layer1">
    <rect
       y="264.76059"
       x="228.94975"
       height="1.1693041"
       width="0.23386084"
       id="rect900"
       style="opacity:1;vector-effect:none;fill:#ffff00;fill-opacity:1;stroke:none;stroke-width:3.52777767;stroke-linecap:butt;stroke-linejoin:miter;stroke-miterlimit:4;stroke-dasharray:none;stroke-dashoffset:0;stroke-opacity:1" />
    <path
       style="opacity:1;vector-effect:none;fill:#0ea4bf;fill-opacity:1;stroke:#0ea4bf;stroke-width:0.75290108;stroke-linecap:butt;stroke-linejoin:miter;stroke-miterlimit:4;stroke-dasharray:none;stroke-dashoffset:0;stroke-opacity:1"
       d="m 356.20746,248.05008 a 33.84459,34.123327 0 0 0 -33.84402,34.12435 33.84459,34.123327 0 0 0 33.84402,34.12277 33.84459,34.123327 0 0 0 33.8441,-34.12277 33.84459,34.123327 0 0 0 -33.8441,-34.12435 z m 0,6.23981 a 27.655747,27.883514 0 0 1 27.65524,27.88454 27.655747,27.883514 0 0 1 -27.65524,27.88299 27.655747,27.883514 0 0 1 -27.6552,-27.88299 27.655747,27.883514 0 0 1 27.6552,-27.88454 z m -83.10207,12.42646 a 5.410907,5.45547 0 0 0 -5.41074,5.45533 5.410907,5.45547 0 0 0 5.41074,5.45534 5.410907,5.45547 0 0 0 5.41078,-5.45534 5.410907,5.45547 0 0 0 -5.41078,-5.45533 z m 243.81028,0.46099 a 2.1163695,2.1337995 0 0 0 -2.0863,2.16744 v 5.81946 c -0.008,0.12208 -0.0302,0.23924 -0.034,0.36434 a 2.1180531,2.1354969 0 0 0 0.034,0.43129 v 17.42862 a 2.117975,2.1354181 0 1 0 4.23595,0 V 275.4567 c 0.0877,-0.47906 0.54829,-1.32015 1.48796,-2.01899 1.03616,-0.77049 2.47238,-1.26883 3.64385,-1.21107 a 2.1163695,2.1337995 0 1 0 0.21089,-4.25832 c -1.93368,-0.0952 -3.77272,0.45728 -5.34266,1.37359 a 2.1163695,2.1337995 0 0 0 -2.14965,-2.16431 z m -289.65223,0.0453 v 28.89254 h 10.12094 v -28.89254 z m 11.10671,0 6.6135,28.89254 h 10.11943 l -5.84939,-25.55616 c -0.45211,-1.65392 -1.70272,-3.33649 -3.7787,-3.33638 z m 18.35261,0 v 28.89254 h 10.12097 v -28.89254 z m 22.64584,0 v 28.89254 h 10.12102 v -28.89254 z m 20.3412,0 -8.91825,14.44548 8.91825,14.44706 h 10.12098 l -8.91822,-14.44706 8.91822,-14.44548 z m 168.51975,0.20296 c -2.53542,-0.008 -4.80836,0.69634 -6.60734,1.88145 a 2.1163695,2.1337995 0 0 0 -2.02114,-1.42201 2.1163695,2.1337995 0 0 0 -2.08456,2.16745 v 17.18639 a 2.1163695,2.1337995 0 0 0 0,0.0952 v 16.66134 a 2.1163695,2.1337995 0 1 0 4.22812,0 v -9.38703 c 1.80741,1.07634 4.02932,1.62909 6.48492,1.62047 5.99671,-0.0227 10.69758,-3.91374 10.69758,-8.89478 v -10.79037 c 0,-2.70149 -1.15858,-5.16627 -3.12314,-6.75704 -1.96452,-1.59077 -4.59957,-2.3492 -7.57444,-2.36122 z m -19.95214,0.1595 a 2.1163695,2.1337995 0 0 0 -2.08464,2.16121 v 17.58335 a 2.1163695,2.1337995 0 0 0 0.008,0.11074 c 0,0 0.0427,0.96208 -0.62774,2.0143 -0.67064,1.05222 -1.95519,2.3034 -5.98118,2.3034 -4.02581,0 -5.38455,-1.26259 -6.10356,-2.3393 -0.71906,-1.07675 -0.69748,-2.04246 -0.69748,-2.04246 a 2.1163695,2.1337995 0 0 0 0,-0.0469 v -17.48323 a 2.1163695,2.1337995 0 1 0 -4.22967,0 v 17.43017 c 0,0 -0.0556,2.31731 1.41815,4.52399 1.47364,2.20664 4.57312,4.22857 9.61256,4.22857 5.03951,0 8.12104,-2.03342 9.54286,-4.26452 1.42193,-2.23113 1.28953,-4.55369 1.28953,-4.55369 l 0.008,0.11906 v -17.58336 a 2.1163695,2.1337995 0 0 0 -2.15127,-2.16117 z m -35.34129,0.0302 c -5.35378,0 -8.97271,3.89878 -8.82679,8.06658 0.0854,2.43813 1.59693,4.34906 3.27342,5.39909 1.67645,1.04999 3.54172,1.58646 5.24954,2.13774 1.70782,0.55125 3.24873,1.1198 4.15381,1.7658 0.90509,0.64603 1.25235,1.07894 1.25235,2.34565 0,2.05984 -0.56409,3.03557 -1.40572,3.72545 -0.84178,0.68984 -2.21548,1.11103 -3.99417,1.11103 -1.80359,0 -2.99138,-0.37267 -3.79117,-0.98605 -0.79967,-0.61319 -1.40383,-1.55939 -1.75136,-3.35508 a 2.1163695,2.1337995 0 1 0 -4.15223,0.82042 c 0.48465,2.50435 1.59353,4.58774 3.3447,5.93042 1.75117,1.34257 3.95887,1.85484 6.35006,1.85484 2.41591,0 4.79898,-0.53707 6.66611,-2.0674 1.86728,-1.53037 2.96349,-4.03283 2.96349,-7.03363 0,-2.55179 -1.36592,-4.63926 -3.03474,-5.83041 -1.66877,-1.19112 -3.56292,-1.78103 -5.30691,-2.34403 -1.7441,-0.56296 -3.34809,-1.09572 -4.30568,-1.6955 -0.95762,-0.59973 -1.24815,-0.91963 -1.28337,-1.92522 -0.0631,-1.79697 1.05475,-3.65673 4.59866,-3.65673 1.9095,0 2.99864,0.41934 3.67333,0.90955 0.67464,0.49013 1.05657,1.11549 1.31278,2.00334 a 2.1163695,2.1337995 0 1 0 4.05925,-1.19392 c -0.44851,-1.55456 -1.3497,-3.15364 -2.89372,-4.27548 -1.54401,-1.1218 -3.61232,-1.7065 -6.15164,-1.70646 z m 83.88009,0.0533 c -2.28374,-0.0113 -4.69346,0.59963 -6.71271,1.98301 -2.01902,1.38338 -3.63141,3.74861 -3.63141,6.66331 0,0.58961 0.001,2.86779 0,4.51147 a 2.1163695,2.1337995 0 0 0 0,0.65636 c -0.002,2.67201 -0.008,5.03728 0,7.01643 a 2.1163695,2.1337995 0 0 0 0.008,0.0767 c 0.093,2.35775 1.57973,4.244 3.36174,5.38655 1.78209,1.14255 3.92772,1.74512 6.13304,1.91898 2.20528,0.17386 4.47602,-0.0884 6.50344,-0.93917 2.02753,-0.85066 3.88146,-2.40926 4.65139,-4.71308 a 2.1163695,2.1337995 0 1 0 -4.00811,-1.35798 c -0.30955,0.92591 -1.0291,1.61254 -2.26602,2.1315 -1.23682,0.51897 -2.92434,0.74873 -4.55207,0.62037 -1.62777,-0.1285 -3.19064,-0.62078 -4.19414,-1.26417 -1.00347,-0.64335 -1.37103,-1.23118 -1.39952,-1.95496 -0.008,-1.44976 -8.7e-4,-3.04665 0,-5.10838 h 14.70868 a 2.1163695,2.1337995 0 0 0 2.11412,-2.10807 c 0.0227,-2.19851 0.0907,-3.06796 0,-4.6599 -0.1784,-3.11962 -1.77215,-5.56894 -3.85928,-6.96333 -2.0871,-1.39449 -4.54553,-1.8842 -6.85376,-1.89554 z m -28.60375,4.02078 c 2.26152,0.008 3.91768,0.60359 4.93811,1.42984 1.02036,0.82624 1.54061,1.84698 1.54061,3.42542 v 10.79033 c 0,2.25952 -2.16967,4.61008 -6.47872,4.62554 -2.1956,0.008 -3.86234,-0.58617 -4.90858,-1.41736 -1.04625,-0.83116 -1.55925,-1.83436 -1.55925,-3.20818 v -10.69342 a 2.1163695,2.1337995 0 0 0 0,-0.0968 c 0,-2.55557 2.08732,-4.87245 6.46783,-4.85526 z m 28.5867,0.24227 c 1.68964,0.008 3.38676,0.42142 4.53355,1.18764 1.14686,0.76619 1.86448,1.73133 1.97461,3.6567 0.0412,0.71761 0.003,1.59076 -0.008,2.25494 h -12.59468 c 8.3e-4,-0.80886 0,-2.35563 0,-2.71593 0,-1.44424 0.62234,-2.34683 1.77468,-3.13633 1.15237,-0.78947 2.85471,-1.25413 4.318,-1.24702 z m -129.57486,2.81284 -1.23526,5.00058 -5.10853,-0.15609 4.33512,2.72844 -1.7266,4.85053 3.9151,-3.31283 4.04062,3.15341 -1.91573,-4.7771 4.22513,-2.90033 -5.09926,0.36094 z m -22.97444,2.07522 a 5.2105028,5.2534155 0 0 0 -5.21087,5.25378 5.2105028,5.2534155 0 0 0 5.21087,5.25373 5.2105028,5.2534155 0 0 0 5.2108,-5.25373 5.2105028,5.2534155 0 0 0 -5.2108,-5.25378 z"
       id="path1034" />
  </g>
</svg>
